<svg width="176" height="129" viewBox="0 0 176 129" fill="none" xmlns="http://www.w3.org/2000/svg">
<path d="M130.221 128.154L131.973 128.364L131.654 128.633L131.33 128.592L127.161 128.027L110.525 125.799L39.9909 116.343L4.44336 111.581L7.50867 110.064L63.9113 82.135L150 88.4189L131.654 103.835C125.856 109.175 125.441 123.351 129.414 127.489C129.66 127.753 129.934 127.977 130.221 128.15V128.154Z" fill="#4F7BDD"/>
<path d="M131.457 127.662C124.711 123.666 127.261 110.118 131.653 105.388L151.697 88.5464L153.959 86.6462L174.103 88.1181C174.823 88.1682 175.261 88.7652 175.261 89.3712C175.261 89.8451 175.042 90.3236 174.673 90.6243C174.673 90.6243 134.669 126.14 131.457 127.662Z" fill="url(#paint0_linear_1_4318)"/>
<path d="M60.0844 59.2368L4.44353 86.7874C-1.24463 90.4055 0.306275 110.032 4.44353 111.586L131.654 128.633C125.45 128.118 124.93 110.036 131.654 103.834L174.45 67.8857C175.439 67.0563 174.915 65.4432 173.628 65.3521L68.1718 57.6556C65.3848 57.4506 62.5886 57.9974 60.0844 59.2414V59.2368Z" fill="url(#paint1_linear_1_4318)"/>
<path style="mix-blend-mode:multiply" opacity="0.4" d="M126.838 119.346L1.18359 104.372C1.78115 108.072 2.93976 111.02 4.44048 111.586L131.651 128.633C128.741 128.391 127.08 124.281 126.834 119.346H126.838Z" fill="url(#paint2_linear_1_4318)"/>
<path style="mix-blend-mode:screen" opacity="0.4" d="M7.23605 85.4067L4.43987 86.792C2.72475 87.8811 1.67105 90.4329 1.14648 93.5042L128.722 108.173C129.47 106.459 130.441 104.956 131.655 103.839L136.152 100.061L7.23605 85.4067Z" fill="url(#paint3_linear_1_4318)"/>
<path d="M175.261 91.2578C175.28 91.7226 175.143 92.1327 174.814 92.3742L132.425 127.981L131.649 128.633C125.391 128.05 124.971 109.986 131.649 103.835L149.996 88.4189L152.263 86.5187L173.606 68.5921L174.45 67.8858C174.568 67.7856 174.659 67.6808 174.737 67.5623C174.846 67.3982 174.906 67.216 174.938 67.0337V68.5921C174.887 68.8974 174.732 69.1982 174.445 69.4351L153.955 86.6417L151.692 88.5419L131.649 105.384C127.311 110.114 126.997 123.98 131.093 126.856C132.169 127.084 173.715 91.2714 173.683 91.2578C174.865 90.2644 175.261 90.0639 175.261 89.3712V91.2578Z" fill="url(#paint4_linear_1_4318)"/>
<path style="mix-blend-mode:screen" opacity="0.3" d="M175.261 91.2578C175.28 91.7226 175.143 92.1327 174.814 92.3742L132.425 127.981L131.649 128.633C125.391 128.05 124.971 109.986 131.649 103.835L149.996 88.4189L152.263 86.5187L173.606 68.5921L174.45 67.8858C174.568 67.7856 174.659 67.6808 174.737 67.5623C174.846 67.3982 174.906 67.216 174.938 67.0337V68.5921C174.887 68.8974 174.732 69.1982 174.445 69.4351L153.955 86.6417L151.692 88.5419L131.649 105.384C127.311 110.114 126.997 123.98 131.093 126.856C132.169 127.084 173.715 91.2714 173.683 91.2578C174.865 90.2644 175.261 90.0639 175.261 89.3712V91.2578Z" fill="url(#paint5_linear_1_4318)"/>
<path style="mix-blend-mode:screen" opacity="0.3" d="M175.261 89.3712V91.2578C175.28 91.7226 175.143 92.1327 174.814 92.3742L132.429 127.981L131.654 128.633C130.313 128.51 129.341 127.621 128.639 126.468C127.818 125.133 127.266 123.274 126.997 121.173C126.823 119.829 126.764 118.385 126.828 116.913C127.033 111.941 128.593 106.655 131.654 103.835L150 88.4189L152.262 86.5187L173.396 68.7653L173.606 68.5921L174.449 67.8858C174.568 67.7901 174.659 67.6808 174.737 67.5623C174.846 67.3982 174.906 67.216 174.938 67.0337V68.5921C174.887 68.8974 174.728 69.1982 174.445 69.4351L173.14 70.5333L153.959 86.6417L151.692 88.5419L131.649 105.384C127.804 109.572 127.12 120.932 129.861 125.47C130.217 126.054 130.623 126.528 131.093 126.856C132.169 127.084 173.715 91.2714 173.683 91.2578C174.869 90.2644 175.261 90.0639 175.261 89.3712Z" fill="url(#paint6_linear_1_4318)"/>
<path style="mix-blend-mode:screen" opacity="0.3" d="M175.261 89.3712V91.2578C175.28 91.7226 175.143 92.1327 174.814 92.3742L132.429 127.981L131.654 128.633C130.317 128.51 129.346 127.626 128.639 126.468C127.818 125.133 127.266 123.274 126.997 121.173C126.823 119.829 126.764 118.385 126.828 116.913C126.846 116.507 126.869 116.097 126.905 115.691C127.298 111.098 128.844 106.423 131.654 103.835L150 88.4189L152.262 86.5187L173.396 68.7653L173.606 68.5921L174.449 67.8858C174.568 67.7901 174.659 67.6808 174.737 67.5623C174.846 67.3982 174.906 67.216 174.938 67.0337V68.5921C174.887 68.8974 174.728 69.1982 174.445 69.4351L173.14 70.5333L153.959 86.6417L151.692 88.5419L131.649 105.384C131.613 105.42 131.581 105.461 131.544 105.502C131.508 105.543 131.476 105.584 131.439 105.625C131.403 105.666 131.371 105.707 131.334 105.748C127.767 110.196 127.193 121.059 129.857 125.466C130.171 125.99 130.582 126.496 131.088 126.851C132.165 127.079 173.711 91.2669 173.679 91.2532C174.865 90.2598 175.257 90.0593 175.257 89.3667L175.261 89.3712Z" fill="url(#paint7_linear_1_4318)"/>
<path d="M173.766 89.6036L130.4 126.213C130.209 125.99 130.026 125.744 129.862 125.47C127.198 121.059 127.773 110.2 131.34 105.753C131.376 105.712 131.408 105.671 131.445 105.63C131.481 105.589 131.513 105.548 131.55 105.507C131.586 105.466 131.618 105.429 131.655 105.388L151.698 88.5464L153.965 86.6462L173.146 70.5378C172.229 77.3959 172.247 83.8392 173.766 89.6082V89.6036Z" fill="url(#paint8_linear_1_4318)"/>
<path style="mix-blend-mode:multiply" opacity="0.9" d="M138.919 108.993C135.621 121.397 106.218 124.363 73.2296 115.614C40.2502 106.869 16.1839 89.7175 19.4773 77.323C22.7706 64.9193 52.183 61.9573 85.1624 70.7019C118.151 79.451 142.213 96.5983 138.915 108.997L138.919 108.993Z" fill="url(#paint9_radial_1_4318)"/>
<path style="mix-blend-mode:multiply" opacity="0.9" d="M131.49 100.33C128.192 112.734 98.7885 115.7 65.7999 106.951C32.8205 98.2068 8.75419 81.0549 12.0476 68.6604C15.341 56.2567 44.7533 53.2948 77.7328 62.0393C110.721 70.7838 134.783 87.9357 131.485 100.33H131.49Z" fill="url(#paint10_radial_1_4318)"/>
<path style="mix-blend-mode:multiply" opacity="0.9" d="M171.17 85.1014C168.41 101.538 134.674 109.585 95.8098 103.069C56.9506 96.5618 27.6843 77.9517 30.4394 61.5289C33.1991 45.097 66.9403 37.0497 105.799 43.5568C144.668 50.0685 173.93 68.6695 171.174 85.0968L171.17 85.1014Z" fill="url(#paint11_radial_1_4318)"/>
<path style="mix-blend-mode:multiply" opacity="0.9" d="M170.495 89.5354C167.339 108.337 133.283 118.303 94.4145 111.786C55.5553 105.279 26.6082 84.7507 29.7602 65.9675C32.9122 47.1706 66.9773 37.2094 105.836 43.7165C144.705 50.2282 173.643 70.7476 170.491 89.54L170.495 89.5354Z" fill="url(#paint12_radial_1_4318)"/>
<path style="mix-blend-mode:multiply" opacity="0.9" d="M172.464 73.6777C171.826 77.4872 166.297 79.7383 160.117 78.6993C153.936 77.6649 149.447 73.737 150.086 69.9275C150.725 66.1179 156.253 63.8714 162.434 64.9058C168.615 65.9402 173.103 69.8682 172.464 73.6777Z" fill="url(#paint13_radial_1_4318)"/>
<path style="mix-blend-mode:multiply" opacity="0.9" d="M170.677 75.7419C170.039 79.5514 164.51 81.8025 158.329 80.7635C152.149 79.7291 147.66 75.8012 148.299 71.9917C148.937 68.1822 154.466 65.9356 160.647 66.97C166.827 68.0044 171.316 71.9324 170.677 75.7419Z" fill="url(#paint14_radial_1_4318)"/>
<path d="M108.682 107.421L108.112 107.061C103.938 100.873 103.66 89.7681 107.432 81.8847C108.326 80.021 109.786 78.4854 111.592 77.4692L133.788 65.0883L135.344 64.2407L169.263 72.6845C169.605 72.7711 169.787 73.0673 169.778 73.3635C169.774 73.5913 169.76 74.129 169.527 74.2566L108.691 107.426L108.682 107.421Z" fill="url(#paint15_linear_1_4318)"/>
<path d="M163.033 49.0801C161.131 58.7223 161.268 67.7175 163.033 76.1886L107.784 106.551C103.843 100.139 103.793 89.0936 107.534 81.4335C108.382 79.6883 109.75 78.2529 111.452 77.3187L133.785 65.0928L135.34 64.2452L163.033 49.0846V49.0801Z" fill="url(#paint16_linear_1_4318)"/>
<path style="mix-blend-mode:multiply" d="M114.867 87.184C114.867 87.184 128.077 80.1711 130.969 78.6628C133.857 77.1499 138.263 74.949 138.263 74.949C138.263 74.949 128.355 80.7225 125.605 82.0986C122.854 83.4748 114.872 87.184 114.872 87.184H114.867Z" fill="url(#paint17_linear_1_4318)"/>
<path d="M68.6698 18.3306L10.9717 48.2188C6.42851 53.6414 6.15483 73.4362 10.9717 78.7723L108.628 108.455C101.932 102.582 102.484 86.6328 108.628 77.9019L169.424 44.6189C169.966 44.3227 169.861 43.5161 169.259 43.3658L68.6698 18.3306Z" fill="#A7EA86"/>
<path d="M169.774 44.0173V45.0107L166.75 45.3935L168.009 44.0173H169.774Z" fill="#A7EA86"/>
<path d="M169.775 44.0264V45.0106C169.77 45.2339 169.656 45.4572 169.424 45.5802L135.34 64.2404L133.785 65.088L111.452 77.314C109.75 78.2436 108.382 79.6835 107.534 81.4288C103.784 89.107 103.843 100.18 107.807 106.587C107.994 106.888 108.286 107.111 108.628 107.216L167.754 74.8487L169.378 73.9601L169.424 73.9374C169.656 73.8098 169.77 73.5865 169.775 73.3632V74.5844C169.775 74.5844 169.775 74.6072 169.775 74.6163C169.766 74.8351 169.652 75.0538 169.424 75.1768L109.007 108.25L108.628 108.46C108.058 107.959 107.538 107.384 107.073 106.751C102.064 99.9204 103.004 85.8945 108.628 77.9064L132.576 64.7964L134.131 63.9442L168.388 45.1884L169.419 44.6233C169.478 44.5914 169.528 44.555 169.574 44.5094C169.711 44.3772 169.77 44.2041 169.77 44.0309L169.775 44.0264Z" fill="url(#paint18_linear_1_4318)"/>
<path style="mix-blend-mode:screen" opacity="0.25" d="M169.775 44.0264V45.0106C169.77 45.2339 169.656 45.4572 169.424 45.5802L135.34 64.2404L133.785 65.088L111.452 77.314C109.75 78.2436 108.382 79.6835 107.534 81.4288C103.784 89.107 103.843 100.18 107.807 106.587C107.994 106.888 108.286 107.111 108.628 107.216L167.754 74.8487L169.378 73.9601L169.424 73.9374C169.656 73.8098 169.77 73.5865 169.775 73.3632V74.5844C169.775 74.5844 169.775 74.6072 169.775 74.6163C169.766 74.8351 169.652 75.0538 169.424 75.1768L109.007 108.25L108.628 108.46C108.058 107.959 107.538 107.384 107.073 106.751C102.064 99.9204 103.004 85.8945 108.628 77.9064L132.576 64.7964L134.131 63.9442L168.388 45.1884L169.419 44.6233C169.478 44.5914 169.528 44.555 169.574 44.5094C169.711 44.3772 169.77 44.2041 169.77 44.0309L169.775 44.0264Z" fill="url(#paint19_linear_1_4318)"/>
<path d="M169.775 44.0174C169.775 44.2179 169.702 44.3819 169.578 44.505C169.533 44.5505 169.483 44.587 169.423 44.6189L168.392 45.1839L134.136 63.9398L132.58 64.7919L108.633 77.9019C103.008 85.89 102.073 99.9159 107.077 106.747C107.542 107.385 108.062 107.954 108.633 108.455L10.9715 78.7723C8.67248 76.2296 7.53211 70.3877 7.46369 64.3864V64.3408C7.39527 57.7836 8.60406 51.044 10.9715 48.2188L68.6695 18.3306L169.259 43.3658C169.588 43.4478 169.77 43.7303 169.775 44.0174Z" fill="url(#paint20_linear_1_4318)"/>
<path style="mix-blend-mode:screen" opacity="0.3" d="M17.3296 44.9243L10.9709 48.2189C9.49754 49.9778 8.4712 53.2542 7.92383 57.0546L105.416 84.4912C106.21 82.0715 107.282 79.8114 108.627 77.9021L115.351 74.2201L17.3296 44.9243Z" fill="url(#paint21_linear_1_4318)"/>
<path style="mix-blend-mode:multiply" opacity="0.3" d="M10.9717 78.7724L108.628 108.456C108.058 107.954 107.538 107.38 107.073 106.747C105.235 104.24 104.199 100.764 103.903 96.9723L7.74219 69.0208C8.21202 73.2267 9.27484 76.8995 10.9717 78.7769V78.7724Z" fill="url(#paint22_linear_1_4318)"/>
<g style="mix-blend-mode:multiply" opacity="0.8">
<mask id="mask0_1_4318" style="mask-type:luminance" maskUnits="userSpaceOnUse" x="121" y="78" width="15" height="16">
<path d="M135.573 85.5029C135.481 82.6002 133.848 80.135 131.536 78.9639C131.504 79.1234 131.412 79.2646 131.248 79.3375C130.217 79.8114 129.228 80.3674 128.242 80.9324C128.448 81.2559 128.388 81.739 127.909 81.8301C127.33 81.9349 126.737 82.0215 126.144 82.1081C125.802 82.2949 125.455 82.4726 125.104 82.6458C124.018 83.1744 122.883 83.662 121.706 83.9354C121.56 84.5779 121.491 85.2477 121.514 85.9404C121.642 90.0688 124.894 93.3179 128.776 93.1994C132.658 93.0809 135.7 89.6314 135.573 85.5029Z" fill="white"/>
</mask>
<g mask="url(#mask0_1_4318)">
<path d="M135.704 78.9639H121.49V93.3179H135.704V78.9639Z" fill="white"/>
<path d="M135.832 85.9906C135.832 89.8684 132.684 93.0126 128.803 93.0126C124.921 93.0126 121.773 89.8684 121.773 85.9906C121.773 82.1127 124.921 78.9685 128.803 78.9685C132.684 78.9685 135.832 82.1127 135.832 85.9906Z" fill="white"/>
<path d="M135.777 86.0291C135.801 82.1837 132.699 79.0474 128.85 79.0239C125.001 79.0004 121.861 82.0987 121.837 85.944C121.814 89.7894 124.915 92.9258 128.765 92.9493C132.614 92.9728 135.754 89.8745 135.777 86.0291Z" fill="white"/>
<path d="M135.718 85.9904C135.718 89.8045 132.625 92.8986 128.807 92.8986C124.989 92.8986 121.896 89.8045 121.896 85.9904C121.896 82.1764 124.994 79.0823 128.807 79.0823C132.621 79.0823 135.718 82.1764 135.718 85.9904Z" fill="white"/>
<path d="M135.666 86.0334C135.69 82.2509 132.641 79.1648 128.854 79.1404C125.068 79.116 121.979 82.1625 121.954 85.9449C121.93 89.7274 124.98 92.8135 128.766 92.8379C132.552 92.8624 135.641 89.8159 135.666 86.0334Z" fill="white"/>
<path d="M135.603 85.9906C135.603 89.7409 132.56 92.7803 128.806 92.7803C125.052 92.7803 122.01 89.7409 122.01 85.9906C122.01 82.2403 125.052 79.2009 128.806 79.2009C132.56 79.2009 135.603 82.2403 135.603 85.9906Z" fill="#FEFEFE"/>
<path d="M135.545 86.0256C135.569 82.306 132.569 79.2718 128.846 79.2484C125.123 79.225 122.085 82.2214 122.062 85.9409C122.038 89.6605 125.038 92.6947 128.761 92.7181C132.485 92.7415 135.522 89.7451 135.545 86.0256Z" fill="#FEFEFE"/>
<path d="M135.49 85.9904C135.49 89.6769 132.498 92.6662 128.808 92.6662C125.117 92.6662 122.125 89.6769 122.125 85.9904C122.125 82.304 125.117 79.3147 128.808 79.3147C132.498 79.3147 135.49 82.304 135.49 85.9904Z" fill="#FEFEFE"/>
<path d="M135.43 85.9905C135.43 89.6451 132.465 92.607 128.807 92.607C125.149 92.607 122.184 89.6451 122.184 85.9905C122.184 82.336 125.149 79.374 128.807 79.374C132.465 79.374 135.43 82.336 135.43 85.9905Z" fill="#FEFDFD"/>
<path d="M135.384 86.0362C135.408 82.4123 132.486 79.4556 128.858 79.4322C125.231 79.4088 122.271 82.3276 122.247 85.9515C122.224 89.5754 125.146 92.5322 128.773 92.5556C132.401 92.579 135.361 89.6602 135.384 86.0362Z" fill="#FDFDFD"/>
<path d="M135.315 85.9904C135.315 89.5812 132.401 92.493 128.806 92.493C125.212 92.493 122.297 89.5812 122.297 85.9904C122.297 82.3996 125.212 79.4878 128.806 79.4878C132.401 79.4878 135.315 82.3996 135.315 85.9904Z" fill="#FDFDFD"/>
<path d="M135.257 86.0284C135.279 82.4699 132.409 79.567 128.847 79.5447C125.285 79.5223 122.379 82.3889 122.357 85.9474C122.335 89.5059 125.204 92.4088 128.766 92.4311C132.328 92.4535 135.234 89.5869 135.257 86.0284Z" fill="#FDFCFC"/>
<path d="M135.198 85.9905C135.198 89.5175 132.338 92.3791 128.807 92.3791C125.277 92.3791 122.412 89.5175 122.412 85.9905C122.412 82.4635 125.277 79.6018 128.807 79.6018C132.338 79.6018 135.198 82.4635 135.198 85.9905Z" fill="#FCFCFC"/>
<path d="M135.152 86.0295C135.173 82.5339 132.354 79.6829 128.855 79.6615C125.355 79.6402 122.501 82.4566 122.48 85.9522C122.459 89.4478 125.278 92.2988 128.777 92.3202C132.276 92.3415 135.13 89.5251 135.152 86.0295Z" fill="#FCFBFB"/>
<path d="M135.082 85.9904C135.082 89.4536 132.273 92.2606 128.806 92.2606C125.339 92.2606 122.529 89.4536 122.529 85.9904C122.529 82.5272 125.339 79.7202 128.806 79.7202C132.273 79.7202 135.082 82.5272 135.082 85.9904Z" fill="#FBFBFB"/>
<path d="M135.024 85.9907C135.024 89.4219 132.237 92.2062 128.802 92.2062C125.367 92.2062 122.58 89.4219 122.58 85.9907C122.58 82.5594 125.363 79.7751 128.802 79.7751C132.241 79.7751 135.024 82.5594 135.024 85.9907Z" fill="#FBFAFB"/>
<path d="M134.97 85.9905C134.97 89.3899 132.21 92.1468 128.807 92.1468C125.404 92.1468 122.645 89.3899 122.645 85.9905C122.645 82.5911 125.404 79.8342 128.807 79.8342C132.21 79.8342 134.97 82.5911 134.97 85.9905Z" fill="#FBFAFA"/>
<path d="M134.91 85.9906C134.91 89.3581 132.177 92.0876 128.806 92.0876C125.435 92.0876 122.703 89.3581 122.703 85.9906C122.703 82.6231 125.435 79.8936 128.806 79.8936C132.177 79.8936 134.91 82.6231 134.91 85.9906Z" fill="#FAF9F9"/>
<path d="M134.856 86.0233C134.877 82.6863 132.185 79.9645 128.845 79.9441C125.505 79.9238 122.78 82.6124 122.76 85.9495C122.739 89.2865 125.431 92.0082 128.771 92.0286C132.111 92.049 134.836 89.3603 134.856 86.0233Z" fill="#FAF9F9"/>
<path d="M134.795 85.9904C134.795 89.2941 132.113 91.9735 128.806 91.9735C125.499 91.9735 122.816 89.2941 122.816 85.9904C122.816 82.6867 125.499 80.0073 128.806 80.0073C132.113 80.0073 134.795 82.6867 134.795 85.9904Z" fill="#F9F8F8"/>
<path d="M134.746 86.0319C134.767 82.7603 132.129 80.091 128.854 80.0699C125.579 80.0488 122.907 82.6838 122.886 85.9554C122.865 89.227 125.503 91.8963 128.777 91.9174C132.052 91.9385 134.724 89.3035 134.746 86.0319Z" fill="#F9F7F8"/>
<path d="M134.678 85.9905C134.678 89.2304 132.051 91.8597 128.803 91.8597C125.555 91.8597 122.928 89.2304 122.928 85.9905C122.928 82.7506 125.56 80.1213 128.803 80.1213C132.046 80.1213 134.678 82.7506 134.678 85.9905Z" fill="#F8F7F7"/>
<path d="M134.624 85.9906C134.624 89.1986 132.019 91.8006 128.808 91.8006C125.597 91.8006 122.992 89.1986 122.992 85.9906C122.992 82.7826 125.597 80.1807 128.808 80.1807C132.019 80.1807 134.624 82.7826 134.624 85.9906Z" fill="#F8F6F7"/>
<path d="M134.564 85.9905C134.564 89.1666 131.987 91.7412 128.807 91.7412C125.628 91.7412 123.051 89.1666 123.051 85.9905C123.051 82.8143 125.628 80.2397 128.807 80.2397C131.987 80.2397 134.564 82.8143 134.564 85.9905Z" fill="#F7F5F6"/>
<path d="M134.507 85.9905C134.507 89.1347 131.953 91.6865 128.805 91.6865C125.658 91.6865 123.104 89.1347 123.104 85.9905C123.104 82.8463 125.653 80.2944 128.805 80.2944C131.957 80.2944 134.507 82.8463 134.507 85.9905Z" fill="#F7F5F5"/>
<path d="M134.449 85.9905C134.449 89.1029 131.922 91.6273 128.807 91.6273C125.691 91.6273 123.164 89.1029 123.164 85.9905C123.164 82.8782 125.691 80.3538 128.807 80.3538C131.922 80.3538 134.449 82.8782 134.449 85.9905Z" fill="#F6F4F5"/>
<path d="M134.389 85.9903C134.389 89.0707 131.889 91.5724 128.806 91.5724C125.722 91.5724 123.223 89.0753 123.223 85.9903C123.223 82.9053 125.722 80.4082 128.806 80.4082C131.889 80.4082 134.389 82.9053 134.389 85.9903Z" fill="#F6F3F4"/>
<path d="M134.336 85.9904C134.336 89.0389 131.864 91.5133 128.808 91.5133C125.752 91.5133 123.279 89.0389 123.279 85.9904C123.279 82.9419 125.756 80.4675 128.808 80.4675C131.859 80.4675 134.336 82.9419 134.336 85.9904Z" fill="#F5F3F4"/>
<path d="M134.276 85.9905C134.276 89.0071 131.827 91.4541 128.807 91.4541C125.787 91.4541 123.338 89.0071 123.338 85.9905C123.338 82.9739 125.787 80.5269 128.807 80.5269C131.827 80.5269 134.276 82.9739 134.276 85.9905Z" fill="#F4F2F3"/>
<path d="M134.217 85.9905C134.217 88.9752 131.795 91.3994 128.807 91.3994C125.819 91.3994 123.393 88.9798 123.393 85.9905C123.393 83.0012 125.815 80.5815 128.807 80.5815C131.799 80.5815 134.217 83.0012 134.217 85.9905Z" fill="#F4F1F2"/>
<path d="M134.162 85.9903C134.162 88.9432 131.767 91.3401 128.806 91.3401C125.846 91.3401 123.451 88.9432 123.451 85.9903C123.451 83.0375 125.846 80.6406 128.806 80.6406C131.767 80.6406 134.162 83.0375 134.162 85.9903Z" fill="#F3F0F1"/>
<path d="M134.103 85.9904C134.103 88.9113 131.731 91.2809 128.808 91.2809C125.884 91.2809 123.512 88.9113 123.512 85.9904C123.512 83.0695 125.884 80.7 128.808 80.7C131.731 80.7 134.103 83.0695 134.103 85.9904Z" fill="#F2F0F1"/>
<path d="M134.044 85.9907C134.044 88.8797 131.7 91.2265 128.808 91.2265C125.916 91.2265 123.566 88.8843 123.566 85.9907C123.566 83.0971 125.911 80.7549 128.808 80.7549C131.704 80.7549 134.044 83.0971 134.044 85.9907Z" fill="#F2EFF0"/>
<path d="M133.991 85.9905C133.991 88.8476 131.669 91.1671 128.809 91.1671C125.949 91.1671 123.627 88.8476 123.627 85.9905C123.627 83.1334 125.944 80.814 128.809 80.814C131.673 80.814 133.991 83.1334 133.991 85.9905Z" fill="#F1EEEF"/>
<path d="M133.929 85.9906C133.929 88.8158 131.634 91.1079 128.806 91.1079C125.978 91.1079 123.684 88.8158 123.684 85.9906C123.684 83.1654 125.978 80.8733 128.806 80.8733C131.634 80.8733 133.929 83.1654 133.929 85.9906Z" fill="#F1EDEF"/>
<path d="M133.87 85.9906C133.87 88.7839 131.603 91.0532 128.802 91.0532C126.001 91.0532 123.734 88.7885 123.734 85.9906C123.734 83.1927 126.001 80.928 128.802 80.928C131.603 80.928 133.87 83.1927 133.87 85.9906Z" fill="#F0ECEE"/>
<path d="M133.816 85.9905C133.816 88.7519 131.576 90.9938 128.807 90.9938C126.039 90.9938 123.799 88.7519 123.799 85.9905C123.799 83.229 126.043 80.9871 128.807 80.9871C131.572 80.9871 133.816 83.229 133.816 85.9905Z" fill="#EFECED"/>
<path d="M133.755 86.0429C133.788 83.3126 131.598 81.0729 128.865 81.0405C126.132 81.0081 123.89 83.1952 123.858 85.9256C123.825 88.656 126.015 90.8957 128.748 90.9281C131.481 90.9605 133.723 88.7733 133.755 86.0429Z" fill="#EFEBEC"/>
<path d="M133.697 85.9905C133.697 88.6882 131.508 90.88 128.803 90.88C126.098 90.88 123.908 88.6927 123.908 85.9905C123.908 83.2883 126.098 81.1011 128.803 81.1011C131.508 81.1011 133.697 83.2883 133.697 85.9905Z" fill="#EEEAEB"/>
<path d="M133.639 86.0464C133.672 83.379 131.535 81.1894 128.865 81.1559C126.194 81.1224 124.003 83.2576 123.969 85.925C123.935 88.5925 126.073 90.7821 128.743 90.8156C131.413 90.8491 133.605 88.7139 133.639 86.0464Z" fill="#EDE9EB"/>
<path d="M133.583 85.9905C133.583 88.6243 131.444 90.7615 128.807 90.7615C126.171 90.7615 124.031 88.6243 124.031 85.9905C124.031 83.3566 126.171 81.2195 128.807 81.2195C131.444 81.2195 133.583 83.3566 133.583 85.9905Z" fill="#ECE8EA"/>
<path d="M133.524 85.9905C133.524 88.5924 131.412 90.7068 128.803 90.7068C126.194 90.7068 124.082 88.597 124.082 85.9905C124.082 83.384 126.194 81.2742 128.803 81.2742C131.412 81.2742 133.524 83.384 133.524 85.9905Z" fill="#ECE7E9"/>
<path d="M133.47 85.9906C133.47 88.5606 131.381 90.6476 128.808 90.6476C126.236 90.6476 124.146 88.5606 124.146 85.9906C124.146 83.4205 126.236 81.3335 128.808 81.3335C131.381 81.3335 133.47 83.4205 133.47 85.9906Z" fill="#EBE6E8"/>
<path d="M133.41 85.9904C133.41 88.5331 131.348 90.5882 128.808 90.5882C126.267 90.5882 124.205 88.5286 124.205 85.9904C124.205 83.4523 126.267 81.3926 128.808 81.3926C131.348 81.3926 133.41 83.4523 133.41 85.9904Z" fill="#EAE5E7"/>
<path d="M133.349 85.9904C133.349 88.4967 131.315 90.5336 128.802 90.5336C126.288 90.5336 124.254 88.5012 124.254 85.9904C124.254 83.4796 126.288 81.4473 128.802 81.4473C131.315 81.4473 133.349 83.4796 133.349 85.9904Z" fill="#E9E5E6"/>
<path d="M133.295 85.9905C133.295 88.4694 131.284 90.4744 128.807 90.4744C126.33 90.4744 124.318 88.4649 124.318 85.9905C124.318 83.5161 126.33 81.5066 128.807 81.5066C131.284 81.5066 133.295 83.5161 133.295 85.9905Z" fill="#E9E4E6"/>
<path d="M133.235 86.0369C133.264 83.5934 131.304 81.589 128.858 81.56C126.412 81.531 124.406 83.4883 124.377 85.9318C124.348 88.3753 126.307 90.3797 128.753 90.4087C131.199 90.4377 133.206 88.4804 133.235 86.0369Z" fill="#E8E3E5"/>
<path d="M133.182 85.9904C133.182 88.4055 131.226 90.3603 128.808 90.3603C126.39 90.3603 124.434 88.4055 124.434 85.9904C124.434 83.5752 126.39 81.6204 128.808 81.6204C131.226 81.6204 133.182 83.5752 133.182 85.9904Z" fill="#E7E2E4"/>
<path d="M133.12 86.0355C133.149 83.6549 131.24 81.7022 128.857 81.6739C126.474 81.6456 124.519 83.5526 124.491 85.9332C124.462 88.3138 126.371 90.2666 128.754 90.2948C131.137 90.3231 133.092 88.4161 133.12 86.0355Z" fill="#E6E1E3"/>
<path d="M133.062 85.9907C133.062 88.342 131.156 90.2468 128.807 90.2468C126.457 90.2468 124.551 88.342 124.551 85.9907C124.551 83.6394 126.457 81.7346 128.807 81.7346C131.156 81.7346 133.062 83.6394 133.062 85.9907Z" fill="#E6E0E2"/>
<path d="M133 86.0362C133.03 83.7185 131.173 81.8157 128.853 81.7862C126.533 81.7567 124.628 83.6116 124.598 85.9292C124.569 88.2469 126.426 90.1497 128.746 90.1792C131.066 90.2087 132.97 88.3538 133 86.0362Z" fill="#E5DFE1"/>
<path d="M132.95 85.9906C132.95 88.2782 131.093 90.1282 128.808 90.1282C126.523 90.1282 124.666 88.2736 124.666 85.9906C124.666 83.7077 126.523 81.853 128.808 81.853C131.093 81.853 132.95 83.7077 132.95 85.9906Z" fill="#E4DEE0"/>
<path d="M132.89 85.9906C132.89 88.2463 131.061 90.0736 128.808 90.0736C126.554 90.0736 124.721 88.2463 124.721 85.9906C124.721 83.735 126.55 81.9077 128.808 81.9077C131.066 81.9077 132.89 83.735 132.89 85.9906Z" fill="#E3DDDF"/>
<path d="M132.833 85.9905C132.833 88.2142 131.031 90.0141 128.805 90.0141C126.579 90.0141 124.777 88.2142 124.777 85.9905C124.777 83.7667 126.579 81.9668 128.805 81.9668C131.031 81.9668 132.833 83.7667 132.833 85.9905Z" fill="#E2DCDE"/>
<path d="M132.775 85.9906C132.775 88.1824 130.996 89.955 128.806 89.955C126.617 89.955 124.838 88.1778 124.838 85.9906C124.838 83.8033 126.617 82.0261 128.806 82.0261C130.996 82.0261 132.775 83.8033 132.775 85.9906Z" fill="#E1DBDD"/>
<path d="M132.711 86.0325C132.738 83.8734 131.008 82.1007 128.847 82.0732C126.686 82.0457 124.911 83.7737 124.884 85.9329C124.856 88.092 126.586 89.8646 128.747 89.8921C130.909 89.9196 132.683 88.1916 132.711 86.0325Z" fill="#E1DADC"/>
<path d="M132.662 85.9904C132.662 88.1184 130.938 89.8409 128.808 89.8409C126.677 89.8409 124.953 88.1184 124.953 85.9904C124.953 83.8624 126.677 82.1399 128.808 82.1399C130.938 82.1399 132.662 83.8624 132.662 85.9904Z" fill="#E0D9DB"/>
<path d="M132.602 86.0292C132.626 83.9355 130.948 82.2181 128.852 82.1932C126.756 82.1684 125.037 83.8455 125.012 85.9392C124.987 88.0329 126.666 89.7504 128.762 89.7752C130.858 89.8001 132.577 88.1229 132.602 86.0292Z" fill="#DFD7DA"/>
<path d="M132.543 85.9905C132.543 88.0547 130.869 89.7271 128.803 89.7271C126.737 89.7271 125.062 88.0547 125.062 85.9905C125.062 83.9263 126.737 82.2539 128.803 82.2539C130.869 82.2539 132.543 83.9263 132.543 85.9905Z" fill="#DED6D9"/>
<path d="M132.487 85.9906C132.487 88.0229 130.841 89.6679 128.806 89.6679C126.772 89.6679 125.125 88.0229 125.125 85.9906C125.125 83.9582 126.772 82.3132 128.806 82.3132C130.841 82.3132 132.487 83.9582 132.487 85.9906Z" fill="#DDD5D8"/>
<path d="M132.429 85.9904C132.429 87.9909 130.805 89.6086 128.807 89.6086C126.809 89.6086 125.186 87.9863 125.186 85.9904C125.186 83.9945 126.809 82.3723 128.807 82.3723C130.805 82.3723 132.429 83.9945 132.429 85.9904Z" fill="#DCD4D7"/>
<path d="M132.37 85.9904C132.37 87.959 130.774 89.5539 128.803 89.5539C126.833 89.5539 125.236 87.959 125.236 85.9904C125.236 84.0219 126.833 82.427 128.803 82.427C130.774 82.427 132.37 84.0219 132.37 85.9904Z" fill="#DBD3D6"/>
<path d="M132.314 86.026C132.337 84.0908 130.786 82.5034 128.849 82.4805C126.911 82.4575 125.322 84.0076 125.299 85.9428C125.276 87.878 126.828 89.4654 128.765 89.4884C130.702 89.5113 132.292 87.9612 132.314 86.026Z" fill="#DAD2D5"/>
<path d="M132.256 85.9904C132.256 87.8951 130.71 89.4353 128.808 89.4353C126.906 89.4353 125.359 87.8906 125.359 85.9904C125.359 84.0902 126.906 82.5454 128.808 82.5454C130.71 82.5454 132.256 84.0902 132.256 85.9904Z" fill="#D9D1D4"/>
<path d="M128.806 89.3807C130.68 89.3807 132.2 87.8628 132.2 85.9904C132.2 84.118 130.68 82.6001 128.806 82.6001C126.932 82.6001 125.412 84.118 125.412 85.9904C125.412 87.8628 126.932 89.3807 128.806 89.3807Z" fill="#D9D0D3"/>
<path d="M132.142 85.9905C132.142 87.8314 130.65 89.3215 128.807 89.3215C126.964 89.3215 125.473 87.8314 125.473 85.9905C125.473 84.1495 126.964 82.6594 128.807 82.6594C130.65 82.6594 132.142 84.1495 132.142 85.9905Z" fill="#D8CFD2"/>
<path d="M132.082 85.9903C132.082 87.7994 130.613 89.2621 128.806 89.2621C127 89.2621 125.531 87.7948 125.531 85.9903C125.531 84.1858 127 82.7185 128.806 82.7185C130.613 82.7185 132.082 84.1858 132.082 85.9903Z" fill="#D7CDD1"/>
<path d="M132.023 85.9906C132.023 87.7677 130.581 89.2077 128.802 89.2077C127.023 89.2077 125.582 87.7677 125.582 85.9906C125.582 84.2134 127.023 82.7734 128.802 82.7734C130.581 82.7734 132.023 84.2134 132.023 85.9906Z" fill="#D6CCD0"/>
<path d="M131.967 85.9906C131.967 87.7359 130.553 89.1485 128.806 89.1485C127.059 89.1485 125.645 87.7359 125.645 85.9906C125.645 84.2454 127.059 82.8328 128.806 82.8328C130.553 82.8328 131.967 84.2454 131.967 85.9906Z" fill="#D5CBCF"/>
<path d="M131.909 85.9902C131.909 87.7036 130.517 89.0889 128.807 89.0889C127.096 89.0889 125.705 87.6991 125.705 85.9902C125.705 84.2814 127.096 82.8916 128.807 82.8916C130.517 82.8916 131.909 84.2814 131.909 85.9902Z" fill="#D4CACE"/>
<path d="M131.854 85.9905C131.854 87.672 130.49 89.0345 128.807 89.0345C127.124 89.0345 125.76 87.672 125.76 85.9905C125.76 84.309 127.124 82.9465 128.807 82.9465C130.49 82.9465 131.854 84.309 131.854 85.9905Z" fill="#D3C9CD"/>
<path d="M131.794 85.9906C131.794 87.6402 130.457 88.9753 128.806 88.9753C127.155 88.9753 125.818 87.6402 125.818 85.9906C125.818 84.341 127.155 83.0059 128.806 83.0059C130.457 83.0059 131.794 84.341 131.794 85.9906Z" fill="#D2C8CB"/>
<path d="M131.736 85.9906C131.736 87.6083 130.422 88.9161 128.807 88.9161C127.193 88.9161 125.879 87.6037 125.879 85.9906C125.879 84.3775 127.193 83.0605 128.807 83.0605C130.422 83.0605 131.736 84.3729 131.736 85.9906Z" fill="#D1C6CA"/>
<path d="M131.679 85.9904C131.679 87.5762 130.393 88.8612 128.805 88.8612C127.218 88.8612 125.932 87.5762 125.932 85.9904C125.932 84.4047 127.218 83.1196 128.805 83.1196C130.393 83.1196 131.679 84.4047 131.679 85.9904Z" fill="#D0C5C9"/>
<path d="M131.621 85.9905C131.621 87.5444 130.362 88.8021 128.807 88.8021C127.251 88.8021 125.992 87.5444 125.992 85.9905C125.992 84.4366 127.251 83.179 128.807 83.179C130.362 83.179 131.621 84.4366 131.621 85.9905Z" fill="#CFC4C8"/>
<path d="M131.561 85.9905C131.561 87.5125 130.325 88.7474 128.806 88.7474C127.287 88.7474 126.051 87.5125 126.051 85.9905C126.051 84.4685 127.287 83.2336 128.806 83.2336C130.325 83.2336 131.561 84.4685 131.561 85.9905Z" fill="#CEC3C7"/>
<path d="M131.508 85.9904C131.508 87.4804 130.299 88.688 128.808 88.688C127.316 88.688 126.107 87.4804 126.107 85.9904C126.107 84.5003 127.316 83.2927 128.808 83.2927C130.299 83.2927 131.508 84.5003 131.508 85.9904Z" fill="#CDC1C6"/>
<path d="M131.448 85.9904C131.448 87.4486 130.267 88.6288 128.807 88.6288C127.347 88.6288 126.166 87.4486 126.166 85.9904C126.166 84.5323 127.347 83.3521 128.807 83.3521C130.267 83.3521 131.448 84.5323 131.448 85.9904Z" fill="#CCC0C5"/>
<path d="M131.388 85.9905C131.388 87.4167 130.229 88.5742 128.801 88.5742C127.373 88.5742 126.215 87.4167 126.215 85.9905C126.215 84.5642 127.373 83.4067 128.801 83.4067C130.229 83.4067 131.388 84.5642 131.388 85.9905Z" fill="#CBBFC3"/>
<path d="M131.333 85.9905C131.333 87.3849 130.202 88.515 128.806 88.515C127.411 88.515 126.279 87.3849 126.279 85.9905C126.279 84.5962 127.411 83.4661 128.806 83.4661C130.202 83.4661 131.333 84.5962 131.333 85.9905Z" fill="#CABEC2"/>
<path d="M131.275 85.9904C131.275 87.3529 130.171 88.4556 128.808 88.4556C127.444 88.4556 126.34 87.3529 126.34 85.9904C126.34 84.6279 127.444 83.5251 128.808 83.5251C130.171 83.5251 131.275 84.6279 131.275 85.9904Z" fill="#C9BCC1"/>
<path d="M131.217 85.9904C131.217 87.321 130.136 88.4009 128.804 88.4009C127.472 88.4009 126.391 87.321 126.391 85.9904C126.391 84.6598 127.472 83.5798 128.804 83.5798C130.136 83.5798 131.217 84.6598 131.217 85.9904Z" fill="#C8BBC0"/>
<path d="M131.161 85.9905C131.161 87.2892 130.107 88.3418 128.807 88.3418C127.507 88.3418 126.453 87.2892 126.453 85.9905C126.453 84.6918 127.507 83.6392 128.807 83.6392C130.107 83.6392 131.161 84.6918 131.161 85.9905Z" fill="#C7BABF"/>
<path d="M131.103 85.9903C131.103 87.2571 130.076 88.2824 128.808 88.2824C127.54 88.2824 126.514 87.2571 126.514 85.9903C126.514 84.7235 127.54 83.6982 128.808 83.6982C130.076 83.6982 131.103 84.7235 131.103 85.9903Z" fill="#C6B9BE"/>
<path d="M131.042 85.9906C131.042 87.2255 130.038 88.228 128.802 88.228C127.566 88.228 126.562 87.2255 126.562 85.9906C126.562 84.7557 127.566 83.7532 128.802 83.7532C130.038 83.7532 131.042 84.7557 131.042 85.9906Z" fill="#C5B7BC"/>
<path d="M130.988 85.9907C130.988 87.1937 130.012 88.1688 128.807 88.1688C127.603 88.1688 126.627 87.1937 126.627 85.9907C126.627 84.7877 127.603 83.8125 128.807 83.8125C130.012 83.8125 130.988 84.7877 130.988 85.9907Z" fill="#C4B6BB"/>
<path d="M130.928 85.9903C130.928 87.1614 129.979 88.1092 128.807 88.1092C127.634 88.1092 126.686 87.1614 126.686 85.9903C126.686 84.8192 127.634 83.8713 128.807 83.8713C129.979 83.8713 130.928 84.8192 130.928 85.9903Z" fill="#C2B5BA"/>
<path d="M130.867 85.9905C130.867 87.1297 129.941 88.0548 128.801 88.0548C127.66 88.0548 126.734 87.1297 126.734 85.9905C126.734 84.8513 127.66 83.9263 128.801 83.9263C129.941 83.9263 130.867 84.8513 130.867 85.9905Z" fill="#C1B3B9"/>
<path d="M130.813 85.9906C130.813 87.0979 129.914 87.9956 128.806 87.9956C127.697 87.9956 126.799 87.0979 126.799 85.9906C126.799 84.8833 127.697 83.9856 128.806 83.9856C129.914 83.9856 130.813 84.8833 130.813 85.9906Z" fill="#C0B2B7"/>
<path d="M130.755 85.9907C130.755 87.0661 129.884 87.9365 128.807 87.9365C127.731 87.9365 126.859 87.0661 126.859 85.9907C126.859 84.9153 127.731 84.0449 128.807 84.0449C129.884 84.0449 130.755 84.9153 130.755 85.9907Z" fill="#BFB1B6"/>
<path d="M130.7 85.9904C130.7 87.034 129.852 87.8815 128.807 87.8815C127.762 87.8815 126.914 87.034 126.914 85.9904C126.914 84.9469 127.762 84.0994 128.807 84.0994C129.852 84.0994 130.7 84.9469 130.7 85.9904Z" fill="#BEAFB5"/>
<path d="M130.64 85.9905C130.64 87.0022 129.819 87.8224 128.806 87.8224C127.794 87.8224 126.973 87.0022 126.973 85.9905C126.973 84.9789 127.794 84.1587 128.806 84.1587C129.819 84.1587 130.64 84.9789 130.64 85.9905Z" fill="#BDAEB4"/>
<path d="M130.582 85.9906C130.582 86.9703 129.788 87.7632 128.808 87.7632C127.827 87.7632 127.033 86.9703 127.033 85.9906C127.033 85.0109 127.827 84.218 128.808 84.218C129.788 84.218 130.582 85.0109 130.582 85.9906Z" fill="#BCACB2"/>
<path d="M130.525 85.9904C130.525 86.9382 129.754 87.7083 128.806 87.7083C127.857 87.7083 127.086 86.9382 127.086 85.9904C127.086 85.0426 127.857 84.2725 128.806 84.2725C129.754 84.2725 130.525 85.0426 130.525 85.9904Z" fill="#BBABB1"/>
<path d="M130.467 85.9905C130.467 86.9064 129.724 87.6492 128.807 87.6492C127.89 87.6492 127.146 86.9064 127.146 85.9905C127.146 85.0745 127.89 84.3318 128.807 84.3318C129.724 84.3318 130.467 85.0745 130.467 85.9905Z" fill="#BAAAB0"/>
<path d="M130.407 85.9905C130.407 86.8745 129.691 87.5899 128.806 87.5899C127.921 87.5899 127.205 86.8745 127.205 85.9905C127.205 85.1065 127.921 84.3865 128.806 84.3865C129.691 84.3865 130.407 85.1019 130.407 85.9905Z" fill="#B8A8AE"/>
<path d="M130.354 85.9903C130.354 86.8424 129.661 87.5351 128.808 87.5351C127.955 87.5351 127.262 86.8424 127.262 85.9903C127.262 85.1382 127.955 84.4456 128.808 84.4456C129.661 84.4456 130.354 85.1382 130.354 85.9903Z" fill="#B7A7AD"/>
<path d="M130.294 85.9904C130.294 86.8106 129.628 87.4759 128.807 87.4759C127.986 87.4759 127.32 86.8106 127.32 85.9904C127.32 85.1702 127.986 84.5049 128.807 84.5049C129.628 84.5049 130.294 85.1702 130.294 85.9904Z" fill="#B6A6AC"/>
<path d="M130.233 85.9904C130.233 86.7787 129.594 87.4213 128.805 87.4213C128.016 87.4213 127.373 86.7833 127.373 85.9904C127.373 85.1975 128.012 84.5596 128.805 84.5596C129.599 84.5596 130.233 85.1975 130.233 85.9904Z" fill="#B5A4AB"/>
<path d="M130.18 85.9905C130.18 86.7469 129.564 87.3621 128.807 87.3621C128.049 87.3621 127.434 86.7469 127.434 85.9905C127.434 85.2341 128.049 84.6189 128.807 84.6189C129.564 84.6189 130.18 85.2341 130.18 85.9905Z" fill="#B4A3A9"/>
<path d="M130.12 85.9903C130.12 86.7149 129.531 87.3027 128.806 87.3027C128.081 87.3027 127.492 86.7149 127.492 85.9903C127.492 85.2658 128.081 84.678 128.806 84.678C129.531 84.678 130.12 85.2658 130.12 85.9903Z" fill="#B3A1A8"/>
<path d="M130.063 85.9906C130.063 86.6832 129.502 87.2483 128.804 87.2483C128.106 87.2483 127.545 86.6878 127.545 85.9906C127.545 85.2934 128.106 84.7329 128.804 84.7329C129.502 84.7329 130.063 85.2934 130.063 85.9906Z" fill="#B2A0A7"/>
<path d="M130.007 85.9907C130.007 86.6514 129.468 87.1891 128.807 87.1891C128.146 87.1891 127.607 86.6514 127.607 85.9907C127.607 85.3299 128.146 84.7922 128.807 84.7922C129.468 84.7922 130.007 85.3299 130.007 85.9907Z" fill="#B09EA5"/>
<path d="M129.947 85.9903C129.947 86.6191 129.436 87.1295 128.806 87.1295C128.177 87.1295 127.666 86.6191 127.666 85.9903C127.666 85.3614 128.177 84.8511 128.806 84.8511C129.436 84.8511 129.947 85.3614 129.947 85.9903Z" fill="#AF9DA4"/>
<path d="M129.888 85.9905C129.888 86.5875 129.405 87.0751 128.802 87.0751C128.2 87.0751 127.717 86.592 127.717 85.9905C127.717 85.389 128.2 84.906 128.802 84.906C129.405 84.906 129.888 85.389 129.888 85.9905Z" fill="#AE9BA3"/>
<path d="M129.834 85.9906C129.834 86.5557 129.373 87.0159 128.808 87.0159C128.242 87.0159 127.781 86.5557 127.781 85.9906C127.781 85.4256 128.242 84.9653 128.808 84.9653C129.373 84.9653 129.834 85.4256 129.834 85.9906Z" fill="#AD9AA1"/>
<path d="M129.774 85.9905C129.774 86.5236 129.341 86.9565 128.807 86.9565C128.273 86.9565 127.84 86.5236 127.84 85.9905C127.84 85.4573 128.273 85.0244 128.807 85.0244C129.341 85.0244 129.774 85.4573 129.774 85.9905Z" fill="#AC99A0"/>
<path d="M129.713 85.9905C129.713 86.4917 129.307 86.9018 128.801 86.9018C128.295 86.9018 127.889 86.4963 127.889 85.9905C127.889 85.4847 128.295 85.0791 128.801 85.0791C129.307 85.0791 129.713 85.4847 129.713 85.9905Z" fill="#AA979E"/>
<path d="M129.659 85.9906C129.659 86.4599 129.276 86.8427 128.806 86.8427C128.336 86.8427 127.953 86.4599 127.953 85.9906C127.953 85.5212 128.336 85.1384 128.806 85.1384C129.276 85.1384 129.659 85.5212 129.659 85.9906Z" fill="#A9969D"/>
<path d="M129.599 85.9906C129.599 86.4281 129.243 86.7835 128.805 86.7835C128.368 86.7835 128.012 86.4281 128.012 85.9906C128.012 85.5532 128.368 85.1978 128.805 85.1978C129.243 85.1978 129.599 85.5532 129.599 85.9906Z" fill="#A8949C"/>
<path d="M129.546 85.9904C129.546 86.396 129.218 86.7286 128.807 86.7286C128.397 86.7286 128.068 86.4005 128.068 85.9904C128.068 85.5803 128.397 85.2522 128.807 85.2522C129.218 85.2522 129.546 85.5803 129.546 85.9904Z" fill="#A7939A"/>
<path d="M129.486 85.9905C129.486 86.3642 129.181 86.6695 128.807 86.6695C128.433 86.6695 128.127 86.3642 128.127 85.9905C128.127 85.6168 128.433 85.3115 128.807 85.3115C129.181 85.3115 129.486 85.6168 129.486 85.9905Z" fill="#A59199"/>
<path d="M129.428 85.9906C129.428 86.3323 129.15 86.6103 128.808 86.6103C128.466 86.6103 128.188 86.3323 128.188 85.9906C128.188 85.6488 128.466 85.3708 128.808 85.3708C129.15 85.3708 129.428 85.6488 129.428 85.9906Z" fill="#A49097"/>
<path d="M129.371 85.9903C129.371 86.3002 129.121 86.5554 128.806 86.5554C128.491 86.5554 128.24 86.3048 128.24 85.9903C128.24 85.6759 128.491 85.4253 128.806 85.4253C129.121 85.4253 129.371 85.6759 129.371 85.9903Z" fill="#A38E96"/>
</g>
</g>
<path d="M120.922 84.0903L131.007 78.6631C131.007 78.6631 134.889 79.8251 135.792 84.0903C136.7 88.3555 135.792 92.3609 135.792 92.3609L132.043 88.7428L128.28 95.7193C128.28 95.7193 127.057 87.7266 125.346 86.1682C123.636 84.6097 120.922 84.0903 120.922 84.0903Z" fill="url(#paint23_linear_1_4318)"/>
<path style="mix-blend-mode:multiply" opacity="0.9" d="M166.744 31.5178C170.503 46.0769 143.787 65.5436 107.067 74.9899C70.356 84.4408 37.5454 80.2986 33.7913 65.7532C30.0372 51.1987 56.7537 31.732 93.4644 22.2811C130.184 12.8257 162.986 16.9679 166.74 31.5224L166.744 31.5178Z" fill="url(#paint24_radial_1_4318)"/>
<path style="mix-blend-mode:multiply" opacity="0.9" d="M153.05 17.9978C158.844 27.6856 137.747 50.9254 105.926 69.9C74.1142 88.8792 43.6207 96.407 37.8368 86.7283C32.0483 77.0451 53.1451 53.8007 84.9568 34.8261C116.778 15.8424 147.257 8.31451 153.046 17.9978H153.05Z" fill="url(#paint25_radial_1_4318)"/>
<path style="mix-blend-mode:multiply" opacity="0.9" d="M106.962 38.7588C109.745 58.8817 92.1057 77.9429 67.565 81.3195C43.0288 84.7007 20.8783 71.1213 18.1004 51.0166C15.3224 30.8982 32.9617 11.837 57.4978 8.45587C82.0385 5.07015 104.184 18.6495 106.962 38.7633V38.7588Z" fill="url(#paint26_radial_1_4318)"/>
<path d="M17.0455 48.2095L113.192 23.5525L170.699 42.3995L60.9952 78.2481L16.7809 50.4013C15.9051 49.8499 16.0739 48.4555 17.0455 48.2049V48.2095Z" fill="#22DD3B"/>
<path d="M15.8866 47.6171C15.9824 48.1548 15.9824 48.5421 17.6154 49.5218L58.2672 75.1676C58.4405 75.236 61.0041 76.5347 61.1957 76.4754C65.6933 72.1829 61.8069 59.998 57.1314 56.1292L36.6002 43.197L34.2784 41.7388L16.7031 46.2455C16.0781 46.405 15.7862 47.0384 15.8866 47.6171Z" fill="url(#paint27_linear_1_4318)"/>
<path d="M17.2466 47.6081L61.7027 75.7556C61.835 75.5141 61.9536 75.2498 62.054 74.9627C63.6779 70.3557 61.3606 60.1074 57.4697 56.4255C57.4332 56.3891 57.3967 56.3572 57.3557 56.3207C57.3192 56.2888 57.2827 56.2524 57.2416 56.2205C57.2051 56.1886 57.1641 56.1567 57.1276 56.1248L34.7764 41.2786L16.6445 29.3625C18.5968 35.7512 17.6344 41.8801 17.2466 47.6081Z" fill="url(#paint28_linear_1_4318)"/>
<path d="M16.2034 49.4126C16.2627 49.8592 16.4543 50.2283 16.7827 50.406L60.2034 77.7515L60.9971 78.2527C61.4441 78.1251 61.8455 77.9064 62.183 77.5738C62.4066 77.3641 62.6118 77.109 62.7852 76.8219C65.6087 72.2696 62.8855 58.8452 56.8689 54.6575L15.916 27.59L15.0539 27.0477C14.9308 26.9748 14.8304 26.8836 14.7437 26.7834C14.6206 26.6421 14.5293 26.4735 14.4746 26.3049L14.7392 27.795C14.835 28.0775 15.022 28.3373 15.3139 28.5195L57.1335 56.1248C61.7588 59.9525 64.3452 73.1035 61.1978 76.471C60.2855 76.8538 17.5718 49.1847 17.5992 49.1665L16.5455 48.5058L16.4406 48.4374C16.1259 48.2369 15.948 47.9407 15.8932 47.6172L16.208 49.4126H16.2034Z" fill="url(#paint29_linear_1_4318)"/>
<path style="mix-blend-mode:screen" opacity="0.3" d="M16.2034 49.4126C16.2627 49.8592 16.4543 50.2283 16.7827 50.406L60.2034 77.7515L60.9971 78.2527C61.4441 78.1251 61.8455 77.9064 62.183 77.5738C62.4066 77.3641 62.6118 77.109 62.7852 76.8219C65.6087 72.2696 62.8855 58.8452 56.8689 54.6575L15.916 27.59L15.0539 27.0477C14.9308 26.9748 14.8304 26.8836 14.7437 26.7834C14.6206 26.6421 14.5293 26.4735 14.4746 26.3049L14.7392 27.795C14.835 28.0775 15.022 28.3373 15.3139 28.5195L57.1335 56.1248C61.7588 59.9525 64.3452 73.1035 61.1978 76.471C60.2855 76.8538 17.5718 49.1847 17.5992 49.1665L16.5455 48.5058L16.4406 48.4374C16.1259 48.2369 15.948 47.9407 15.8932 47.6172L16.208 49.4126H16.2034Z" fill="url(#paint30_linear_1_4318)"/>
<path style="mix-blend-mode:screen" opacity="0.3" d="M15.8887 47.6173L16.2034 49.4127C16.2627 49.8592 16.4543 50.2283 16.7827 50.4061L60.2034 77.7516L60.9971 78.2482C61.4441 78.1207 61.8455 77.9019 62.183 77.5693C62.4066 77.3597 62.6118 77.1045 62.7852 76.8174C62.9859 76.4939 63.1546 76.1293 63.3006 75.7238C63.8024 74.3248 63.9848 72.4748 63.8753 70.4287C63.8024 69.1255 63.6153 67.7402 63.3188 66.3504C62.3108 61.6523 60.0528 56.8631 56.8735 54.6485L16.1304 27.7222L15.916 27.59L15.0539 27.0478C14.9308 26.9749 14.8304 26.8837 14.7437 26.7835C14.6206 26.6422 14.5293 26.4736 14.4746 26.3096L14.7392 27.7997C14.835 28.0822 15.022 28.3419 15.3139 28.5242L16.6687 29.4173L57.1381 56.134C61.2343 59.5243 63.7294 70.2328 62.0599 74.9719C61.8455 75.5825 61.5581 76.0929 61.2023 76.4802C60.29 76.863 17.5764 49.1939 17.6038 49.1757L16.5501 48.515L16.4452 48.4466C16.1304 48.2461 15.9525 47.9499 15.8932 47.6264L15.8887 47.6173Z" fill="url(#paint31_linear_1_4318)"/>
<path style="mix-blend-mode:screen" opacity="0.3" d="M15.8874 47.6173L16.2021 49.4081C16.2614 49.8547 16.453 50.2283 16.7814 50.4061L60.1975 77.7516L60.9958 78.2528C62.1817 77.9202 62.8888 76.8949 63.3039 75.7283C63.8056 74.3294 63.9881 72.4656 63.874 70.4242C63.8011 69.1209 63.614 67.7357 63.313 66.3413C63.2309 65.9585 63.1396 65.5712 63.0393 65.1884C61.9309 60.8776 59.7778 56.6717 56.8585 54.6393L16.1154 27.7131L15.9011 27.5809L15.0389 27.0387C14.9158 26.9658 14.8154 26.8746 14.7288 26.7744C14.6056 26.6331 14.528 26.4782 14.4688 26.3096L14.7242 27.7905C14.82 28.0731 15.007 28.3328 15.2989 28.5151L16.6628 29.4173L57.1231 56.1203C57.1596 56.1522 57.1961 56.1841 57.2371 56.216C57.2736 56.2479 57.3147 56.2844 57.3511 56.3163C57.3876 56.3482 57.4241 56.3846 57.4652 56.4211C61.3607 60.103 63.6825 70.3604 62.0586 74.9673C61.9582 75.2544 61.8396 75.5187 61.7073 75.7602C61.5568 76.0336 61.388 76.2706 61.1965 76.4756C60.2842 76.8584 17.5614 49.1803 17.5888 49.1575L16.5351 48.4967L16.4302 48.4284C16.1154 48.2279 15.9467 47.9408 15.8919 47.6173H15.8874Z" fill="url(#paint32_linear_1_4318)"/>
<path d="M112.768 1.16945L166.576 18.8044C172.209 21.3699 174.102 40.2898 170.699 42.3996L60.9957 78.2481C66.4011 76.7991 63.8512 59.515 56.8722 54.6529L15.0298 27.0385C14.0171 26.4006 14.2315 24.7966 15.3582 24.5049L105.351 0.909711C107.783 0.285426 110.346 0.376563 112.768 1.16945Z" fill="url(#paint33_linear_1_4318)"/>
<path style="mix-blend-mode:multiply" opacity="0.4" d="M63.7147 68.6695L172.383 35.031C172.469 38.6446 171.936 41.6293 170.699 42.3994L60.9961 78.2479C63.5323 77.569 64.3168 73.404 63.7147 68.6695Z" fill="url(#paint34_linear_1_4318)"/>
<path style="mix-blend-mode:screen" opacity="0.4" d="M163.876 17.9157L166.576 18.7997C168.278 19.5744 169.632 21.8391 170.608 24.678L60.1889 58.321C59.2401 56.8036 58.1317 55.5232 56.8727 54.6483L52.2656 51.7456L163.871 17.9111L163.876 17.9157Z" fill="url(#paint35_linear_1_4318)"/>
<defs>
<linearGradient id="paint0_linear_1_4318" x1="127.316" y1="107.152" x2="175.261" y2="107.152" gradientUnits="userSpaceOnUse">
<stop stop-color="#4F7BDD"/>
<stop offset="1" stop-color="#4267B8"/>
</linearGradient>
<linearGradient id="paint1_linear_1_4318" x1="41.6788" y1="128.847" x2="125.424" y2="61.5322" gradientUnits="userSpaceOnUse">
<stop stop-color="#4F7BDD"/>
<stop offset="1" stop-color="#4267B8"/>
</linearGradient>
<linearGradient id="paint2_linear_1_4318" x1="65.8698" y1="120.813" x2="66.8986" y2="112.72" gradientUnits="userSpaceOnUse">
<stop offset="0.07"/>
<stop offset="1" stop-color="white"/>
</linearGradient>
<linearGradient id="paint3_linear_1_4318" x1="69.2219" y1="91.645" x2="68.1885" y2="100.946" gradientUnits="userSpaceOnUse">
<stop offset="0.07"/>
<stop offset="0.52" stop-color="white"/>
<stop offset="1"/>
</linearGradient>
<linearGradient id="paint4_linear_1_4318" x1="104.02" y1="69.0433" x2="162.427" y2="103.449" gradientUnits="userSpaceOnUse">
<stop offset="0.07" stop-color="#829EDD"/>
<stop offset="1" stop-color="#4F7BDD"/>
</linearGradient>
<linearGradient id="paint5_linear_1_4318" x1="104.02" y1="69.0433" x2="162.427" y2="103.449" gradientUnits="userSpaceOnUse">
<stop offset="0.07" stop-color="#829EDD"/>
<stop offset="1" stop-color="#4F7BDD"/>
</linearGradient>
<linearGradient id="paint6_linear_1_4318" x1="104.011" y1="69.0433" x2="162.427" y2="103.454" gradientUnits="userSpaceOnUse">
<stop offset="0.07" stop-color="#829EDD"/>
<stop offset="1" stop-color="#4F7BDD"/>
</linearGradient>
<linearGradient id="paint7_linear_1_4318" x1="104.011" y1="69.0433" x2="162.427" y2="103.454" gradientUnits="userSpaceOnUse">
<stop offset="0.07" stop-color="#829EDD"/>
<stop offset="1" stop-color="#4F7BDD"/>
</linearGradient>
<linearGradient id="paint8_linear_1_4318" x1="156.241" y1="103.652" x2="147.17" y2="92.9164" gradientUnits="userSpaceOnUse">
<stop offset="0.25" stop-color="#F7E7D0"/>
<stop offset="0.37" stop-color="#F5E2C8"/>
<stop offset="0.55" stop-color="#F0D6B5"/>
<stop offset="0.77" stop-color="#E8C295"/>
<stop offset="1" stop-color="#DDA86A"/>
</linearGradient>
<radialGradient id="paint9_radial_1_4318" cx="0" cy="0" r="1" gradientUnits="userSpaceOnUse" gradientTransform="translate(63.0179 100.348) rotate(14.8455) scale(61.3825 23.2053)">
<stop offset="0.07" stop-color="#A38E96"/>
<stop offset="0.33" stop-color="#B8A8AE"/>
<stop offset="0.87" stop-color="#F0EDEE"/>
<stop offset="1" stop-color="white"/>
</radialGradient>
<radialGradient id="paint10_radial_1_4318" cx="0" cy="0" r="1" gradientUnits="userSpaceOnUse" gradientTransform="translate(55.635 91.7139) rotate(14.8455) scale(61.3825 23.2053)">
<stop offset="0.07" stop-color="#A38E96"/>
<stop offset="0.33" stop-color="#B8A8AE"/>
<stop offset="0.87" stop-color="#F0EDEE"/>
<stop offset="1" stop-color="white"/>
</radialGradient>
<radialGradient id="paint11_radial_1_4318" cx="0" cy="0" r="1" gradientUnits="userSpaceOnUse" gradientTransform="translate(90.399 153.973) rotate(9.51048) scale(71.3471 29.8375)">
<stop offset="0.07" stop-color="#A38E96"/>
<stop offset="0.33" stop-color="#B8A8AE"/>
<stop offset="0.87" stop-color="#F0EDEE"/>
<stop offset="1" stop-color="white"/>
</radialGradient>
<radialGradient id="paint12_radial_1_4318" cx="0" cy="0" r="1" gradientUnits="userSpaceOnUse" gradientTransform="translate(112.817 17.5295) rotate(9.51048) scale(71.3471 34.8104)">
<stop offset="0.07" stop-color="#A38E96"/>
<stop offset="0.33" stop-color="#B8A8AE"/>
<stop offset="0.87" stop-color="#F0EDEE"/>
<stop offset="1" stop-color="white"/>
</radialGradient>
<radialGradient id="paint13_radial_1_4318" cx="0" cy="0" r="1" gradientUnits="userSpaceOnUse" gradientTransform="translate(163.291 59.9116) rotate(9.51048) scale(11.3365 7.0111)">
<stop offset="0.07" stop-color="#A38E96"/>
<stop offset="0.33" stop-color="#B8A8AE"/>
<stop offset="0.87" stop-color="#F0EDEE"/>
<stop offset="1" stop-color="white"/>
</radialGradient>
<radialGradient id="paint14_radial_1_4318" cx="0" cy="0" r="1" gradientUnits="userSpaceOnUse" gradientTransform="translate(161.501 61.9755) rotate(9.51048) scale(11.3365 7.0111)">
<stop offset="0.07" stop-color="#A38E96"/>
<stop offset="0.33" stop-color="#B8A8AE"/>
<stop offset="0.87" stop-color="#F0EDEE"/>
<stop offset="1" stop-color="white"/>
</radialGradient>
<linearGradient id="paint15_linear_1_4318" x1="104.782" y1="85.831" x2="169.774" y2="85.831" gradientUnits="userSpaceOnUse">
<stop stop-color="#F8913E"/>
<stop offset="1" stop-color="#E67A22"/>
</linearGradient>
<linearGradient id="paint16_linear_1_4318" x1="139.988" y1="87.7311" x2="130.166" y2="66.68" gradientUnits="userSpaceOnUse">
<stop offset="0.25" stop-color="#F7E7D0"/>
<stop offset="0.37" stop-color="#F3E1C8"/>
<stop offset="0.53" stop-color="#EBD3B5"/>
<stop offset="0.73" stop-color="#DCBC95"/>
<stop offset="0.95" stop-color="#C99D69"/>
<stop offset="1" stop-color="#C4955E"/>
</linearGradient>
<linearGradient id="paint17_linear_1_4318" x1="126.759" y1="81.4789" x2="126.272" y2="80.4396" gradientUnits="userSpaceOnUse">
<stop offset="0.25" stop-color="#F7E7D0"/>
<stop offset="0.37" stop-color="#F5E2C8"/>
<stop offset="0.55" stop-color="#F0D6B5"/>
<stop offset="0.77" stop-color="#E8C295"/>
<stop offset="1" stop-color="#DDA86A"/>
</linearGradient>
<linearGradient id="paint18_linear_1_4318" x1="92.8091" y1="73.3222" x2="158.311" y2="77.4545" gradientUnits="userSpaceOnUse">
<stop stop-color="#F8913E"/>
<stop offset="0.51" stop-color="#F68F3B"/>
<stop offset="0.76" stop-color="#F18934"/>
<stop offset="0.95" stop-color="#E97E27"/>
<stop offset="1" stop-color="#E67A22"/>
</linearGradient>
<linearGradient id="paint19_linear_1_4318" x1="92.8091" y1="73.3222" x2="158.311" y2="77.4545" gradientUnits="userSpaceOnUse">
<stop stop-color="#F8913E"/>
<stop offset="0.51" stop-color="#F68F3B"/>
<stop offset="0.76" stop-color="#F18934"/>
<stop offset="0.95" stop-color="#E97E27"/>
<stop offset="1" stop-color="#E67A22"/>
</linearGradient>
<linearGradient id="paint20_linear_1_4318" x1="65.326" y1="72.5659" x2="119.486" y2="15.874" gradientUnits="userSpaceOnUse">
<stop stop-color="#F8913E"/>
<stop offset="1" stop-color="#E67A22"/>
</linearGradient>
<linearGradient id="paint21_linear_1_4318" x1="63.1906" y1="59.6839" x2="59.6166" y2="72.0576" gradientUnits="userSpaceOnUse">
<stop offset="0.07"/>
<stop offset="0.52" stop-color="white"/>
<stop offset="1"/>
</linearGradient>
<linearGradient id="paint22_linear_1_4318" x1="57.1977" y1="91.9416" x2="59.3967" y2="84.7907" gradientUnits="userSpaceOnUse">
<stop offset="0.07"/>
<stop offset="1" stop-color="white"/>
</linearGradient>
<linearGradient id="paint23_linear_1_4318" x1="132.225" y1="92.1194" x2="126.355" y2="79.538" gradientUnits="userSpaceOnUse">
<stop offset="0.01" stop-color="#E90D00"/>
<stop offset="0.55" stop-color="#FF5952"/>
<stop offset="0.59" stop-color="#FD524A"/>
<stop offset="0.65" stop-color="#F74037"/>
<stop offset="0.72" stop-color="#EF2317"/>
<stop offset="0.77" stop-color="#E90D00"/>
<stop offset="1" stop-color="#B30900"/>
</linearGradient>
<radialGradient id="paint24_radial_1_4318" cx="0" cy="0" r="1" gradientUnits="userSpaceOnUse" gradientTransform="translate(103.266 22.4366) rotate(-14.4359) scale(68.8482 27.349)">
<stop offset="0.07" stop-color="#A38E96"/>
<stop offset="0.33" stop-color="#B8A8AE"/>
<stop offset="0.87" stop-color="#F0EDEE"/>
<stop offset="1" stop-color="white"/>
</radialGradient>
<radialGradient id="paint25_radial_1_4318" cx="0" cy="0" r="1" gradientUnits="userSpaceOnUse" gradientTransform="translate(69.0284 -4.97895) rotate(-30.8143) scale(67.1792 20.7243)">
<stop offset="0.07" stop-color="#A38E96"/>
<stop offset="0.33" stop-color="#B8A8AE"/>
<stop offset="0.87" stop-color="#F0EDEE"/>
<stop offset="1" stop-color="white"/>
</radialGradient>
<radialGradient id="paint26_radial_1_4318" cx="0" cy="0" r="1" gradientUnits="userSpaceOnUse" gradientTransform="translate(68.8579 -25.5646) rotate(-7.85209) scale(45.215 37.1045)">
<stop offset="0.07" stop-color="#A38E96"/>
<stop offset="0.33" stop-color="#B8A8AE"/>
<stop offset="0.87" stop-color="#F0EDEE"/>
<stop offset="1" stop-color="white"/>
</radialGradient>
<linearGradient id="paint27_linear_1_4318" x1="15.8683" y1="59.1048" x2="63.1845" y2="59.1048" gradientUnits="userSpaceOnUse">
<stop stop-color="#22DD3B"/>
<stop offset="1" stop-color="#1CB831"/>
</linearGradient>
<linearGradient id="paint28_linear_1_4318" x1="35.6198" y1="60.4825" x2="45.0408" y2="47.8313" gradientUnits="userSpaceOnUse">
<stop offset="0.25" stop-color="#F7E7D0"/>
<stop offset="0.37" stop-color="#F5E2C8"/>
<stop offset="0.55" stop-color="#F0D6B5"/>
<stop offset="0.77" stop-color="#E8C295"/>
<stop offset="1" stop-color="#DDA86A"/>
</linearGradient>
<linearGradient id="paint29_linear_1_4318" x1="76.5199" y1="12.0912" x2="22.5402" y2="50.0959" gradientUnits="userSpaceOnUse">
<stop offset="0.07" stop-color="#49DD5E"/>
<stop offset="1" stop-color="#22DD3B"/>
</linearGradient>
<linearGradient id="paint30_linear_1_4318" x1="76.5199" y1="12.0912" x2="22.5402" y2="50.0959" gradientUnits="userSpaceOnUse">
<stop offset="0.07" stop-color="#49DD5E"/>
<stop offset="1" stop-color="#22DD3B"/>
</linearGradient>
<linearGradient id="paint31_linear_1_4318" x1="76.5199" y1="12.0912" x2="22.5402" y2="50.096" gradientUnits="userSpaceOnUse">
<stop offset="0.07" stop-color="#49DD5E"/>
<stop offset="1" stop-color="#22DD3B"/>
</linearGradient>
<linearGradient id="paint32_linear_1_4318" x1="76.5186" y1="12.0912" x2="22.5389" y2="50.096" gradientUnits="userSpaceOnUse">
<stop offset="0.07" stop-color="#49DD5E"/>
<stop offset="1" stop-color="#22DD3B"/>
</linearGradient>
<linearGradient id="paint33_linear_1_4318" x1="121.604" y1="53.2266" x2="55.3984" y2="13.2218" gradientUnits="userSpaceOnUse">
<stop stop-color="#22DD3B"/>
<stop offset="1" stop-color="#1CB831"/>
</linearGradient>
<linearGradient id="paint34_linear_1_4318" x1="118.142" y1="61.292" x2="116.084" y2="54.6925" gradientUnits="userSpaceOnUse">
<stop offset="0.07"/>
<stop offset="1" stop-color="white"/>
</linearGradient>
<linearGradient id="paint35_linear_1_4318" x1="109.902" y1="32.5025" x2="113.128" y2="42.5345" gradientUnits="userSpaceOnUse">
<stop offset="0.07"/>
<stop offset="0.52" stop-color="white"/>
<stop offset="1"/>
</linearGradient>
</defs>
</svg>
