<svg width="194" height="35" viewBox="0 0 194 35" fill="none" xmlns="http://www.w3.org/2000/svg">
<g id="Layer_1" clip-path="url(#clip0_1425_41573)">
<g id="Group">
<path id="Vector" d="M61.4145 35.0023C57.6368 35.0023 54.7231 34.0121 52.662 32.026C50.601 30.0399 49.5732 27.1952 49.5732 23.4749C49.5732 19.7545 50.4485 17.0472 52.199 15.044C53.9495 13.0407 56.4171 12.0391 59.6019 12.0391C62.7867 12.0391 65.1301 12.9663 66.8297 14.815C68.5294 16.6638 69.3821 19.3596 69.3821 22.8911C69.3821 23.8927 69.3425 24.8485 69.2578 25.7529H53.2323V21.8265H63.8991C63.8991 20.3383 63.5264 19.1936 62.7754 18.4037C62.03 17.6082 60.9797 17.2132 59.6358 17.2132C58.1789 17.2132 57.0495 17.7398 56.2477 18.7872C55.4459 19.8346 55.045 21.3285 55.045 23.2631C55.045 25.3522 55.6379 26.9377 56.8293 28.0252C58.0151 29.1126 59.7092 29.6507 61.9058 29.6507C62.8939 29.6507 63.8708 29.5992 64.8308 29.4961C65.7907 29.3931 66.7733 29.25 67.7727 29.0669L68.3092 34.4127C66.9088 34.6646 65.6326 34.8248 64.4807 34.8935C63.3287 34.9622 62.3067 34.9965 61.4145 34.9965V35.0023Z" fill="white" fill-opacity="0.8"/>
<path id="Vector_2" d="M73.1318 17.65V12.4529H93.6013V17.65H73.1318ZM78.3607 23.7914V5.77344H83.9228V23.7914H78.3607ZM89.0331 34.9983C85.2724 34.9983 82.5506 34.2313 80.8792 32.7031C79.2021 31.1749 78.3664 28.7252 78.3664 25.354V22.475H83.9284V24.8102C83.9284 26.493 84.3576 27.7178 85.2159 28.4848C86.0742 29.2518 87.4859 29.6353 89.451 29.6353C90.0834 29.6353 90.7554 29.5952 91.4782 29.5208C92.2009 29.4464 93.0197 29.3433 93.9401 29.2174L94.4371 34.5003C93.5279 34.6663 92.647 34.7922 91.7887 34.8781C90.9304 34.964 90.0156 35.004 89.0388 35.004L89.0331 34.9983Z" fill="white" fill-opacity="0.8"/>
<path id="Vector_3" d="M105.736 35.0014C103.415 35.0014 101.608 34.4233 100.321 33.2672C99.0275 32.111 98.3838 30.4683 98.3838 28.3391C98.3838 25.8608 99.2308 23.9605 100.919 22.6384C102.608 21.3162 105.002 20.658 108.108 20.658C109.305 20.658 110.332 20.721 111.208 20.8469C112.077 20.9728 112.964 21.1674 113.856 21.4307L112.947 25.8379C112.066 25.6318 111.275 25.5059 110.581 25.4716C109.881 25.4372 109.147 25.4201 108.379 25.4201C105.493 25.4201 104.053 26.2557 104.053 27.927C104.053 28.6768 104.313 29.2549 104.838 29.6498C105.358 30.0448 106.12 30.2451 107.125 30.2451C108.333 30.2451 109.344 30.0161 110.152 29.5583C110.965 29.1004 111.569 28.5166 111.976 27.8068C112.382 27.0971 112.585 26.3645 112.585 25.6147V24.2353L113.365 29.9131H111.614L112.337 29.2435C112.297 30.5256 112.009 31.5901 111.473 32.4487C110.937 33.3072 110.186 33.9426 109.22 34.3718C108.254 34.7954 107.097 35.0072 105.747 35.0072L105.736 35.0014ZM113.127 34.7954L112.653 28.2418L112.568 25.3628V21.0415C112.568 19.8567 112.072 18.9924 111.078 18.443C110.084 17.8935 108.604 17.5901 106.639 17.5329L101.06 17.3841L101.473 12.25L106.227 12.313C110.18 12.3702 113.122 13.1601 115.042 14.6825C116.962 16.205 117.927 18.4315 117.927 21.3506V29.5354L120.954 29.9933V34.5836L113.127 34.7897V34.7954Z" fill="white" fill-opacity="0.8"/>
<path id="Vector_4" d="M124.477 34.5817V3.27344H130.056V34.2097L124.477 34.5874V34.5817ZM130.672 34.9995C129.627 34.9995 128.599 34.9595 127.583 34.885C126.567 34.8106 125.533 34.7076 124.472 34.5817L126.51 28.9668C127.239 29.316 128.04 29.522 128.921 29.585C129.802 29.6479 130.672 29.6765 131.536 29.6765C133.828 29.6765 135.601 29.0126 136.861 27.6847C138.114 26.3568 138.747 24.4795 138.747 22.0584C138.747 20.5531 138.397 19.3969 137.708 18.5841C137.013 17.7714 136.031 17.365 134.754 17.365C131.626 17.365 130.062 18.9562 130.062 22.1442L128.786 16.4664H130.638C131.011 13.5187 132.739 12.042 135.827 12.042C138.572 12.042 140.695 12.912 142.203 14.652C143.705 16.392 144.456 18.8589 144.456 22.0641C144.456 26.168 143.258 29.3503 140.864 31.6169C138.47 33.8777 135.071 35.011 130.677 35.011L130.672 34.9995Z" fill="white" fill-opacity="0.8"/>
<path id="Vector_5" d="M155.162 35.0014C152.841 35.0014 151.034 34.4233 149.746 33.2672C148.453 32.111 147.81 30.4683 147.81 28.3391C147.81 25.8608 148.657 23.9605 150.345 22.6384C152.033 21.3162 154.428 20.658 157.533 20.658C158.73 20.658 159.758 20.721 160.633 20.8469C161.503 20.9728 162.389 21.1674 163.282 21.4307L162.373 25.8379C161.492 25.6318 160.701 25.5059 160.007 25.4716C159.306 25.4372 158.572 25.4201 157.804 25.4201C154.919 25.4201 153.479 26.2557 153.479 27.927C153.479 28.6768 153.739 29.2549 154.264 29.6498C154.783 30.0448 155.546 30.2451 156.551 30.2451C157.759 30.2451 158.77 30.0161 159.577 29.5583C160.391 29.1004 160.995 28.5166 161.401 27.8068C161.808 27.0971 162.011 26.3645 162.011 25.6147V24.2353L162.79 29.9131H161.04L161.763 29.2435C161.723 30.5256 161.435 31.5901 160.899 32.4487C160.362 33.3072 159.611 33.9426 158.646 34.3718C157.68 34.7954 156.523 35.0072 155.173 35.0072L155.162 35.0014ZM162.553 34.7954L162.079 28.2418L161.994 25.3628V21.0415C161.994 19.8567 161.497 18.9924 160.503 18.443C159.51 17.8935 158.03 17.5901 156.065 17.5329L150.486 17.3841L150.898 12.25L155.653 12.313C159.606 12.3702 162.548 13.1601 164.468 14.6825C166.387 16.205 167.353 18.4315 167.353 21.3506V29.5354L170.38 29.9933V34.5836L162.553 34.7897V34.7954Z" fill="white" fill-opacity="0.8"/>
<path id="Vector_6" d="M185.807 35.0023C181.838 35.0023 178.771 34.0121 176.603 32.026C174.435 30.0399 173.351 27.1952 173.351 23.4749C173.351 19.7545 174.339 17.0472 176.315 15.044C178.291 13.0407 181.115 12.0391 184.78 12.0391C187.033 12.0391 188.964 12.4855 190.579 13.3727C192.194 14.2598 193.334 15.5248 194.006 17.1503L189.969 20.407C189.365 19.4454 188.597 18.7071 187.671 18.1862C186.745 17.6654 185.723 17.4021 184.61 17.4021C182.865 17.4021 181.505 17.9115 180.522 18.9246C179.539 19.9377 179.048 21.3858 179.048 23.2688C179.048 25.3408 179.675 26.9205 180.934 28.008C182.193 29.0955 183.978 29.6335 186.299 29.6335C187.287 29.6335 188.275 29.5877 189.252 29.4847C190.234 29.3874 191.189 29.2557 192.126 29.0898L192.702 34.3727C191.59 34.6245 190.443 34.7905 189.263 34.8763C188.083 34.9622 186.931 35.0023 185.802 35.0023H185.807Z" fill="white" fill-opacity="0.8"/>
</g>
<g id="Group_2">
<path id="Vector_7" d="M28.8098 19.9744V34.5354H25.7041V3.29007H28.8042V16.4487C28.8437 16.4601 28.8889 16.4773 28.9284 16.4888C29.3688 15.9278 29.8093 15.3726 30.2441 14.806C33.1635 11.0399 36.0772 7.27371 39.0022 3.51329C39.1039 3.38164 39.3015 3.26145 39.4596 3.26145C42.0119 3.24428 44.5643 3.25 47.1166 3.25572C47.1448 3.25572 47.1674 3.26717 47.2521 3.29007C47.1618 3.41599 47.0884 3.53046 47.0037 3.63921C43.2937 8.37265 39.5838 13.1004 35.8626 17.8224C35.6311 18.1143 35.6255 18.2974 35.8513 18.6008C39.7194 23.752 43.5761 28.909 47.4328 34.066C47.5345 34.2034 47.6305 34.3465 47.7603 34.5354C47.574 34.5468 47.4498 34.564 47.3255 34.564C44.9652 34.564 42.5992 34.564 40.2389 34.5754C39.9226 34.5754 39.7419 34.4552 39.5556 34.2148C36.1224 29.5844 32.6778 24.9597 29.239 20.335C29.1373 20.1977 29.03 20.0603 28.9228 19.9287C28.8832 19.9458 28.8493 19.963 28.8098 19.9744Z" fill="white" fill-opacity="0.8"/>
<path id="Vector_8" d="M0 4.46043H4.46094V1.8848H8.67907V0.00745051C9.78018 0.00745051 10.8418 -0.0268913 11.8977 0.00745051C15.8335 0.144818 19.5604 1.24948 23.2364 2.57164C23.6881 2.7319 24.2867 2.80058 24.5239 3.12683C24.7497 3.44163 24.586 4.03689 24.586 4.51195C24.586 14.328 24.586 24.1383 24.586 33.9543C24.586 34.1146 24.586 34.2748 24.586 34.498C24.0552 34.498 23.5526 34.5267 23.0501 34.498C16.6353 34.0402 10.215 33.6738 3.78333 33.92C2.67656 33.96 1.5698 34.0402 0.463034 34.0974C0.321865 34.1031 0.175049 34.0974 0.00564676 34.0974V4.46043H0ZM23.2195 32.1685C23.2195 31.8938 23.2195 31.7164 23.2195 31.5389C23.2195 23.8864 23.2195 16.2282 23.2195 8.57572C23.2195 7.27646 23.2082 5.9772 23.2308 4.67221C23.2308 4.34024 23.1235 4.19715 22.8242 4.11129C22.3499 3.9682 21.8868 3.79077 21.4182 3.63051C18.3463 2.56591 15.2293 1.72454 11.9655 1.58145C11.4912 1.55855 11.0168 1.58145 10.5086 1.58145C10.5086 1.82184 10.5086 1.99927 10.5086 2.17671C10.5086 5.47352 10.5086 8.77033 10.5086 12.0614C10.5086 17.2642 10.5086 22.467 10.4973 27.6698C10.4973 28.0246 10.582 28.1505 10.9491 28.1792C11.8187 28.2364 12.6939 28.3222 13.5579 28.4482C16.6184 28.8946 19.5208 29.8047 22.1635 31.476C22.491 31.682 22.8185 31.9052 23.2251 32.1743L23.2195 32.1685ZM4.45529 31.3844C4.45529 31.1783 4.45529 30.9895 4.45529 30.8006C4.45529 24.6649 4.45529 18.5291 4.45529 12.3991C4.45529 10.4474 4.44965 8.49559 4.46094 6.54384C4.46094 6.20042 4.3593 6.06878 4.01484 6.06878C3.43323 6.06878 2.84597 6.04588 2.26435 6.00582C1.86908 5.9772 1.74485 6.10312 1.75049 6.52094C1.76179 14.9919 1.76179 23.4629 1.76179 31.9339C1.76179 32.0941 1.77308 32.2487 1.77873 32.3402C6.23402 32.2487 10.6441 32.1514 15.0543 32.0598C15.0543 32.0369 15.0543 32.014 15.0599 31.9911C11.542 31.7908 8.02404 31.5904 4.44965 31.3901L4.45529 31.3844ZM6.30178 3.46452V29.8734C9.57125 30.0909 12.8068 30.3083 16.0424 30.5258C14.8397 30.2626 13.6313 30.0107 12.4059 29.8619C11.1806 29.7131 9.94394 29.6673 8.66213 29.5757V3.46452H6.29613H6.30178Z" fill="white" fill-opacity="0.8"/>
<path id="Vector_9" d="M21.9317 13.3803C18.8881 12.1096 15.9123 10.9191 12.6484 10.7245V9.15625C13.343 9.23638 14.015 9.28217 14.6869 9.39092C17.1207 9.7744 19.4189 10.6101 21.6833 11.5659C21.7962 11.6117 21.9204 11.7891 21.9261 11.9093C21.9543 12.3615 21.9374 12.8194 21.9374 13.3803H21.9317Z" fill="white" fill-opacity="0.8"/>
<path id="Vector_10" d="M21.9267 21.9047C18.8775 20.6398 15.9129 19.4436 12.6152 19.249C12.6152 18.98 12.6152 18.7338 12.6152 18.4877C12.6152 18.2416 12.6152 17.9955 12.6152 17.6406C13.6655 17.7952 14.6594 17.9039 15.6419 18.0985C17.7199 18.5106 19.7019 19.2604 21.6557 20.0789C21.7686 20.1247 21.9098 20.262 21.9154 20.3651C21.9437 20.8459 21.9267 21.3324 21.9267 21.9047Z" fill="white" fill-opacity="0.8"/>
<path id="Vector_11" d="M12.6436 14.9433V13.375C13.3946 13.4666 14.1343 13.4952 14.8514 13.6555C16.0711 13.9187 17.2739 14.2679 18.4879 14.5712C18.7477 14.6342 18.8437 14.7601 18.8268 15.0349C18.8042 15.4584 18.8268 15.8877 18.8268 16.3685C16.8052 15.6473 14.7837 15.0749 12.6492 14.9547L12.6436 14.9433Z" fill="white" fill-opacity="0.8"/>
<path id="Vector_12" d="M21.9324 9.27784C20.1593 8.6139 18.4709 7.9843 16.7656 7.34326V5.75781C17.5505 6.00393 18.3072 6.22143 19.0413 6.48471C19.8939 6.78807 20.724 7.14293 21.5767 7.44628C21.859 7.54931 21.955 7.70385 21.9381 8.00148C21.9155 8.40785 21.9324 8.81995 21.9324 9.27212V9.27784Z" fill="white" fill-opacity="0.8"/>
<path id="Vector_13" d="M21.932 25.9223C20.4187 25.3614 18.9731 24.8291 17.5332 24.2796C17.4315 24.2395 17.3242 24.0793 17.3129 23.9648C17.2904 23.5241 17.3017 23.0834 17.3017 22.5625C17.9228 22.7628 18.5044 22.9345 19.0691 23.1406C19.9161 23.4497 20.7518 23.7988 21.5988 24.1136C21.8416 24.2052 21.9376 24.3483 21.932 24.6058C21.9207 25.0294 21.932 25.4587 21.932 25.9223Z" fill="white" fill-opacity="0.8"/>
<path id="Vector_14" d="M12.6436 23.2584V21.7188C13.7503 21.8733 14.8232 22.0221 15.9017 22.1709V23.7735C14.8063 23.6018 13.7334 23.4358 12.6436 23.2641V23.2584Z" fill="white" fill-opacity="0.8"/>
<path id="Vector_15" d="M12.6436 6.62714V5.07031C13.5075 5.18479 14.3376 5.28781 15.1677 5.41945C15.2524 5.4309 15.3596 5.61978 15.3653 5.73425C15.3879 6.12918 15.3766 6.52984 15.3766 6.99918C14.4618 6.87326 13.5753 6.75306 12.6492 6.62142L12.6436 6.62714Z" fill="white" fill-opacity="0.8"/>
<path id="Vector_16" d="M21.9267 17.5992C21.3903 17.3817 20.9273 17.21 20.4755 17.004C20.3682 16.9525 20.2271 16.8151 20.2214 16.7121C20.1932 16.2313 20.2101 15.7505 20.2101 15.1953C20.7691 15.4185 21.2661 15.6131 21.7573 15.8249C21.8364 15.8593 21.9154 16.0023 21.9211 16.0939C21.938 16.5747 21.9267 17.0555 21.9267 17.5992Z" fill="white" fill-opacity="0.8"/>
</g>
</g>
<defs>
<clipPath id="clip0_1425_41573">
<rect width="194" height="35" fill="white"/>
</clipPath>
</defs>
</svg>
