<svg width="30" height="31" viewBox="0 0 30 31" fill="none" xmlns="http://www.w3.org/2000/svg">
<g id="arcticons:al-quran-indonesia">
<path id="Vector" d="M14.5153 8.96531C16.0753 7.17781 17.4947 5.75906 16.8285 5.04031C16.1622 4.32156 5.38346 8.32344 5.99158 9.36844C6.35408 9.99094 15.9847 16.9803 16.9347 17.5422C18.0503 18.2022 19.8428 17.4297 19.6847 16.2022L18.2303 4.94531C18.2303 4.94531 18.9666 5.93406 19.1941 6.61719M21.9278 17.0684C21.7703 15.8416 20.4735 5.81094 20.4735 5.81094C20.4735 5.81094 21.2097 6.79969 21.4372 7.48344" stroke="#0F3827" stroke-linecap="round" stroke-linejoin="round"/>
<path id="Vector_2" d="M17.7392 21.6712C17.7392 17.785 16.4329 9.16437 16.4329 9.16437C16.4329 9.16437 17.1692 10.1525 17.3973 10.8363M13.7935 9.59437C13.566 8.91062 12.8304 7.92188 12.8304 7.92188C12.8304 7.92188 13.201 12.4269 15.356 13.3206C9.5773 10.5213 6.82667 19.6819 4.3298 17.0006C2.54792 15.0881 5.74855 12.4006 5.74855 12.4006" stroke="#0F3827" stroke-linecap="round" stroke-linejoin="round"/>
<path id="Vector_3" d="M23.697 9.27C23.4689 8.58687 22.7333 7.59812 22.7333 7.59812C22.7333 7.59812 23.9995 18.7825 24.2695 21.67C24.3976 23.0456 21.8483 23.6763 20.902 21.3637C19.9558 19.0512 20.8233 18.3931 21.4014 18.3931C21.9795 18.3931 22.9264 20.3206 21.4014 21.2144C19.8764 22.1081 17.3358 22.7569 16.5651 23.65C15.7945 24.5431 14.4445 26.5938 13.5508 26.5938C12.657 26.5938 10.9051 25.6306 12.9026 21.67M25.9051 19.97C25.747 17.92 24.6783 9.61375 24.6783 9.61375C24.6783 9.61375 25.4145 10.6019 25.642 11.2856M8.74515 6.09125C9.82265 5.42063 12.0439 5.00062 13.2008 4.09375M5.61264 17.4969C4.17577 19.0762 4.5789 22.2825 6.26202 21.7575C6.89015 21.5612 7.6464 20.255 8.90765 19.69C11.0245 18.7425 13.732 18.2587 13.5689 16.7462C13.3589 14.7925 11.4839 13.6556 11.4839 13.6556" stroke="#0F3827" stroke-linecap="round" stroke-linejoin="round"/>
<path id="Vector_4" d="M16.1367 18.6384C15.2386 18.2416 14.9448 17.7841 14.9448 17.7841C15.6723 19.4091 16.233 20.3991 16.2511 21.1791C16.2692 21.9591 12.2467 24.4516 10.5198 24.4516C8.50984 24.4516 7.03859 23.0066 7.60984 20.6078M6.33484 9.71094C5.01359 10.3234 4.19422 13.2216 5.20172 12.9291" stroke="#0F3827" stroke-linecap="round" stroke-linejoin="round"/>
<path id="Vector_5" d="M15 28.9375C22.4213 28.9375 28.4375 22.9213 28.4375 15.5C28.4375 8.07867 22.4213 2.0625 15 2.0625C7.57867 2.0625 1.5625 8.07867 1.5625 15.5C1.5625 22.9213 7.57867 28.9375 15 28.9375Z" stroke="#0F3827" stroke-linecap="round" stroke-linejoin="round"/>
</g>
</svg>
