<svg width="38" height="39" viewBox="0 0 38 39" fill="none" xmlns="http://www.w3.org/2000/svg">
<g id="arcticons:physics-wallah">
<path id="Vector" d="M11.5779 20.7208V8.6875H14.899C15.8138 8.6875 16.6911 9.05091 17.338 9.69777C17.9849 10.3446 18.3483 11.222 18.3483 12.1368C18.3483 13.0516 17.9849 13.9289 17.338 14.5758C16.6911 15.2227 15.8138 15.5861 14.899 15.5861H11.5771M18.0158 19.9862L20.5705 30.2066L23.1252 19.9862L25.6807 30.2066L28.2354 19.9862" stroke="#0F3827" stroke-linecap="round" stroke-linejoin="round"/>
<path id="Vector_2" d="M2.28027 15.3053C2.96767 12.7408 4.23574 10.3688 5.9864 8.37281C7.73706 6.37678 9.92338 4.81018 12.3763 3.79419C14.8292 2.77819 17.4829 2.34003 20.1322 2.51359C22.7815 2.68715 25.3554 3.46778 27.6548 4.7951M10.345 34.1976C12.6444 35.5252 15.2184 36.3061 17.8679 36.4798C20.5174 36.6536 23.1714 36.2155 25.6245 35.1995C28.0776 34.1834 30.2641 32.6167 32.0149 30.6205C33.7656 28.6243 35.0337 26.2521 35.7211 23.6874" stroke="#0F3827" stroke-linecap="round" stroke-linejoin="round"/>
</g>
</svg>
