<svg width="23" height="23" viewBox="0 0 23 23" fill="none" xmlns="http://www.w3.org/2000/svg">
<g id="carbon:course">
<path id="Vector" d="M17.25 21.5625H5.75C5.36887 21.5621 5.00346 21.4105 4.73395 21.141C4.46445 20.8715 4.31288 20.5061 4.3125 20.125V2.875C4.31288 2.49387 4.46445 2.12846 4.73395 1.85895C5.00346 1.58945 5.36887 1.43788 5.75 1.4375H17.25C17.6311 1.43788 17.9965 1.58945 18.266 1.85895C18.5355 2.12846 18.6871 2.49387 18.6875 2.875V14.8192L15.0938 13.0223L11.5 14.8192V2.875H5.75V20.125H17.25V17.25H18.6875V20.125C18.6869 20.5061 18.5353 20.8714 18.2658 21.1408C17.9964 21.4103 17.6311 21.5619 17.25 21.5625ZM15.0938 11.4152L17.25 12.4933V2.875H12.9375V12.4933L15.0938 11.4152Z" fill="#A1A5B2"/>
</g>
</svg>
