<svg width="36" height="37" viewBox="0 0 36 37" fill="none" xmlns="http://www.w3.org/2000/svg">
<g id="clarity:computer-line" clip-path="url(#clip0_1412_39822)">
<path id="Vector" d="M9.6 23.38V11.1H24.4L25.98 9.5H8V23.38H9.6Z" fill="#0F3827"/>
<path id="Vector_2" d="M6 7.5H30V23.5H32V7C32 6.60218 31.842 6.22064 31.5607 5.93934C31.2794 5.65804 30.8978 5.5 30.5 5.5H5.5C5.10218 5.5 4.72064 5.65804 4.43934 5.93934C4.15804 6.22064 4 6.60218 4 7V23.5H6V7.5Z" fill="#0F3827"/>
<path id="Vector_3" d="M1 25.5V28.9C1 29.5896 1.27393 30.2509 1.76152 30.7385C2.24912 31.2261 2.91044 31.5 3.6 31.5H32.34C33.0296 31.5 33.6909 31.2261 34.1785 30.7385C34.6661 30.2509 34.94 29.5896 34.94 28.9V25.5H1ZM33 28.9C33 29.0591 32.9368 29.2117 32.8243 29.3243C32.7117 29.4368 32.5591 29.5 32.4 29.5H3.56C3.40087 29.5 3.24826 29.4368 3.13574 29.3243C3.02321 29.2117 2.96 29.0591 2.96 28.9V27.03H12.91C13.035 27.325 13.2437 27.5769 13.5103 27.7546C13.7768 27.9323 14.0896 28.0281 14.41 28.03H21.54C21.8604 28.0281 22.1732 27.9323 22.4397 27.7546C22.7063 27.5769 22.915 27.325 23.04 27.03H33V28.9Z" fill="#0F3827"/>
</g>
<defs>
<clipPath id="clip0_1412_39822">
<rect width="36" height="36" fill="white" transform="translate(0 0.5)"/>
</clipPath>
</defs>
</svg>
