<svg width="48" height="48" viewBox="0 0 48 48" fill="none" xmlns="http://www.w3.org/2000/svg">
<g id="FileText">
<path id="Vector" d="M10.4985 42H37.5C37.8978 42 38.2794 41.842 38.5607 41.5607C38.842 41.2794 39 40.8978 39 40.5V7.5C39 7.10218 38.842 6.72064 38.5607 6.43934C38.2794 6.15804 37.8978 6 37.5 6H19.4985L8.99854 16.5V40.5C8.99853 40.697 9.03733 40.892 9.11271 41.074C9.18809 41.256 9.29858 41.4214 9.43787 41.5607C9.57716 41.7 9.74252 41.8104 9.92451 41.8858C10.1065 41.9612 10.3016 42 10.4985 42Z" stroke="#0F3827" stroke-width="2.5" stroke-linecap="round" stroke-linejoin="round"/>
<path id="Vector_2" d="M19.5 6V16.5H8.9985" stroke="#0F3827" stroke-width="2.5" stroke-linecap="round" stroke-linejoin="round"/>
<path id="Vector_3" d="M30 25.5H18" stroke="#0F3827" stroke-width="2.5" stroke-linecap="round" stroke-linejoin="round"/>
<path id="Vector_4" d="M30 31.5H18" stroke="#0F3827" stroke-width="2.5" stroke-linecap="round" stroke-linejoin="round"/>
</g>
</svg>
