<svg width="24" height="25" viewBox="0 0 24 25" fill="none" xmlns="http://www.w3.org/2000/svg">
<g id="Group">
<path id="Vector" d="M23.9431 16.5113C23.825 17.4807 23.1488 18.2294 22.1981 18.4419C20.9025 18.7319 19.6069 17.745 19.5531 16.4169C19.5456 16.2382 19.4862 16.1644 19.3244 16.1032C18.1675 15.6663 17.0144 15.2182 15.8387 14.765C15.4613 15.3869 14.9762 15.9044 14.3525 16.2994C14.3756 16.3669 14.3912 16.4257 14.415 16.4813C14.8962 17.6213 15.38 18.76 15.8594 19.9007C15.9113 20.0238 15.96 20.0982 16.1225 20.1C17.2656 20.1157 18.2 20.9582 18.2987 22.0469C18.4056 23.2294 17.6819 24.2138 16.525 24.4607C16.4894 24.4688 16.4556 24.4888 16.4212 24.5032H15.7662C15.7244 24.4869 15.6831 24.465 15.64 24.4557C14.4881 24.1957 13.7487 23.0994 13.9331 21.9282C14.0137 21.4138 14.2681 20.9969 14.6444 20.6407C14.1263 19.4157 13.6131 18.1969 13.0894 16.9825C13.0675 16.9319 12.9406 16.8875 12.8737 16.9C12.1887 17.0269 11.5019 17.0432 10.8387 16.8282C10.3263 16.6625 9.83875 16.4207 9.3375 16.2119C8.5175 17.0325 7.665 17.8857 6.80625 18.7444C6.82812 18.7819 6.85938 18.835 6.89125 18.8882C8.0675 20.8388 7.18688 23.4288 5.05813 24.2494C4.75688 24.3657 4.43125 24.42 4.11688 24.5032H3.32188C3.2775 24.4894 3.23438 24.4713 3.18937 24.4632C1.60125 24.1813 0.583125 23.26 0.12 21.7207C0.07125 21.5594 0.039375 21.3925 0 21.2282V20.3863C0.08 20.0782 0.133125 19.76 0.245 19.4644C1.05938 17.3138 3.67188 16.4269 5.63625 17.625C5.6825 17.6532 5.73 17.6794 5.76 17.6969C6.62 16.8375 7.47312 15.985 8.3425 15.1163C7.8475 14.4013 7.55437 13.5944 7.52187 12.6988C7.49 11.8113 7.70438 10.9869 8.16438 10.2107C7.5025 9.64817 6.85125 9.09442 6.20375 8.54442C4.62438 9.59629 2.96375 8.98816 2.16438 8.00504C1.25625 6.88879 1.28437 5.27504 2.23062 4.20066C3.19687 3.10317 4.78125 2.86004 6.00938 3.61566C7.11188 4.29316 7.8675 5.83629 7.11375 7.46567C7.43437 7.73879 7.75938 8.01629 8.08438 8.29254C8.41063 8.57004 8.73625 8.84629 9.06063 9.12191C10.8538 7.78879 12.6856 7.71129 14.6012 8.89129C14.64 8.85567 14.6975 8.80692 14.7506 8.75442C15.9362 7.56942 17.1194 6.38254 18.3094 5.20192C18.4294 5.08254 18.4362 5.00067 18.3625 4.84629C17.815 3.70317 17.9281 2.60692 18.7244 1.63067C19.5131 0.663165 20.5713 0.33379 21.7675 0.66254C22.9706 0.993165 23.7119 1.82129 23.9081 3.06254C24.0938 4.23567 23.6812 5.20879 22.7181 5.89879C21.7594 6.58629 20.7169 6.65567 19.6469 6.14004C19.5394 6.08879 19.4625 6.03129 19.3444 6.15067C18.1263 7.38004 16.9 8.60129 15.6769 9.82567C15.6506 9.85254 15.63 9.88504 15.6012 9.92317C16.345 10.9907 16.5813 12.1657 16.3463 13.4507C16.7425 13.6025 17.1269 13.7488 17.51 13.8969C18.3019 14.2019 19.0938 14.505 19.8831 14.8157C20.0025 14.8625 20.07 14.8482 20.1625 14.7544C20.865 14.0432 21.8319 13.8788 22.7162 14.3088C23.5575 14.7175 24.0525 15.6069 23.9431 16.5113Z" fill="#0F3827"/>
</g>
</svg>
