<svg width="28" height="27" viewBox="0 0 28 27" fill="none" xmlns="http://www.w3.org/2000/svg">
<g id="Group 1000015009">
<path id="Vector" fill-rule="evenodd" clip-rule="evenodd" d="M21.917 6.179C24.199 4.659 25.917 3.189 25.917 0.5H27.917C27.917 3.911 25.84 5.881 23.729 7.365C24.56 7.923 25.386 8.528 26.067 9.221C27.139 10.31 27.917 11.674 27.917 13.5C27.917 15.326 27.139 16.69 26.067 17.78C25.386 18.472 24.56 19.077 23.729 19.635C25.839 21.119 27.917 23.089 27.917 26.5H25.917C25.917 26.147 25.887 25.814 25.831 25.5H20.917C20.6518 25.5 20.3974 25.3946 20.2099 25.2071C20.0223 25.0196 19.917 24.7652 19.917 24.5C19.917 24.2348 20.0223 23.9804 20.2099 23.7929C20.3974 23.6054 20.6518 23.5 20.917 23.5H24.982C24.26 22.481 23.174 21.659 21.917 20.822C19.635 22.342 17.917 23.812 17.917 26.5H15.917C15.917 23.089 17.994 21.119 20.105 19.635C19.274 19.077 18.448 18.472 17.767 17.779C16.695 16.69 15.917 15.326 15.917 13.5C15.917 11.674 16.695 10.31 17.767 9.22C18.448 8.528 19.274 7.923 20.105 7.365C17.995 5.881 15.917 3.911 15.917 0.5H17.917C17.917 0.853 17.947 1.186 18.003 1.5H22.917C23.1822 1.5 23.4366 1.60536 23.6241 1.79289C23.8116 1.98043 23.917 2.23478 23.917 2.5C23.917 2.76522 23.8116 3.01957 23.6241 3.20711C23.4366 3.39464 23.1822 3.5 22.917 3.5H18.852C19.574 4.519 20.66 5.341 21.917 6.178M21.917 8.566C20.913 9.219 20.021 9.817 19.317 10.499H24.517C23.814 9.817 22.921 9.219 21.917 8.566ZM17.917 13.5C17.917 13.142 17.961 12.81 18.045 12.5H25.789C25.873 12.81 25.917 13.142 25.917 13.5C25.917 13.858 25.873 14.19 25.789 14.5H18.045C17.9583 14.1738 17.9152 13.8375 17.917 13.5ZM19.317 16.5C20.021 17.182 20.913 17.78 21.917 18.433C22.921 17.78 23.814 17.182 24.517 16.5H19.317Z" fill="#0F3827"/>
<path id="Vector_2" d="M3.91731 5.5C3.65209 5.5 3.39774 5.60536 3.2102 5.79289C3.02266 5.98043 2.91731 6.23478 2.91731 6.5V8.5C2.91731 8.76522 3.02266 9.01957 3.2102 9.20711C3.39774 9.39464 3.65209 9.5 3.91731 9.5H4.91731V13.548L0.686307 20.398C-0.959693 23.063 0.956307 26.5 4.08931 26.5H10.7453C13.8773 26.5 15.7953 23.063 14.1483 20.398L9.91731 13.548V9.5H10.9173C11.1825 9.5 11.4369 9.39464 11.6244 9.20711C11.812 9.01957 11.9173 8.76522 11.9173 8.5V6.5C11.9173 6.23478 11.812 5.98043 11.6244 5.79289C11.4369 5.60536 11.1825 5.5 10.9173 5.5H3.91731Z" fill="#0F3827"/>
</g>
</svg>
