<svg width="22" height="21" viewBox="0 0 22 21" fill="none" xmlns="http://www.w3.org/2000/svg">
<g id="ic:outline-phone">
<path id="Vector" d="M6.2225 4.375C6.275 5.15375 6.40625 5.915 6.61625 6.64125L5.56625 7.69125C5.2075 6.64125 4.98 5.53 4.90125 4.375H6.2225ZM14.85 14.8925C15.5938 15.1025 16.355 15.2337 17.125 15.2862V16.59C15.97 16.5112 14.8587 16.2837 13.8 15.9337L14.85 14.8925ZM7.0625 2.625H4C3.51875 2.625 3.125 3.01875 3.125 3.5C3.125 11.7163 9.78375 18.375 18 18.375C18.4812 18.375 18.875 17.9812 18.875 17.5V14.4462C18.875 13.965 18.4812 13.5712 18 13.5712C16.915 13.5712 15.8562 13.3962 14.8763 13.0725C14.7894 13.041 14.6974 13.0262 14.605 13.0288C14.3775 13.0288 14.1587 13.1163 13.9837 13.2825L12.0588 15.2075C9.5785 13.9391 7.56091 11.9215 6.2925 9.44125L8.2175 7.51625C8.4625 7.27125 8.5325 6.93 8.43625 6.62375C8.10432 5.6158 7.93594 4.5612 7.9375 3.5C7.9375 3.01875 7.54375 2.625 7.0625 2.625Z" fill="#1D2026"/>
</g>
</svg>
