<svg width="13" height="20" viewBox="0 0 13 20" fill="none" xmlns="http://www.w3.org/2000/svg">
<path id="Vector" d="M6.5 20C8.22358 20 9.63008 19.7417 10.7195 19.225C11.8089 18.7083 12.3537 18.05 12.3537 17.25C12.3537 16.8 12.1545 16.375 11.7561 15.975C11.3577 15.575 10.8089 15.25 10.1098 15L9.67073 16.45C9.93089 16.5333 10.1707 16.65 10.3902 16.8C10.6098 16.95 10.7846 17.1 10.9146 17.25C10.6382 17.5833 10.065 17.875 9.19512 18.125C8.3252 18.375 7.42683 18.5 6.5 18.5C5.57317 18.5 4.67073 18.375 3.79268 18.125C2.91463 17.875 2.3374 17.5833 2.06098 17.25C2.19106 17.1167 2.36179 16.975 2.57317 16.825C2.78455 16.675 3.02846 16.55 3.30488 16.45L2.89024 15C2.19106 15.25 1.64228 15.575 1.2439 15.975C0.84553 16.375 0.646342 16.8 0.646342 17.25C0.646342 18.05 1.19106 18.7083 2.28049 19.225C3.36992 19.7417 4.77642 20 6.5 20ZM6.5 14.625C6.15686 13.975 5.79465 13.3792 5.41337 12.8375C5.0321 12.2958 4.65447 11.7833 4.28049 11.3C3.56504 10.35 3 9.53333 2.58537 8.85C2.17073 8.16667 1.96342 7.26605 1.96342 6.14815C1.96342 4.85372 2.40418 3.75542 3.28571 2.85325C4.16725 1.95108 5.24042 1.5 6.50522 1.5C7.77003 1.5 8.84146 1.95108 9.71951 2.85325C10.5976 3.75542 11.0366 4.85372 11.0366 6.14815C11.0366 7.26605 10.8293 8.16667 10.4146 8.85C10 9.53333 9.43496 10.35 8.71951 11.3C8.34553 11.7833 7.9679 12.2958 7.58663 12.8375C7.20535 13.3792 6.84314 13.975 6.5 14.625ZM6.5 17.35C6.69512 17.35 6.86585 17.2936 7.0122 17.1807C7.15854 17.0679 7.26423 16.916 7.32927 16.725C7.71951 15.5083 8.20747 14.5 8.79315 13.7C9.37884 12.9 9.94779 12.1333 10.5 11.4C11.0528 10.6667 11.5244 9.90417 11.9146 9.1125C12.3049 8.32083 12.5 7.33299 12.5 6.14898C12.5 4.43299 11.9202 2.97917 10.7605 1.7875C9.60084 0.595833 8.18067 0 6.5 0C4.81933 0 3.39916 0.594325 2.23949 1.78298C1.07983 2.97164 0.5 4.42732 0.5 6.15C0.5 7.33333 0.69409 8.31951 1.08227 9.10853C1.47046 9.89752 1.94304 10.6614 2.5 11.4C3.05285 12.1333 3.62195 12.9 4.20732 13.7C4.79268 14.5 5.27928 15.5061 5.66712 16.7183C5.73457 16.9061 5.84146 17.0583 5.9878 17.175C6.13415 17.2917 6.30488 17.35 6.5 17.35ZM6.49493 7.65C6.0918 7.65 5.74797 7.50243 5.46341 7.2073C5.17886 6.91215 5.03659 6.55798 5.03659 6.1448C5.03659 5.7316 5.18055 5.37917 5.46849 5.0875C5.75644 4.79583 6.10197 4.65 6.50507 4.65C6.9082 4.65 7.25203 4.79757 7.53659 5.0927C7.82114 5.38785 7.96341 5.74202 7.96341 6.1552C7.96341 6.5684 7.81945 6.92083 7.53151 7.2125C7.24356 7.50417 6.89803 7.65 6.49493 7.65Z" fill="black" fill-opacity="0.7"/>
</svg>
