<svg width="37" height="28" viewBox="0 0 37 28" fill="none" xmlns="http://www.w3.org/2000/svg">
<path id="Vector" d="M4.625 0H32.375C33.6012 0.00126336 34.7768 0.470986 35.6439 1.3061C36.511 2.14122 36.9987 3.27351 37 4.45455V23.5455C36.9987 24.7265 36.511 25.8588 35.6439 26.6939C34.7768 27.529 33.6012 27.9987 32.375 28H4.625C3.39878 27.9987 2.22315 27.529 1.35608 26.6939C0.48901 25.8588 0.00131226 24.7265 0 23.5455V4.45455C0.00131226 3.27351 0.48901 2.14122 1.35608 1.3061C2.22315 0.470986 3.39878 0.00126336 4.625 0ZM5.79612 7.3683L17.689 16.2774C17.9209 16.451 18.2063 16.5453 18.5 16.5453C18.7937 16.5453 19.0791 16.451 19.311 16.2774L31.2039 7.3683C31.3436 7.26666 31.461 7.1393 31.5492 6.9936C31.6373 6.84791 31.6946 6.68678 31.7175 6.51959C31.7405 6.35241 31.7288 6.18249 31.683 6.01972C31.6372 5.85695 31.5582 5.70457 31.4507 5.57143C31.3433 5.43829 31.2094 5.32706 31.0569 5.24418C30.9044 5.16131 30.7363 5.10846 30.5624 5.08869C30.3885 5.06892 30.2123 5.08264 30.044 5.12904C29.8756 5.17544 29.7185 5.2536 29.5818 5.35898L18.5 13.6603L7.41817 5.35898C7.14107 5.15743 6.79273 5.06903 6.44848 5.1129C6.10424 5.15677 5.79176 5.32939 5.57862 5.59342C5.36548 5.85745 5.2688 6.19167 5.30951 6.52381C5.35021 6.85595 5.52501 7.15931 5.79612 7.3683Z" fill="#0F3827"/>
</svg>
