<svg width="32" height="33" viewBox="0 0 32 33" fill="none" xmlns="http://www.w3.org/2000/svg">
<g id="mdi:abjad-arabic">
<path id="Vector" d="M15.9997 5.83594C13.4397 5.83594 11.333 7.9426 11.333 10.5026C11.333 11.7426 11.8397 12.8759 12.6663 13.7159C10.6263 15.0493 9.33301 17.3293 9.33301 19.8359C9.33301 23.8759 12.6263 27.1693 16.6663 27.1693C19.013 27.1693 21.333 26.5559 23.333 25.3826L21.9997 23.0759C20.373 24.0093 18.533 24.5026 16.6663 24.5026C14.0797 24.5026 11.9997 22.4359 11.9997 19.8359C11.9973 18.809 12.3347 17.8101 12.9594 16.9949C13.584 16.1797 14.4608 15.5941 15.453 15.3293L22.3997 13.4626L21.7063 10.8893L15.773 12.5026C14.773 12.3693 13.9997 11.5426 13.9997 10.5026C13.9997 9.3826 14.8797 8.5026 15.9997 8.5026C16.3463 8.5026 16.6663 8.59594 16.9997 8.76927L18.333 6.4626C17.6263 6.04927 16.813 5.83594 15.9997 5.83594Z" fill="#0F3827"/>
</g>
</svg>
