<svg width="17" height="16" viewBox="0 0 17 16" fill="none" xmlns="http://www.w3.org/2000/svg">
<g id="Pause">
<path id="Vector" d="M13 2.5H10.75C10.4739 2.5 10.25 2.72386 10.25 3V13C10.25 13.2761 10.4739 13.5 10.75 13.5H13C13.2761 13.5 13.5 13.2761 13.5 13V3C13.5 2.72386 13.2761 2.5 13 2.5Z" fill="#0F3827"/>
<path id="Vector_2" d="M6.25 2.5H4C3.72386 2.5 3.5 2.72386 3.5 3V13C3.5 13.2761 3.72386 13.5 4 13.5H6.25C6.52614 13.5 6.75 13.2761 6.75 13V3C6.75 2.72386 6.52614 2.5 6.25 2.5Z" fill="#0F3827"/>
</g>
</svg>
