<svg width="17" height="16" viewBox="0 0 17 16" fill="none" xmlns="http://www.w3.org/2000/svg">
<path d="M14.0933 7.57265L5.09472 2.07336C5.01892 2.02704 4.93216 2.00175 4.84335 2.00009C4.75453 1.99842 4.66688 2.02045 4.58941 2.0639C4.51193 2.10735 4.44743 2.17065 4.40254 2.2473C4.35765 2.32395 4.33398 2.41117 4.33398 2.5V13.4986C4.33398 13.5874 4.35765 13.6746 4.40254 13.7513C4.44743 13.8279 4.51193 13.8912 4.58941 13.9347C4.66688 13.9781 4.75453 14.0002 4.84335 13.9985C4.93216 13.9968 5.01892 13.9715 5.09472 13.9252L14.0933 8.42593C14.1663 8.38126 14.2267 8.31857 14.2686 8.24386C14.3105 8.16916 14.3325 8.08494 14.3325 7.99929C14.3325 7.91364 14.3105 7.82942 14.2686 7.75471C14.2267 7.68001 14.1663 7.61732 14.0933 7.57265Z" fill="#A1A5B2"/>
</svg>
