<svg width="20" height="20" viewBox="0 0 20 20" fill="none" xmlns="http://www.w3.org/2000/svg">
<g id="Star">
<path id="Vector" d="M9.65538 14.901L5.71511 17.3974C5.21145 17.7165 4.58611 17.2419 4.73557 16.654L5.874 12.1756C5.90606 12.0509 5.90226 11.9197 5.86304 11.797C5.82383 11.6743 5.75078 11.5652 5.65232 11.4822L2.11893 8.54132C1.65466 8.1549 1.89429 7.38439 2.49078 7.34567L7.10515 7.0462C7.22943 7.03732 7.34864 6.99332 7.44889 6.91931C7.54914 6.84531 7.6263 6.74435 7.67139 6.62819L9.39235 2.29436C9.43913 2.17106 9.52231 2.06492 9.63085 1.99002C9.73938 1.91511 9.86813 1.875 10 1.875C10.1319 1.875 10.2606 1.91511 10.3691 1.99002C10.4777 2.06492 10.5609 2.17106 10.6076 2.29436L12.3286 6.62819C12.3737 6.74435 12.4509 6.84531 12.5511 6.91931C12.6514 6.99332 12.7706 7.03732 12.8948 7.0462L17.5092 7.34567C18.1057 7.38439 18.3453 8.1549 17.8811 8.54132L14.3477 11.4822C14.2492 11.5652 14.1762 11.6743 14.137 11.797C14.0977 11.9197 14.0939 12.0509 14.126 12.1756L15.1818 16.3288C15.3611 17.0343 14.6107 17.6038 14.0063 17.2209L10.3446 14.901C10.2416 14.8354 10.1221 14.8006 10 14.8006C9.87792 14.8006 9.75837 14.8354 9.65538 14.901Z" fill="#0F3827"/>
</g>
</svg>
