<svg width="29" height="30" viewBox="0 0 29 30" fill="none" xmlns="http://www.w3.org/2000/svg">
<path d="M5.76277 29.4998C7.0266 29.4998 8.80191 29.0427 11.4604 27.5578C14.6931 25.7452 17.1936 24.0719 20.4088 20.8657C23.5088 17.7682 25.0174 15.7628 27.1287 11.9215C29.514 7.58442 29.1074 5.311 28.6528 4.33936C28.1116 3.17805 27.3126 2.48346 26.2799 1.79406C25.6934 1.40983 25.0726 1.08045 24.4256 0.810117C24.3609 0.782282 24.3007 0.755742 24.2469 0.731791C23.9264 0.587436 23.4408 0.369286 22.8258 0.602325C22.4153 0.756389 22.0488 1.07164 21.4752 1.63805C20.2988 2.79807 18.6911 5.38156 18.0981 6.65032C17.6999 7.50544 17.4364 8.06991 17.4357 8.703C17.4357 9.44419 17.8086 10.0158 18.2612 10.6327C18.346 10.7486 18.4302 10.8593 18.5118 10.9667C19.0045 11.614 19.1126 11.8011 19.0414 12.1351C18.897 12.8064 17.8203 14.8047 16.0508 16.57C14.2813 18.3353 12.3403 19.3438 11.6663 19.4875C11.3179 19.562 11.1269 19.4493 10.4587 18.9392C10.3629 18.8661 10.2645 18.7903 10.1616 18.7146C9.47138 18.2013 8.92623 17.8381 8.20237 17.8381H8.19849C7.56851 17.8381 7.02919 18.1113 6.1357 18.5618C4.97028 19.1496 2.3086 20.7362 1.14124 21.9137C0.573423 22.4859 0.256819 22.851 0.102077 23.2608C-0.131004 23.8777 0.0884819 24.3612 0.231569 24.6849C0.255526 24.7386 0.28207 24.7976 0.30991 24.8629C0.582438 25.5087 0.913822 26.128 1.29987 26.713C1.98811 27.7423 2.68542 28.5391 3.84954 29.0809C4.44732 29.3636 5.10153 29.5068 5.76277 29.4998Z" fill="#0F3827"/>
</svg>
