<svg width="20" height="20" viewBox="0 0 20 20" fill="none" xmlns="http://www.w3.org/2000/svg">
<g id="Users">
<path id="Vector" d="M13.125 12.5C10.8813 12.5 9.0625 10.6812 9.0625 8.4375C9.0625 6.19384 10.8813 4.375 13.125 4.375C15.3687 4.375 17.1875 6.19384 17.1875 8.4375C17.1875 10.6812 15.3687 12.5 13.125 12.5Z" stroke="#564FFD" stroke-width="1.5" stroke-miterlimit="10"/>
<path id="Vector_2" d="M7.85938 4.52726C7.30061 4.36983 6.71459 4.33396 6.1408 4.42208C5.56701 4.5102 5.01876 4.72026 4.53298 5.0381C4.04721 5.35595 3.63518 5.7742 3.32466 6.26469C3.01415 6.75519 2.81234 7.30652 2.73284 7.88158C2.65335 8.45663 2.698 9.04204 2.8638 9.59838C3.0296 10.1547 3.3127 10.6691 3.69402 11.1068C4.07535 11.5445 4.54604 11.8954 5.07441 12.1359C5.60278 12.3764 6.17654 12.5009 6.75706 12.5009" stroke="#564FFD" stroke-width="1.5" stroke-linecap="round" stroke-linejoin="round"/>
<path id="Vector_3" d="M18.75 15.4216C18.1155 14.5191 17.2732 13.7825 16.2942 13.274C15.3151 12.7655 14.2281 12.5 13.1249 12.5C12.0217 12.5 10.9347 12.7654 9.95563 13.2738C8.97656 13.7822 8.13419 14.5187 7.49964 15.4212" stroke="#564FFD" stroke-width="1.5" stroke-linecap="round" stroke-linejoin="round"/>
<path id="Vector_4" d="M6.75586 12.5C5.65255 12.4992 4.56529 12.7643 3.58614 13.2728C2.60699 13.7813 1.76479 14.5182 1.13083 15.4212" stroke="#564FFD" stroke-width="1.5" stroke-linecap="round" stroke-linejoin="round"/>
</g>
</svg>
