<svg width="24" height="25" viewBox="0 0 24 25" fill="none" xmlns="http://www.w3.org/2000/svg">
<path id="Vector" d="M19.974 17.3002L20.074 17.4002C20.301 17.6292 20.5822 17.797 20.8915 17.8881C21.2008 17.9792 21.5281 17.9906 21.843 17.9212C22.1528 17.8562 22.4413 17.7144 22.6819 17.5087C22.9225 17.303 23.1075 17.0401 23.22 16.7442C23.7721 15.2945 24.036 13.751 23.997 12.2002C23.8845 9.15426 22.6316 6.26173 20.4868 4.09598C18.342 1.93023 15.4618 0.64936 12.417 0.507248C10.807 0.451266 9.20219 0.720038 7.69827 1.29754C6.19435 1.87504 4.82212 2.74945 3.66336 3.86863C2.50461 4.98781 1.58308 6.32886 0.953694 7.81181C0.32431 9.29476 -3.32326e-05 10.8893 2.55391e-09 12.5002C0.00370523 15.6817 1.26918 18.7318 3.51881 20.9814C5.76845 23.2311 8.81854 24.4965 12 24.5002C12.338 24.5002 12.67 24.4782 13 24.4502C13.2504 24.4291 13.4837 24.3145 13.6534 24.1292C13.8231 23.9439 13.9169 23.7015 13.916 23.4502L13.884 19.8622C13.8759 19.1532 14.0793 18.4579 14.4682 17.865C14.8572 17.2721 15.414 16.8086 16.0676 16.5336C16.7212 16.2587 17.4419 16.1847 18.1377 16.3213C18.8335 16.4578 19.4728 16.7987 19.974 17.3002ZM17.032 8.55025C17.3187 8.47417 17.6216 8.48481 17.9023 8.58084C18.1829 8.67687 18.4288 8.85396 18.6089 9.08973C18.7889 9.32551 18.895 9.60937 18.9137 9.90543C18.9324 10.2015 18.8629 10.4965 18.714 10.753C18.5651 11.0096 18.3435 11.2163 18.0771 11.3469C17.8108 11.4775 17.5117 11.5262 17.2177 11.4868C16.9236 11.4474 16.6479 11.3218 16.4253 11.1257C16.2027 10.9296 16.0432 10.672 15.967 10.3852C15.9164 10.1948 15.9038 9.99631 15.93 9.80103C15.9561 9.60575 16.0205 9.41753 16.1194 9.24713C16.2183 9.07673 16.3498 8.92748 16.5064 8.8079C16.663 8.68833 16.8416 8.60078 17.032 8.55025ZM7.802 17.4502C7.51527 17.5263 7.21242 17.5157 6.93174 17.4197C6.65106 17.3236 6.40516 17.1465 6.22512 16.9108C6.04509 16.675 5.939 16.3911 5.92028 16.0951C5.90157 15.799 5.97106 15.504 6.11996 15.2475C6.26887 14.9909 6.49051 14.7842 6.75686 14.6536C7.02321 14.523 7.32231 14.4743 7.61634 14.5137C7.91037 14.553 8.18612 14.6787 8.40874 14.8748C8.63135 15.0709 8.79082 15.3285 8.867 15.6152C8.91759 15.8057 8.93017 16.0042 8.90403 16.1995C8.87789 16.3947 8.81353 16.583 8.71463 16.7534C8.61573 16.9238 8.48423 17.073 8.32764 17.1926C8.17105 17.3122 7.99243 17.3997 7.802 17.4502ZM7.802 11.4502C7.51527 11.5263 7.21242 11.5157 6.93174 11.4197C6.65106 11.3236 6.40516 11.1465 6.22512 10.9108C6.04509 10.675 5.939 10.3911 5.92028 10.0951C5.90157 9.799 5.97106 9.50404 6.11996 9.24747C6.26887 8.9909 6.49051 8.78425 6.75686 8.65363C7.02321 8.52302 7.32231 8.47432 7.61634 8.51368C7.91037 8.55305 8.18612 8.67871 8.40874 8.87479C8.63135 9.07086 8.79082 9.32854 8.867 9.61525C8.91759 9.80567 8.93017 10.0042 8.90403 10.1995C8.87789 10.3947 8.81353 10.583 8.71463 10.7534C8.61573 10.9238 8.48423 11.073 8.32764 11.1926C8.17105 11.3122 7.99243 11.3997 7.802 11.4502ZM12.802 8.45025C12.5153 8.52633 12.2124 8.51569 11.9317 8.41966C11.6511 8.32363 11.4052 8.14653 11.2251 7.91076C11.0451 7.67499 10.939 7.39113 10.9203 7.09507C10.9016 6.79901 10.9711 6.50404 11.12 6.24747C11.2689 5.9909 11.4905 5.78425 11.7569 5.65363C12.0232 5.52302 12.3223 5.47432 12.6163 5.51368C12.9104 5.55305 13.1861 5.67871 13.4087 5.87479C13.6313 6.07086 13.7908 6.32854 13.867 6.61525C13.9176 6.80567 13.9302 7.00418 13.904 7.19946C13.8779 7.39475 13.8135 7.58296 13.7146 7.75337C13.6157 7.92377 13.4842 8.07302 13.3276 8.19259C13.171 8.31217 12.9924 8.39972 12.802 8.45025Z" fill="#0F3827"/>
</svg>
