<svg width="21" height="20" viewBox="0 0 21 20" fill="none" xmlns="http://www.w3.org/2000/svg">
<g id="ph:arrow-line-up">
<path id="Vector" d="M4.42969 9.19531C4.31233 9.07682 4.24649 8.91678 4.24649 8.75C4.24649 8.58322 4.31233 8.42318 4.42969 8.30469C4.54915 8.18917 4.70882 8.1246 4.875 8.1246C5.04118 8.1246 5.20085 8.18917 5.32031 8.30469L9.875 12.8672L9.875 2.5C9.875 2.33424 9.94085 2.17527 10.0581 2.05806C10.1753 1.94085 10.3342 1.875 10.5 1.875C10.6658 1.875 10.8247 1.94085 10.9419 2.05806C11.0592 2.17527 11.125 2.33424 11.125 2.5L11.125 12.8672L15.6797 8.30469C15.8011 8.20502 15.9553 8.15409 16.1122 8.1618C16.2691 8.1695 16.4175 8.2353 16.5286 8.34638C16.6397 8.45747 16.7055 8.6059 16.7132 8.76281C16.7209 8.91971 16.67 9.07388 16.5703 9.19531L10.9453 14.8203C10.8268 14.9377 10.6668 15.0035 10.5 15.0035C10.3332 15.0035 10.1732 14.9377 10.0547 14.8203L4.42969 9.19531ZM3.625 17.5L17.375 17.5C17.5408 17.5 17.6997 17.4342 17.8169 17.3169C17.9342 17.1997 18 17.0408 18 16.875C18 16.7092 17.9342 16.5503 17.8169 16.4331C17.6997 16.3158 17.5408 16.25 17.375 16.25L3.625 16.25C3.45924 16.25 3.30027 16.3158 3.18306 16.4331C3.06585 16.5503 3 16.7092 3 16.875C3 17.0408 3.06585 17.1997 3.18306 17.3169C3.30027 17.4342 3.45924 17.5 3.625 17.5Z" fill="#0F3827"/>
</g>
</svg>
