<svg width="227" height="345" viewBox="0 0 227 345" fill="none" xmlns="http://www.w3.org/2000/svg">
<g clip-path="url(#clip0_1_2068)">
<path d="M125.166 200.851H226.262C226.262 200.851 214.152 181.689 205.5 180.734C201.481 180.286 198.964 182.319 196.628 184.434C192.829 187.877 186.793 186.611 184.723 181.924C183.441 179.028 181.705 175.426 179.559 171.68" stroke="#263238" stroke-linecap="round" stroke-linejoin="round"/>
<path d="M45.2331 190.463C41.2065 189.803 37.1648 189.462 35.3297 190.273C31.0074 192.192 22.9922 200.844 22.9922 200.844H120.494" stroke="#263238" stroke-linecap="round" stroke-linejoin="round"/>
<path d="M177.344 168.017C171.551 158.925 163.452 150.023 153.602 149.12C132.84 147.202 128.517 172.112 123.331 174.986C118.144 177.86 110.356 158.698 99.1105 168.282C87.8649 177.86 88.7294 182.652 82.6782 180.734C76.627 178.815 72.6762 175.85 65.7605 181.598C63.0534 183.843 60.9908 186.049 59.4667 187.907C57.1159 190.781 53.605 192.154 50.1699 191.418" stroke="#263238" stroke-linecap="round" stroke-linejoin="round"/>
<path d="M-26.2595 296.662C-29.2547 292.81 -33.0159 289.603 -37.3913 289.201C-49.0691 288.124 -51.4956 302.13 -54.4151 303.745C-57.3345 305.36 -61.7099 294.585 -68.0341 299.976C-74.3583 305.368 -73.873 308.06 -77.2778 306.983C-80.6825 305.906 -82.9044 304.238 -86.7944 307.468C-88.3186 308.735 -89.4788 309.971 -90.3357 311.017C-91.6627 312.632 -93.6343 313.406 -95.5679 312.989C-98.4722 312.359 -102.438 311.7 -103.909 312.352C-106.343 313.428 -110.848 318.297 -110.848 318.297H3.47341C3.47341 318.297 -3.33611 307.521 -8.20438 306.983C-13.0727 306.445 -14.0433 312.374 -18.4187 311.29C-18.4187 311.29 -20.5192 305.239 -24.2727 299.468" stroke="#263238" stroke-linecap="round" stroke-linejoin="round"/>
<path d="M-69.9688 45.0211H11.7531C11.7531 45.0211 4.94354 34.2457 0.0752695 33.7073C-4.79301 33.1689 -5.76363 39.0988 -10.139 38.0144C-10.139 38.0144 -16.1751 20.6266 -26.0557 16.6759" stroke="#263238" stroke-linecap="round" stroke-linejoin="round"/>
<path d="M121.729 323.135C121.729 323.135 141.763 333.584 164.406 324.007C187.048 314.429 186.184 293.083 186.184 293.083L121.729 323.135Z" fill="#263238"/>
<path opacity="0.1" d="M121.729 323.135C121.729 323.135 141.763 333.584 164.406 324.007C187.048 314.429 186.184 293.083 186.184 293.083L121.729 323.135Z" fill="white"/>
<path d="M160.926 219.051L62.0664 256.503L113.024 335.328L213.188 283.074L160.926 219.051Z" fill="#263238"/>
<path d="M89.9559 319.995L88.8867 317.083C120.659 305.413 135.181 271.487 135.325 271.146L138.184 272.344C137.577 273.785 122.98 307.863 89.9559 319.995Z" fill="#92E3A9" stroke="#263238" stroke-width="0.5" stroke-linecap="round" stroke-linejoin="round"/>
<path d="M141.331 271.745C141.331 273.906 139.283 275.665 136.758 275.665C134.233 275.665 132.186 273.914 132.186 271.745C132.186 269.576 134.233 267.824 136.758 267.824C139.283 267.824 141.331 269.576 141.331 271.745Z" fill="#92E3A9" stroke="#263238" stroke-linecap="round" stroke-linejoin="round"/>
<path d="M88.5855 316.651C71.2205 321.163 62.5077 337.831 54.5076 336.397C45.8934 334.85 45.5673 332.902 42.2383 332.105C38.917 331.309 41.8365 332.189 41.1616 332.204C40.4867 332.219 40.4715 332.06 41.1388 332.34C41.8061 332.621 38.5379 332.181 41.9957 332.932C45.4611 333.675 45.5597 335.73 54.6214 337.209C63.084 338.589 71.4708 322.157 88.7675 317.516C89.2074 317.258 89.1012 316.977 88.578 316.651H88.5855Z" fill="#92E3A9" stroke="#263238" stroke-width="0.5" stroke-linecap="round" stroke-linejoin="round"/>
<path d="M89.1677 317.94C59.9202 325.485 73.2966 344.974 39.302 333.205C38.6651 332.985 38.885 333.296 38.7257 333.425C38.5589 333.546 38.6272 333.394 38.6878 333.569C38.7485 333.743 38.4603 333.842 38.9987 334.024C72.9402 345.641 60.6861 326.987 89.3801 318.797C89.3194 318.509 89.2511 318.228 89.1753 317.933L89.1677 317.94Z" fill="#92E3A9" stroke="#263238" stroke-width="0.5" stroke-linecap="round" stroke-linejoin="round"/>
<path d="M89.4484 319.101C63.4539 326.069 69.399 344.117 38.7637 334.092C37.9675 333.834 38.3694 334.198 38.1722 334.312C37.9751 334.426 38.0433 334.267 38.1343 334.456C38.2253 334.646 37.7931 334.691 38.4755 334.919C73.3345 346.278 60.6861 326.987 89.3725 319.229C89.3195 318.941 89.5242 319.396 89.4332 319.108L89.4484 319.101Z" fill="#92E3A9" stroke="#263238" stroke-width="0.5" stroke-linecap="round" stroke-linejoin="round"/>
<path d="M89.556 319.525C64.3729 327.063 69.2942 345.178 38.2723 336.397C37.2561 336.109 37.9159 336.496 37.658 336.602C37.4002 336.708 37.4912 336.526 37.6277 336.723C37.7642 336.921 37.1196 336.921 38.0069 337.171C73.245 347.294 61.5217 328.026 89.4726 319.624C89.4271 319.343 89.6545 319.806 89.556 319.518V319.525Z" fill="#92E3A9" stroke="#263238" stroke-width="0.5" stroke-linecap="round" stroke-linejoin="round"/>
<path d="M89.829 321.065C89.7683 320.776 89.6925 320.488 89.6091 320.2C60.589 329.277 76.2099 341.819 37.0211 341.865C36.3538 341.865 36.6723 342.13 36.5282 342.251C36.3917 342.373 36.4751 342.304 36.4903 342.32C36.7633 342.585 36.2855 342.767 36.9983 342.759C76.3464 342.714 61.3776 329.444 89.829 321.057V321.065Z" fill="#92E3A9" stroke="#263238" stroke-width="0.5" stroke-linecap="round" stroke-linejoin="round"/>
<path d="M89.5471 320.124C89.5699 319.851 89.4864 319.571 89.3727 319.283C59.7157 328.435 75.9129 341.486 38.3241 338.657C35.4501 338.445 38.9762 338.907 37.452 339.044C37.3838 339.044 36.906 338.915 37.6492 339.105C38.3923 339.294 35.3667 339.332 38.362 339.559C75.8826 342.403 60.4512 328.974 89.5471 320.124Z" fill="#92E3A9" stroke="#263238" stroke-width="0.5" stroke-linecap="round" stroke-linejoin="round"/>
<path d="M88.6377 320.784C70.939 330.938 63.2878 344.761 43.155 343.594C23.0221 342.426 44.2924 343.927 38.5597 343.745C34.3739 343.609 37.4071 343.7 37.4298 343.707C48.3645 344.61 21.0354 343.207 42.7303 344.473C64.4252 345.732 70.6433 331.658 88.9638 321.648C90.2984 320.716 90.0861 319.245 88.6453 320.784H88.6377Z" fill="#92E3A9" stroke="#263238" stroke-width="0.5" stroke-linecap="round" stroke-linejoin="round"/>
<path d="M89.002 317.228C61.8322 323.734 71.6218 344.344 42.6321 333.372C41.9269 333.106 42.215 333.448 42.033 333.561C41.8435 333.675 41.9193 333.539 41.9951 333.721C42.0634 333.903 41.7373 333.963 42.3136 334.168C71.8645 345.042 62.3024 325.008 89.2144 318.084C89.1537 317.804 89.0854 317.516 89.0096 317.22L89.002 317.228Z" fill="#92E3A9" stroke="#263238" stroke-width="0.5" stroke-linecap="round" stroke-linejoin="round"/>
<path d="M92.9069 314.384L94.6889 319.684L89.9571 321.527L88.1523 316.242L92.9069 314.384Z" fill="#92E3A9" stroke="#263238" stroke-width="0.5" stroke-linecap="round" stroke-linejoin="round"/>
<path d="M54.0359 178.391C70.3924 182.971 85.4598 173.492 91.3138 178.482C97.6229 183.85 96.9631 185.602 99.2987 187.839C101.642 190.076 99.6703 187.96 100.231 188.271C100.793 188.582 100.732 188.719 100.315 188.173C99.9053 187.627 102.37 189.545 99.8902 187.278C97.4105 185.018 98.3129 183.297 91.602 177.761C85.3384 172.597 70.6502 182.046 54.2937 177.594C53.816 177.594 53.7629 177.875 54.0359 178.391Z" fill="white" stroke="#263238" stroke-miterlimit="10"/>
<path d="M54.1719 177.056C81.6829 184.821 80.0298 162.512 102.233 188.332C102.65 188.817 102.62 188.453 102.809 188.43C103.006 188.408 102.877 188.499 102.908 188.332C102.946 188.157 103.226 188.218 102.877 187.809C80.6516 162.133 81.7815 183.229 54.4145 176.252C54.3311 176.518 54.2477 176.783 54.1719 177.056Z" fill="white" stroke="#263238" stroke-miterlimit="10"/>
<path d="M54.498 175.972C81.8271 183.411 80.3863 162.337 103.09 187.862C103.621 188.453 103.461 187.96 103.681 187.96C103.901 187.96 103.765 188.059 103.78 187.862C103.795 187.665 104.174 187.831 103.719 187.323C80.6214 161.427 81.8954 182.485 54.7331 175.16C54.6345 175.418 54.5663 175.691 54.498 175.972Z" fill="white" stroke="#263238" stroke-miterlimit="10"/>
<path d="M54.6191 175.57C81.7207 182.106 80.8259 161.564 104.606 186.209C105.304 186.929 104.947 186.3 105.205 186.33C105.463 186.368 105.304 186.474 105.289 186.247C105.273 186.019 105.797 186.33 105.198 185.701C81.2051 160.631 81.7283 181.234 54.8618 174.789C54.7632 175.039 54.6798 175.297 54.6191 175.577V175.57Z" fill="white" stroke="#263238" stroke-miterlimit="10"/>
<path d="M55.2487 173.439C55.1577 173.704 55.0819 173.977 55.0137 174.25C83.0783 180.658 76.155 163.695 108.231 182.326C108.777 182.645 108.641 182.281 108.815 182.243C108.989 182.212 108.883 182.228 108.876 182.205C108.777 181.856 109.255 181.94 108.671 181.598C76.4659 162.883 82.5096 180.127 55.2412 173.431L55.2487 173.439Z" fill="white" stroke="#263238" stroke-miterlimit="10"/>
<path d="M55.0371 174.341C54.893 174.554 54.8248 174.827 54.7793 175.115C83.3975 181.757 76.2467 164.112 105.638 184.336C107.883 185.883 105.221 183.82 106.533 184.434C106.594 184.465 106.92 184.798 106.404 184.29C105.889 183.782 108.383 185.193 106.033 183.577C76.7017 163.376 83.0411 180.969 55.0295 174.341H55.0371Z" fill="white" stroke="#263238" stroke-miterlimit="10"/>
<path d="M56.0913 174.235C75.4052 174.364 88.1294 167.448 104.039 177.989C119.948 188.537 103.273 177.17 107.868 180.051C111.227 182.152 108.793 180.635 108.778 180.628C100.262 174.675 121.95 188.848 104.804 177.481C87.6593 166.114 75.9966 173.917 56.2354 173.371C54.8704 172.794 54.6354 172.954 56.0837 174.235H56.0913Z" fill="white" stroke="#263238" stroke-miterlimit="10"/>
<path d="M53.9746 177.716C79.2942 185.344 81.1141 163.824 99.5938 186.611C100.041 187.164 99.9654 186.747 100.178 186.739C100.382 186.739 100.261 186.808 100.291 186.626C100.322 186.444 100.618 186.55 100.246 186.102C81.2582 163.126 79.5368 184.07 54.2248 176.904C54.1414 177.162 54.058 177.428 53.9822 177.708L53.9746 177.716Z" fill="white" stroke="#263238" stroke-miterlimit="10"/>
<path d="M1.27276 230.675C1.84906 235.271 3.19125 238.016 3.94955 239.555C4.07088 239.813 4.17704 240.017 4.24529 240.184L7.40739 238.888C7.31639 238.668 7.1799 238.387 7.02066 238.053C1.7429 227.271 5.8908 213.371 7.44531 208.139C12.1923 192.23 21.5042 184.525 28.4805 180.855C36.3137 176.738 45.6711 175.373 53.5195 177.208L54.293 173.886C45.6711 171.877 35.4265 173.355 26.8881 177.837C19.3354 181.811 9.25763 190.114 4.16945 207.16C0.946684 217.974 0.620622 225.504 1.27276 230.675Z" fill="white" stroke="#263238" stroke-miterlimit="10"/>
<path d="M52.9729 173.258L51.9318 176.896C51.7106 177.669 52.1579 178.475 52.931 178.696L53.3465 178.815C54.1196 179.037 54.9256 178.589 55.1469 177.816L56.1879 174.178C56.4092 173.405 55.9618 172.599 55.1888 172.378L54.7732 172.259C54.0002 172.038 53.1941 172.485 52.9729 173.258Z" fill="white" stroke="#263238" stroke-miterlimit="10"/>
<path d="M53.0033 173.105C53.0033 173.105 49.5454 174.44 47.7559 176.214" stroke="#263238" stroke-miterlimit="10"/>
<path d="M47.7862 173.075C47.7862 173.075 44.7606 174.303 43.0469 176.533" stroke="#263238" stroke-miterlimit="10"/>
<path d="M42.7904 173.287C42.7904 173.287 39.5449 173.947 38.0586 177.208" stroke="#263238" stroke-miterlimit="10"/>
<path d="M36.61 174.083C36.61 174.083 33.0536 176.138 32.2422 179.02" stroke="#263238" stroke-miterlimit="10"/>
<path d="M30.1194 176.283C30.1194 176.283 27.1165 178.451 26.707 181.735" stroke="#263238" stroke-miterlimit="10"/>
<path d="M24.4914 179.27C24.4914 179.27 23.2478 181.553 23.2402 183.972" stroke="#263238" stroke-miterlimit="10"/>
<path d="M19.805 182.652C19.805 182.652 19.115 184.176 19.1757 187.452" stroke="#263238" stroke-miterlimit="10"/>
<path d="M15.2938 186.671C15.2938 186.671 14.9374 189.014 15.4151 191.957" stroke="#263238" stroke-miterlimit="10"/>
<path d="M11.3056 191.888C11.3056 191.888 11.0251 194.285 11.9502 197.09" stroke="#263238" stroke-miterlimit="10"/>
<path d="M8.07422 197.644C8.07422 197.644 8.27137 200.093 9.62114 202.224" stroke="#263238" stroke-miterlimit="10"/>
<path d="M-30.6055 193.041L-98.4277 255.919L-18.5865 261.705L58.1457 216.123L-30.6055 193.041Z" fill="#92E3A9" stroke="#263238" stroke-linecap="round" stroke-linejoin="round"/>
<path opacity="0.16" d="M-1.29688 224.525L43.4655 224.601L21.1184 238.122L-1.29688 224.525Z" fill="black"/>
<path d="M-62.5369 247.062L-58.9577 270.478L27.2911 256.328L22.893 231.843C22.3622 228.886 20.0569 226.58 17.1072 226.019C9.49385 224.594 -6.33183 222.683 -26.3282 226.103C-45.2629 229.341 -55.3103 235.885 -59.898 239.881C-61.953 241.671 -62.954 244.37 -62.5445 247.062H-62.5369Z" fill="#92E3A9"/>
<path opacity="0.16" d="M17.1068 226.027C14.5969 225.557 11.1845 225.034 7.02148 224.662L12.5495 258.748L27.2832 256.329L22.8851 231.843C22.3543 228.886 20.049 226.58 17.0993 226.019L17.1068 226.027Z" fill="black"/>
<path d="M-62.5369 247.062L-58.9577 270.478L27.2911 256.328L22.893 231.843C22.3622 228.886 20.0569 226.58 17.1072 226.019C9.49385 224.594 -6.33183 222.683 -26.3282 226.103C-45.2629 229.341 -55.3103 235.885 -59.898 239.881C-61.953 241.671 -62.954 244.37 -62.5445 247.062H-62.5369Z" stroke="#263238" stroke-linecap="round" stroke-linejoin="round"/>
<path d="M-14.778 270.108C9.02063 266.245 27.8209 260.08 27.2137 256.339C26.6064 252.598 6.8215 252.697 -16.9771 256.56C-40.7758 260.423 -59.5761 266.587 -58.9688 270.329C-58.3615 274.07 -38.5766 273.971 -14.778 270.108Z" fill="#92E3A9" stroke="#263238" stroke-linecap="round" stroke-linejoin="round"/>
<path d="M25.7504 256.92C26.2888 260.241 8.10481 265.951 -14.8565 269.675C-37.8177 273.398 -56.8738 273.731 -57.4122 270.418C-57.9506 267.096 -39.7666 261.386 -16.8053 257.663C6.16357 253.932 25.212 253.606 25.7504 256.92Z" fill="#92E3A9"/>
<path opacity="0.3" d="M25.7504 256.92C26.2888 260.241 8.10481 265.951 -14.8565 269.675C-37.8177 273.398 -56.8738 273.731 -57.4122 270.418C-57.9506 267.096 -39.7666 261.386 -16.8053 257.663C6.16357 253.932 25.212 253.606 25.7504 256.92Z" fill="black"/>
<path d="M25.7504 256.92C26.2888 260.241 8.10481 265.951 -14.8565 269.675C-37.8177 273.398 -56.8738 273.731 -57.4122 270.418C-57.9506 267.096 -39.7666 261.386 -16.8053 257.663C6.16357 253.932 25.212 253.606 25.7504 256.92Z" stroke="#263238" stroke-linecap="round" stroke-linejoin="round"/>
<path d="M196.557 25.7907C194.745 24.585 192.432 23.4475 189.756 22.1433C182.688 18.6854 173.892 14.3783 168.971 5.83984L168.387 6.17349C173.414 14.8939 182.309 19.2466 189.46 22.7499C192.114 24.0466 194.404 25.1689 196.186 26.3518C202.669 30.6741 205.619 35.004 205.649 35.0495L206.203 34.6779C206.082 34.4959 203.155 30.1964 196.557 25.7983V25.7907Z" fill="#263238"/>
<path d="M208.636 32.7974C208.69 33.1234 208.72 33.4267 208.735 33.7149L209.41 33.6846C209.395 33.3812 209.357 33.0552 209.304 32.7139H209.319C209.319 32.7139 209.296 32.6457 209.289 32.6154C208.599 28.4599 204.83 21.438 195.965 13.6807C186.1 5.05122 187.465 -0.764928 187.48 -0.825591L186.828 -1C186.797 -0.878672 186.433 0.607593 187.252 3.14031C186.487 1.47964 186.1 0.387686 186.092 0.357354L185.455 0.57726C185.486 0.660673 188.526 9.31286 194.972 15.6598C195.958 16.6304 196.898 17.5176 197.785 18.3518C197.831 18.3897 197.869 18.4276 197.914 18.4731C189.505 11.747 186.282 3.46638 186.251 3.38296L185.622 3.61804C185.645 3.68628 187.503 8.45598 192.037 13.7262C185.865 7.39436 183.999 -0.0521271 183.984 -0.13554L183.332 0.0237027C183.347 0.0767837 184.037 2.85974 185.963 6.47682C184.098 3.71662 182.809 1.51755 182.778 1.47205L182.202 1.81329C182.263 1.91187 188.011 11.6636 192.871 16.0996C193.235 16.4333 193.599 16.7821 193.956 17.1385C193.031 16.5849 192.113 16.0162 191.203 15.4323C184.06 8.31949 181.36 0.979159 181.33 0.895746L180.701 1.12324C180.731 1.19907 182.907 7.13654 188.519 13.5366C182.399 8.54698 179.669 0.979159 179.639 0.895746L179.002 1.11565C179.032 1.20665 182.308 10.2911 189.732 15.2807C190.073 15.5082 190.43 15.7281 190.779 15.9556C191.279 16.4484 191.802 16.9489 192.341 17.4342C190.854 16.4409 189.33 15.3792 187.92 14.3328C184.045 10.3745 181.406 6.48441 181.36 6.40858L180.807 6.78014C180.951 6.99246 182.316 9.00954 184.477 11.5726C184.196 11.3223 183.931 11.0797 183.688 10.837C179.207 6.45407 179.23 3.17064 179.23 3.13273H178.896L178.562 3.10998C178.562 3.20097 178.54 4.57349 179.662 6.70431C177.683 3.94411 176.773 2.14694 176.758 2.12419L176.159 2.42751C176.181 2.47301 178.684 7.41711 184.485 13.6352C184.636 13.802 184.803 13.9385 184.955 14.0977C179.268 9.12328 177.213 4.73274 177.19 4.67965L176.576 4.96023C176.598 5.00572 178.115 8.25882 182.126 12.3536C176.09 7.43228 175.946 4.32325 175.946 4.29292H175.271C175.271 4.437 175.355 7.91001 182.293 13.3546C184.166 14.8257 185.918 16.0238 187.579 17.0627C188.003 17.3736 188.435 17.6845 188.89 17.9954C188.011 17.6086 187.222 17.2826 186.547 17.0172C178.615 13.9309 175.112 5.52137 175.074 5.43037L174.452 5.68061C174.483 5.74886 176.553 10.7233 181.118 14.5299C180.375 14.0295 179.639 13.5214 178.919 13.0058C178.426 12.5508 177.971 12.0806 177.569 11.5953C172.868 5.9536 171.867 4.62657 171.851 4.61141L171.313 5.01331C171.351 5.0588 172.193 6.1735 176.037 10.8067C173.846 9.03229 171.92 7.18962 170.577 5.35454L170.039 5.74886C170.517 6.40099 171.078 7.05313 171.677 7.70526L171.222 8.10716C171.29 8.19058 178.456 16.1527 186.168 19.9518C191.59 22.6286 197.27 25.6845 201.448 29.1272C201.903 29.6201 202.161 29.931 202.168 29.9386L202.282 29.84C203.048 30.5149 203.761 31.2049 204.39 31.9101C205.687 33.6542 206.581 34.9661 206.604 35.004L206.953 34.7917L207.203 34.7159C207.021 34.1395 206.809 33.5784 206.566 33.0324C206.976 33.7983 207.196 34.2533 207.203 34.276L207.613 34.1092L207.711 34.094C207.749 34.2533 207.787 34.4049 207.825 34.5718L208.477 34.4277C208.371 33.9272 208.25 33.4495 208.136 32.9869L208.363 32.9111C208.341 32.8504 208.121 32.2211 207.628 31.2049C207.256 30.0068 206.839 28.93 206.392 27.9518C207.332 29.3698 208.098 30.9699 208.644 32.8049L208.636 32.7974ZM195.389 23.1897C194.828 22.8333 194.07 22.3859 193.19 21.8779C194.79 22.621 196.147 23.2807 197.034 23.8646C198.301 24.6987 199.855 26.3139 201.334 28.058C200.068 26.7689 197.99 24.8428 195.389 23.1973V23.1897ZM196.223 21.9385C197.656 22.7575 198.976 23.5992 200.159 24.5622C200.363 24.8428 200.553 25.1082 200.727 25.3584C199.294 24.0769 197.755 22.9395 196.216 21.9309L196.223 21.9385ZM195.912 18.2153C195.988 18.2911 196.056 18.3669 196.132 18.4428C196.117 18.4428 196.109 18.4276 196.094 18.42C196.034 18.3518 195.973 18.2835 195.905 18.2153H195.912ZM197.876 20.3082C198.104 20.566 198.324 20.8314 198.543 21.0892C198.437 21.0361 198.339 20.9907 198.233 20.9376C198.013 20.6646 197.785 20.384 197.55 20.1034C197.656 20.1717 197.77 20.2399 197.876 20.3082ZM196.246 20.7632C196.246 20.7632 196.276 20.7859 196.291 20.7935C196.398 20.8845 196.504 20.9831 196.61 21.0741C196.17 20.8542 195.738 20.6115 195.313 20.3537C195.624 20.4902 195.943 20.6267 196.246 20.7632ZM192.219 18.2153C192.052 18.0788 191.878 17.9499 191.711 17.8134C191.999 18.0105 192.288 18.2001 192.576 18.3897C192.454 18.3366 192.341 18.2759 192.219 18.2153ZM195.518 14.1811C200.598 18.6248 203.965 22.803 206.035 26.3139C205.596 25.7983 204.989 25.0021 204.39 24.2286C202.411 21.658 199.423 17.7755 196.314 15.0228C194.009 12.983 192.5 11.4285 191.393 10.056C192.492 11.3451 193.85 12.7252 195.518 14.1887V14.1811ZM195.45 15.1745C195.336 15.0608 195.222 14.947 195.116 14.8333C195.366 15.0608 195.616 15.2882 195.882 15.5233C196.693 16.2437 197.505 17.0475 198.286 17.8892C198.278 17.8816 198.263 17.8665 198.255 17.8589C197.376 17.0248 196.435 16.1451 195.457 15.1745H195.45ZM194.456 18.2153C194.858 18.4579 195.26 18.7006 195.662 18.9432C196.056 19.3906 196.451 19.838 196.822 20.2854C196.762 20.2551 196.701 20.2324 196.64 20.202C196.018 19.656 195.366 19.1025 194.676 18.5489C194.38 18.3139 194.1 18.0712 193.819 17.8361C194.032 17.965 194.244 18.094 194.456 18.2229V18.2153ZM183.673 11.7546C184.682 12.6797 185.948 13.6958 187.328 14.7271C187.95 15.3641 188.595 16.001 189.277 16.6229C187.745 15.6826 186.267 14.5754 184.955 13.1726C184.507 12.6873 184.083 12.2171 183.673 11.7546ZM189.823 18.4124C189.823 18.4124 189.838 18.42 189.846 18.4276C189.846 18.4276 189.831 18.4276 189.823 18.42V18.4124ZM185.16 17.1461C185.524 17.3205 185.903 17.4873 186.289 17.639C188.42 18.4731 191.795 19.9518 195.222 22.0978C194.282 21.6352 193.19 21.1347 192.022 20.6039C190.346 19.838 188.443 18.966 186.555 17.9954C186.1 17.7224 185.63 17.4342 185.167 17.1461H185.16ZM173.459 9.48727C174.968 10.875 176.682 12.2323 178.486 13.529C180.602 15.4627 183.415 17.1385 186.229 18.5793C188.124 19.7243 189.922 20.7556 191.461 21.6428C192.932 22.4921 194.198 23.22 195.033 23.7509C195.776 24.221 196.473 24.7215 197.125 25.2144C193.789 23.0836 190.066 21.1347 186.456 19.3527C181.118 16.7214 176.037 12.0503 173.467 9.47968L173.459 9.48727ZM200.318 25.8893C202.252 27.6258 203.973 29.6125 205.224 31.8647C205.133 31.7585 205.05 31.6523 204.959 31.5537C203.67 29.8172 201.979 27.6561 200.318 25.8968V25.8893Z" fill="#263238"/>
<path d="M160.167 92.3692C155.61 92.3692 152.774 91.3986 151.181 90.8451C150.916 90.7541 150.704 90.6782 150.529 90.6327L151.409 87.3948C151.636 87.4555 151.925 87.554 152.273 87.6754C163.443 91.5048 176.493 85.7569 181.4 83.5957C196.338 77.0213 202.715 66.989 205.43 59.7397C208.486 51.5955 208.668 42.2988 205.923 34.8675L209.07 33.7073C212.088 41.8741 211.898 52.0429 208.569 60.9226C205.62 68.7786 198.75 79.6222 182.749 86.6744C172.603 91.1484 165.293 92.3768 160.167 92.3768V92.3692Z" fill="#263238"/>
<path d="M205.169 33.3541L208.551 31.91C209.291 31.5944 210.147 31.9381 210.462 32.6773L210.614 33.033C210.93 33.7722 210.586 34.6281 209.847 34.9437L206.464 36.3878C205.725 36.7034 204.869 36.3597 204.554 35.6205L204.402 35.2648C204.086 34.5255 204.43 33.6697 205.169 33.3541Z" fill="#263238"/>
<path d="M149.482 45.6125L57.7812 70.9321L98.4943 152.025L186.775 131.497L149.482 45.6125Z" fill="#92E3A9" stroke="#263238" stroke-linecap="round" stroke-linejoin="round"/>
<path opacity="0.16" d="M153.994 89.8517L179.617 132.316L132.762 143.661L153.994 89.8517Z" fill="black"/>
<path d="M137.115 75.2696C118.802 66.2079 98.1158 70.6667 90.9119 85.2336L82.9043 98.3825L88.9631 101.385C91.0408 111.842 99.0333 122.094 111.014 128.017C122.996 133.947 135.985 134.083 145.562 129.397L149.21 131.202L155.117 121.503C155.906 120.426 156.611 119.274 157.218 118.053C164.429 103.486 155.428 84.3312 137.115 75.2696Z" fill="#92E3A9"/>
<path opacity="0.16" d="M154.169 90.0413L122.449 131.914C130.813 133.56 138.995 132.612 145.562 129.397L149.21 131.202L155.117 121.503C155.905 120.426 156.611 119.274 157.217 118.053C161.547 109.31 160.023 98.9134 154.161 90.0413H154.169Z" fill="black"/>
<path d="M137.115 75.2696C118.802 66.2079 98.1158 70.6667 90.9119 85.2336L82.9043 98.3825L88.9631 101.385C91.0408 111.842 99.0333 122.094 111.014 128.017C122.996 133.947 135.985 134.083 145.562 129.397L149.21 131.202L155.117 121.503C155.906 120.426 156.611 119.274 157.218 118.053C164.429 103.486 155.428 84.3312 137.115 75.2696Z" stroke="#263238" stroke-linecap="round" stroke-linejoin="round"/>
<path d="M149.198 131.185C156.407 116.618 147.408 97.4633 129.099 88.4023C110.789 79.3412 90.1021 83.8049 82.893 98.3722C75.684 112.939 84.6826 132.094 102.992 141.155C121.302 150.216 141.988 145.752 149.198 131.185Z" fill="#92E3A9"/>
<path opacity="0.3" d="M149.198 131.185C156.407 116.618 147.408 97.4633 129.099 88.4023C110.789 79.3412 90.1021 83.8049 82.893 98.3722C75.684 112.939 84.6826 132.094 102.992 141.155C121.302 150.216 141.988 145.752 149.198 131.185Z" fill="black"/>
<path d="M149.198 131.185C156.407 116.618 147.408 97.4633 129.099 88.4023C110.789 79.3412 90.1021 83.8049 82.893 98.3722C75.684 112.939 84.6826 132.094 102.992 141.155C121.302 150.216 141.988 145.752 149.198 131.185Z" stroke="#263238" stroke-linecap="round" stroke-linejoin="round"/>
<path d="M147.138 130.166C153.898 116.507 145.457 98.5452 128.284 90.047C111.112 81.5488 91.7117 85.7323 84.9522 99.3913C78.1926 113.05 86.6337 131.012 103.806 139.51C120.978 148.009 140.379 143.825 147.138 130.166Z" fill="#92E3A9"/>
<path opacity="0.16" d="M147.138 130.166C153.898 116.507 145.457 98.5452 128.284 90.047C111.112 81.5488 91.7117 85.7323 84.9522 99.3913C78.1926 113.05 86.6337 131.012 103.806 139.51C120.978 148.009 140.379 143.825 147.138 130.166Z" fill="black"/>
<path d="M128.295 90.0565C114.494 83.2242 99.2521 84.5967 90.289 92.4906C88.5449 105.01 96.9848 119.061 111.703 126.341C125.034 132.938 139.662 132.074 148.906 125.173C151.779 112.404 143.431 97.5485 128.295 90.0565Z" fill="#92E3A9"/>
<path opacity="0.3" d="M128.295 90.0565C114.494 83.2242 99.2521 84.5967 90.289 92.4906C88.5449 105.01 96.9848 119.061 111.703 126.341C125.034 132.938 139.662 132.074 148.906 125.173C151.779 112.404 143.431 97.5485 128.295 90.0565Z" fill="black"/>
<path d="M147.138 130.166C153.898 116.507 145.457 98.5452 128.284 90.047C111.112 81.5488 91.7117 85.7323 84.9522 99.3913C78.1926 113.05 86.6337 131.012 103.806 139.51C120.978 148.009 140.379 143.825 147.138 130.166Z" stroke="#263238" stroke-linecap="round" stroke-linejoin="round"/>
<path d="M-70.2637 113.276L-55.856 140.332C-55.856 140.332 -42.0322 148.863 -2.03198 123.566C37.9683 98.2689 36.4972 88.5703 36.4972 88.5703L18.8516 55.0383L-70.2637 113.276Z" fill="#263238"/>
<path opacity="0.1" d="M-70.2637 113.276L-55.856 140.332C-55.856 140.332 -42.0322 148.863 -2.03198 123.566C37.9683 98.2689 36.4972 88.5703 36.4972 88.5703L18.8516 55.0383L-70.2637 113.276Z" fill="white"/>
<path d="M-37.9901 44.6117C-45.1863 51.3985 -110.612 104.373 -126.4 117.151C-127.56 118.091 -126.916 119.964 -125.422 119.994L-39.9616 121.488C-38.5436 121.511 -37.1787 120.965 -36.1702 119.971L60.9906 23.1898C61.893 22.295 61.0513 20.7708 59.8077 21.0665L-36.1853 43.6562C-36.8602 43.8155 -37.482 44.1416 -37.9901 44.6193V44.6117Z" fill="#263238"/>
</g>
<defs>
<clipPath id="clip0_1_2068">
<rect width="353.64" height="345.746" fill="white" transform="translate(-127 -1)"/>
</clipPath>
</defs>
</svg>
