<svg width="202" height="284" viewBox="0 0 202 284" fill="none" xmlns="http://www.w3.org/2000/svg">
<g clip-path="url(#clip0_1_2700)">
<path d="M149.718 124.068H145.047V85.7721H149.718C149.718 85.7721 157.422 100.18 157.422 104.965C157.422 109.751 149.718 124.058 149.718 124.058V124.068Z" fill="#332F2E"/>
<path d="M149.142 127.587C148.222 127.587 147.292 127.225 146.604 126.522C145.239 125.124 145.28 122.902 146.685 121.545C156.068 112.496 156.29 97.5556 147.191 88.2253C145.826 86.8278 145.866 84.6058 147.272 83.2485C148.677 81.9013 150.911 81.9314 152.276 83.329C164.085 95.4442 163.792 114.849 151.609 126.602C150.922 127.266 150.032 127.597 149.142 127.597V127.587Z" fill="#4B7062"/>
<path d="M147.525 85.7721H-21.2285V124.169H147.525V85.7721Z" fill="#F1E3B4"/>
<path d="M149.729 89.2508H-26.992C-28.9231 89.2508 -30.4902 87.6924 -30.4902 85.7721C-30.4902 83.8517 -28.9231 82.2933 -26.992 82.2933H149.729C151.66 82.2933 153.227 83.8517 153.227 85.7721C153.227 87.6924 151.66 89.2508 149.729 89.2508Z" fill="#4B7062"/>
<path d="M149.142 127.648H-26.992C-28.9231 127.648 -30.4902 126.089 -30.4902 124.169C-30.4902 122.249 -28.9231 120.69 -26.992 120.69H149.142C151.073 120.69 152.64 122.249 152.64 124.169C152.64 126.089 151.073 127.648 149.142 127.648Z" fill="#4B7062"/>
<path d="M119.873 95.3337H-15.971C-16.2541 95.3337 -16.4766 95.1125 -16.4766 94.831C-16.4766 94.5494 -16.2541 94.3282 -15.971 94.3282H119.873C120.156 94.3282 120.378 94.5494 120.378 94.831C120.378 95.1125 120.156 95.3337 119.873 95.3337Z" fill="#D9A957"/>
<path d="M122.592 101.557H-13.2523C-13.5354 101.557 -13.7578 101.336 -13.7578 101.054C-13.7578 100.773 -13.5354 100.552 -13.2523 100.552H122.592C122.875 100.552 123.097 100.773 123.097 101.054C123.097 101.336 122.875 101.557 122.592 101.557Z" fill="#D9A957"/>
<path d="M141.74 108.052H5.88638C5.60329 108.052 5.38086 107.831 5.38086 107.549C5.38086 107.268 5.60329 107.047 5.88638 107.047H141.73C142.013 107.047 142.236 107.268 142.236 107.549C142.236 107.831 142.013 108.052 141.73 108.052H141.74Z" fill="#D9A957"/>
<path d="M151.66 242.084H-17.0938V280.481H151.66V242.084Z" fill="#F1E3B4"/>
<path d="M157.424 283.96H-19.2967C-21.2278 283.96 -22.7949 282.401 -22.7949 280.481C-22.7949 278.561 -21.2278 277.002 -19.2967 277.002H157.424C159.355 277.002 160.922 278.561 160.922 280.481C160.922 282.401 159.355 283.96 157.424 283.96Z" fill="#C1D4CB"/>
<path d="M157.423 245.573H-18.7108C-20.6419 245.573 -22.209 244.015 -22.209 242.094C-22.209 240.174 -20.6419 238.615 -18.7108 238.615H157.423C159.354 238.615 160.922 240.174 160.922 242.094C160.922 244.015 159.354 245.573 157.423 245.573Z" fill="#C1D4CB"/>
<path d="M146.402 271.925H10.5583C10.2752 271.925 10.0527 271.704 10.0527 271.422C10.0527 271.141 10.2752 270.919 10.5583 270.919H146.402C146.685 270.919 146.908 271.141 146.908 271.422C146.908 271.704 146.685 271.925 146.402 271.925Z" fill="#D9A957"/>
<path d="M135.463 260.031H-0.390962C-0.674054 260.031 -0.896484 259.81 -0.896484 259.528C-0.896484 259.247 -0.674054 259.025 -0.390962 259.025H135.453C135.736 259.025 135.959 259.247 135.959 259.528C135.959 259.81 135.736 260.031 135.453 260.031H135.463Z" fill="#D9A957"/>
<path d="M124.543 254.169H-11.3109C-11.594 254.169 -11.8164 253.948 -11.8164 253.667C-11.8164 253.385 -11.594 253.164 -11.3109 253.164H124.533C124.816 253.164 125.039 253.385 125.039 253.667C125.039 253.948 124.816 254.169 124.533 254.169H124.543Z" fill="#D9A957"/>
<path d="M173.792 238.736H-4.84941C-7.92299 238.736 -10.4102 236.263 -10.4102 233.206C-10.4102 230.15 -7.92299 227.677 -4.84941 227.677H173.802C176.876 227.677 179.363 230.15 179.363 233.206C179.363 236.263 176.876 238.736 173.802 238.736H173.792Z" fill="#0F3827"/>
<path d="M188.816 178.974H182.973V131.026H188.816C188.816 131.026 198.462 149.073 198.462 155.065C198.462 161.058 188.816 178.974 188.816 178.974Z" fill="#332F2E"/>
<path d="M188.087 182.493C187.167 182.493 186.237 182.131 185.55 181.427C184.185 180.03 184.225 177.808 185.631 176.451C191.495 170.79 194.791 163.209 194.922 155.095C195.043 146.982 191.98 139.3 186.298 133.469C184.933 132.071 184.973 129.849 186.379 128.492C187.784 127.145 190.018 127.175 191.383 128.573C198.39 135.751 202.161 145.212 202.009 155.206C201.858 165.2 197.793 174.54 190.575 181.498C189.887 182.161 188.997 182.493 188.108 182.493H188.087Z" fill="#0F3827"/>
<path d="M186.37 131.026H-25.2422V179.105H186.37V131.026Z" fill="#F1E3B4"/>
<path d="M188.826 134.545H-32.4613C-34.4127 134.545 -36 132.966 -36 131.026C-36 129.086 -34.4127 127.507 -32.4613 127.507H188.826C190.777 127.507 192.365 129.086 192.365 131.026C192.365 132.966 190.777 134.545 188.826 134.545Z" fill="#0F3827"/>
<path d="M188.088 182.614H-32.4613C-34.4127 182.614 -36 181.035 -36 179.095C-36 177.154 -34.4127 175.576 -32.4613 175.576H188.088C190.039 175.576 191.627 177.154 191.627 179.095C191.627 181.035 190.039 182.614 188.088 182.614Z" fill="#0F3827"/>
<path d="M151.448 142.87H-18.6703C-18.9534 142.87 -19.1758 142.648 -19.1758 142.367C-19.1758 142.085 -18.9534 141.864 -18.6703 141.864H151.438C151.721 141.864 151.944 142.085 151.944 142.367C151.944 142.648 151.721 142.87 151.438 142.87H151.448Z" fill="#D9A957"/>
<path d="M160.204 162.807H-9.90463C-10.1877 162.807 -10.4102 162.586 -10.4102 162.304C-10.4102 162.023 -10.1877 161.802 -9.90463 161.802H160.204C160.487 161.802 160.709 162.023 160.709 162.304C160.709 162.586 160.487 162.807 160.204 162.807Z" fill="#D9A957"/>
<path d="M157.756 169.201H-12.3519C-12.635 169.201 -12.8574 168.98 -12.8574 168.699C-12.8574 168.417 -12.635 168.196 -12.3519 168.196H157.756C158.04 168.196 158.262 168.417 158.262 168.699C158.262 168.98 158.04 169.201 157.756 169.201Z" fill="#D9A957"/>
<path d="M166.099 224.228H161.428V185.932H166.099C166.099 185.932 173.803 200.339 173.803 205.125C173.803 209.911 166.099 224.218 166.099 224.218V224.228Z" fill="#332F2E"/>
<path d="M165.523 227.747C164.603 227.747 163.673 227.385 162.985 226.681C161.62 225.284 161.661 223.062 163.066 221.704C172.439 212.656 172.671 197.715 163.582 188.385C162.217 186.987 162.257 184.765 163.663 183.408C165.068 182.051 167.302 182.091 168.667 183.488C180.476 195.604 180.183 215.008 168 226.762C167.313 227.425 166.423 227.757 165.533 227.757L165.523 227.747Z" fill="#B9C8C1"/>
<path d="M163.904 185.932H-4.84961V224.328H163.904V185.932Z" fill="#F1E3B4"/>
<path d="M166.109 189.451H-10.6117C-12.563 189.451 -14.1504 187.872 -14.1504 185.932C-14.1504 183.991 -12.563 182.413 -10.6117 182.413H166.109C168.06 182.413 169.647 183.991 169.647 185.932C169.647 187.872 168.06 189.451 166.109 189.451Z" fill="#B9C8C1"/>
<path d="M165.522 227.847H-10.6117C-12.563 227.847 -14.1504 226.269 -14.1504 224.329C-14.1504 222.388 -12.563 220.81 -10.6117 220.81H165.522C167.474 220.81 169.061 222.388 169.061 224.329C169.061 226.269 167.474 227.847 165.522 227.847Z" fill="#B9C8C1"/>
<path d="M136.252 195.493H0.407866C0.124774 195.493 -0.0976562 195.272 -0.0976562 194.991C-0.0976562 194.709 0.124774 194.488 0.407866 194.488H136.252C136.535 194.488 136.757 194.709 136.757 194.991C136.757 195.272 136.535 195.493 136.252 195.493Z" fill="#D9A957"/>
<path d="M138.973 201.717H3.12857C2.84548 201.717 2.62305 201.496 2.62305 201.214C2.62305 200.932 2.84548 200.711 3.12857 200.711H138.973C139.256 200.711 139.478 200.932 139.478 201.214C139.478 201.496 139.256 201.717 138.973 201.717Z" fill="#D9A957"/>
<path d="M158.111 208.212H22.2672C21.9841 208.212 21.7617 207.991 21.7617 207.709C21.7617 207.427 21.9841 207.206 22.2672 207.206H158.111C158.394 207.206 158.617 207.427 158.617 207.709C158.617 207.991 158.394 208.212 158.111 208.212Z" fill="#D9A957"/>
<path d="M65.2371 209.247L57.351 199.193L49.4648 209.247V182.634C49.4648 182.543 49.5356 182.463 49.6266 182.453C50.3141 182.362 53.1552 182.031 57.351 182.031C61.9614 182.031 64.4688 182.362 65.0855 182.453C65.1765 182.463 65.2371 182.543 65.2371 182.634V209.247Z" fill="#0F3827"/>
<path d="M156.14 32.1733L128.851 37.6127L13.4811 44.5902L-19.5801 32.0426L71.3837 2.3728L156.14 32.1733Z" fill="#273A53"/>
<path d="M156.827 27.7194L72.7588 0.261442C72.7082 0.231279 72.6577 0.221225 72.6071 0.201117C72.5262 0.170954 72.4454 0.130737 72.3645 0.110629C72.2937 0.0905208 72.2229 0.0804666 72.1522 0.0603583C72.0713 0.0402499 72.0005 0.0301958 71.9196 0.0201416C71.8387 0.0201416 71.768 0.0201416 71.6871 0.0201416C71.6163 0.0201416 71.5354 0.0201416 71.4646 0.0201416C71.3736 0.0201416 71.2928 0.0503041 71.2018 0.0603583C71.1512 0.0704124 71.1007 0.0704124 71.0501 0.0905208L-20.2068 27.4077C-21.4706 27.7495 -22.2087 29.0566 -21.8649 30.3133C-21.5717 31.359 -20.6213 32.0427 -19.58 32.0427C-19.3676 32.0427 -19.1553 32.0125 -18.9531 31.9622L71.3939 4.8763L154.633 31.912C154.987 32.0929 155.361 32.1834 155.725 32.1834C156.585 32.1834 157.414 31.7209 157.828 30.9166C158.435 29.7604 157.98 28.3327 156.817 27.7294L156.827 27.7194Z" fill="#0F3827"/>
<path d="M57.8362 9.69221V4.75562L54.2773 6.02244V10.959L57.8362 9.69221Z" fill="#C2D4CC"/>
<path d="M128.852 81.0568C128.852 81.0568 94.3252 84.7667 71.3947 84.7667C44.4201 84.7667 13.4922 81.0568 13.4922 81.0568V32.4248C13.4922 32.4248 39.3749 22.9537 71.3947 22.9537C101.676 22.9537 128.852 32.4248 128.852 32.4248V81.0568Z" fill="#39567D"/>
<path d="M40.5781 83.5501C23.8453 82.4542 13.4922 81.0567 13.4922 81.0567V32.4247C13.4922 32.4247 24.5935 27.5082 41.2454 24.1099L40.5882 83.54L40.5781 83.5501Z" fill="#273A53"/>
<path d="M71.4958 85.5911C34.0872 85.5911 17.9509 82.967 13.4922 82.0621V77.8796C15.7367 78.3823 31.2562 81.5091 71.4958 81.5091C92.4851 81.5091 123.504 78.3923 128.852 77.8394V81.9515C122.402 82.6151 92.1717 85.6012 71.4958 85.6012V85.5911Z" fill="#C2D4CC"/>
<path d="M71.3839 86.7775C27.7877 86.7775 13.542 83.158 12.9657 83.0072C11.8839 82.7257 11.247 81.6197 11.5301 80.5439C11.8132 79.4681 12.9253 78.8347 14.0071 79.1162C14.1487 79.1565 28.5156 82.7558 71.394 82.7558C93.9505 82.7558 128.296 79.0961 128.639 79.066C129.741 78.9453 130.742 79.7396 130.864 80.8456C130.985 81.9515 130.176 82.9368 129.074 83.0575C128.73 83.0977 94.1729 86.7775 71.394 86.7775H71.3839Z" fill="#0F3827"/>
<path d="M57.259 28.1718C56.9052 27.1362 56.5008 25.9699 56.5008 25.3365V5.41919C56.5008 4.44394 55.702 3.64966 54.7213 3.64966C53.7406 3.64966 52.9419 4.44394 52.9419 5.41919V25.3365C52.9419 25.3365 52.9419 25.3868 52.9419 25.4169C52.9217 26.1408 52.6082 27.6791 52.3251 29.0565C51.9814 30.7054 51.668 32.2638 51.668 33.1285C51.668 33.6211 52.0623 34.0132 52.5577 34.0132C53.0531 34.0132 53.4474 33.6211 53.4474 33.1285C53.4474 32.485 53.7406 31.0272 54.0136 29.6698C54.0136 29.6698 54.0136 29.6899 54.0136 29.7C54.1046 31.4293 54.2057 33.219 54.2057 33.973C54.2057 34.4657 54.6 34.8578 55.0954 34.8578C55.5908 34.8578 55.9851 34.4657 55.9851 33.973C55.9851 33.1687 55.8941 31.4394 55.793 29.6095C55.793 29.5291 55.793 29.4486 55.7829 29.3682C56.066 30.2228 56.3289 31.0774 56.3289 31.5801C56.3289 32.0828 56.7232 32.4649 57.2186 32.4649C57.714 32.4649 58.1083 32.0728 58.1083 31.5801C58.1083 30.6551 57.6938 29.4486 57.259 28.1718Z" fill="#C2D4CC"/>
<path d="M71.1618 62.1649C70.8787 62.1649 70.6562 61.9437 70.6562 61.6622V46.3899C70.6562 46.1084 70.8787 45.8872 71.1618 45.8872C71.4449 45.8872 71.6673 46.1084 71.6673 46.3899V61.6622C71.6673 61.9437 71.4449 62.1649 71.1618 62.1649Z" fill="#273A53"/>
</g>
<defs>
<clipPath id="clip0_1_2700">
<rect width="238" height="284" fill="white" transform="translate(-36)"/>
</clipPath>
</defs>
</svg>
