<svg width="20" height="20" viewBox="0 0 20 20" fill="none" xmlns="http://www.w3.org/2000/svg">
<g id="counting_6984312 1">
<path id="Vector" d="M14.5642 14.6622C14.5659 14.744 14.5995 14.8219 14.6579 14.8792C14.7164 14.9365 14.7949 14.9685 14.8767 14.9685C14.9586 14.9685 15.0371 14.9365 15.0955 14.8792C15.154 14.8219 15.1876 14.744 15.1892 14.6622V5.49354C15.1893 5.45237 15.1812 5.4116 15.1654 5.37358C15.1496 5.33556 15.1265 5.30104 15.0973 5.27201C15.0681 5.24299 15.0334 5.22003 14.9953 5.20447C14.9572 5.18891 14.9164 5.18105 14.8752 5.18135C14.8133 5.18902 3.9712 5.17648 3.91433 5.18082C3.48569 5.16905 3.0792 4.98776 2.78403 4.67672C2.48885 4.36567 2.32908 3.95026 2.33974 3.52159C2.35798 3.10194 2.53588 2.70512 2.83706 2.41233C3.13824 2.11954 3.53992 1.95291 3.95991 1.94653C4.19766 1.94988 14.8689 1.94467 14.8936 1.94596C14.9345 1.94356 14.9746 1.93311 15.0116 1.9152C15.0485 1.8973 15.0815 1.87229 15.1088 1.84161C15.1361 1.81093 15.157 1.77518 15.1705 1.73641C15.1839 1.69763 15.1896 1.65658 15.1872 1.61561C15.1792 1.5367 15.1429 1.46337 15.0849 1.40927C15.0269 1.35517 14.9512 1.32398 14.8719 1.32151C14.6038 1.32812 3.95867 1.31605 3.90732 1.32203C3.32318 1.3435 2.76967 1.58881 2.36142 2.00715C1.95317 2.4255 1.72145 2.98483 1.71425 3.56932C1.72159 3.87789 1.70822 16.4255 1.71474 16.4803C1.7343 17.0646 1.97881 17.6188 2.39721 18.0271C2.8156 18.4354 3.37556 18.6663 3.96015 18.6716C4.11214 18.6612 10.522 18.6798 10.5451 18.6711C10.5861 18.6687 10.6262 18.6582 10.6631 18.6403C10.7001 18.6224 10.7331 18.5974 10.7604 18.5668C10.7876 18.5361 10.8086 18.5003 10.822 18.4616C10.8355 18.4228 10.8412 18.3817 10.8387 18.3408C10.8312 18.2619 10.7952 18.1885 10.7374 18.1344C10.6796 18.0802 10.604 18.049 10.5248 18.0467C10.3562 18.046 3.95478 18.0478 3.91587 18.0461C3.49626 18.0282 3.09934 17.8507 2.80628 17.5499C2.51321 17.249 2.34615 16.8476 2.33924 16.4276C2.36781 16.2547 2.27725 4.92814 2.37451 5.14923C2.8004 5.56153 3.36714 5.79643 3.95982 5.80631C4.17203 5.80917 14.7358 5.8012 14.5642 5.80899L14.5642 14.6622Z" fill="black" stroke="black" stroke-width="0.2"/>
<path id="Vector_2" d="M4.2786 3.25781C4.19652 3.25903 4.11822 3.29249 4.06061 3.35096C4.003 3.40944 3.9707 3.48823 3.9707 3.57031C3.9707 3.6524 4.003 3.73119 4.06061 3.78966C4.11822 3.84814 4.19652 3.8816 4.2786 3.88281H13.928C14.01 3.88159 14.0883 3.84813 14.1459 3.78966C14.2036 3.73118 14.2358 3.65239 14.2358 3.5703C14.2358 3.48822 14.2035 3.40943 14.1459 3.35096C14.0883 3.29248 14.01 3.25903 13.9279 3.25781H4.2786Z" fill="black" stroke="black" stroke-width="0.2"/>
<path id="Vector_3" d="M12.3027 8.38281C12.3027 8.34177 12.2946 8.30112 12.2789 8.2632C12.2632 8.22527 12.2402 8.19081 12.2112 8.16179C12.1822 8.13277 12.1477 8.10975 12.1098 8.09405C12.0719 8.07836 12.0312 8.07029 11.9902 8.07031H4.91406C4.83118 8.07031 4.7517 8.10324 4.69309 8.16184C4.63449 8.22045 4.60156 8.29993 4.60156 8.38281C4.60156 8.46569 4.63449 8.54518 4.69309 8.60378C4.7517 8.66239 4.83118 8.69531 4.91406 8.69531H11.9902C12.0312 8.69534 12.0719 8.68727 12.1098 8.67157C12.1477 8.65588 12.1822 8.63286 12.2112 8.60384C12.2402 8.57481 12.2632 8.54035 12.2789 8.50243C12.2946 8.4645 12.3027 8.42386 12.3027 8.38281Z" fill="black" stroke="black" stroke-width="0.2"/>
<path id="Vector_4" d="M6.19903 10.6172C6.11721 10.6188 6.03928 10.6524 5.98197 10.7108C5.92467 10.7693 5.89258 10.8479 5.89258 10.9297C5.89258 11.0115 5.92468 11.0901 5.98199 11.1485C6.03929 11.207 6.11723 11.2406 6.19906 11.2422H10.7019C10.7837 11.2406 10.8617 11.207 10.919 11.1485C10.9763 11.0901 11.0084 11.0115 11.0084 10.9297C11.0084 10.8478 10.9763 10.7693 10.9189 10.7108C10.8616 10.6524 10.7837 10.6188 10.7019 10.6172H6.19903Z" fill="black" stroke="black" stroke-width="0.2"/>
<path id="Vector_5" d="M11.4648 15.8846V18.3626C11.4664 18.4444 11.5001 18.5224 11.5585 18.5797C11.6169 18.637 11.6955 18.6691 11.7774 18.6691C11.8592 18.6691 11.9378 18.637 11.9962 18.5797C12.0546 18.5224 12.0883 18.4444 12.0898 18.3626V15.8846C12.0882 15.8028 12.0546 15.7248 11.9962 15.6675C11.9378 15.6102 11.8592 15.5781 11.7773 15.5781C11.6955 15.5781 11.6169 15.6102 11.5585 15.6675C11.5001 15.7248 11.4664 15.8028 11.4648 15.8846Z" fill="black" stroke="black" stroke-width="0.2"/>
<path id="Vector_6" d="M13.3273 18.6733H14.8758C14.9576 18.6718 15.0356 18.6382 15.093 18.5797C15.1503 18.5213 15.1824 18.4427 15.1824 18.3608C15.1824 18.279 15.1503 18.2004 15.0929 18.1419C15.0356 18.0835 14.9576 18.0499 14.8758 18.0483L13.3301 18.0511L13.3273 17.4343H14.5663C14.7313 17.4341 14.8894 17.3685 15.006 17.2518C15.1226 17.1351 15.1881 16.977 15.1883 16.8121V16.1926C15.1881 16.0276 15.1226 15.8695 15.006 15.7528C14.8894 15.6362 14.7313 15.5705 14.5663 15.5703H13.0176C12.9347 15.5703 12.8552 15.6032 12.7966 15.6618C12.738 15.7204 12.7051 15.7999 12.7051 15.8828C12.7051 15.9657 12.738 16.0452 12.7966 16.1038C12.8552 16.1624 12.9347 16.1953 13.0176 16.1953L14.5633 16.1926L14.5663 16.8093H13.3273C13.1624 16.8095 13.0042 16.8752 12.8876 16.9918C12.7709 17.1085 12.7053 17.2666 12.7051 17.4316V18.0511C12.7053 18.2161 12.7709 18.3742 12.8876 18.4908C13.0042 18.6075 13.1624 18.6731 13.3273 18.6733Z" fill="black" stroke="black" stroke-width="0.2"/>
<path id="Vector_7" d="M18.2862 16.1926C18.286 16.0276 18.2204 15.8695 18.1037 15.7528C17.9871 15.6362 17.8289 15.5705 17.664 15.5703H16.1152C16.0334 15.5719 15.9554 15.6055 15.898 15.6639C15.8407 15.7224 15.8086 15.801 15.8086 15.8828C15.8086 15.9647 15.8407 16.0433 15.8981 16.1017C15.9554 16.1602 16.0334 16.1938 16.1152 16.1953L17.6612 16.1926L17.664 16.8093H16.1152C16.0334 16.8109 15.9554 16.8445 15.898 16.9029C15.8407 16.9614 15.8086 17.04 15.8086 17.1218C15.8086 17.2037 15.8407 17.2823 15.8981 17.3407C15.9554 17.3992 16.0334 17.4328 16.1152 17.4343H17.6612L17.664 18.0483H16.1152C16.0334 18.0499 15.9555 18.0836 15.8981 18.142C15.8408 18.2004 15.8087 18.279 15.8088 18.3608C15.8088 18.4427 15.8409 18.5213 15.8982 18.5797C15.9555 18.6381 16.0334 18.6717 16.1152 18.6733H17.664C17.8289 18.6731 17.9871 18.6075 18.1037 18.4908C18.2204 18.3742 18.286 18.2161 18.2862 18.0511C18.2672 17.8301 18.3423 17.3095 18.2004 17.1218C18.342 16.9365 18.2695 16.4104 18.2862 16.1926Z" fill="black" stroke="black" stroke-width="0.2"/>
</g>
</svg>
