<svg width="24" height="24" viewBox="0 0 24 24" fill="none" xmlns="http://www.w3.org/2000/svg">
<g id="material-symbols:play-lesson">
<path id="Vector" d="M7 4V11L9.5 9.5L12 11V4H7ZM18 23C16.6167 23 15.4377 22.5123 14.463 21.537C13.4883 20.5617 13.0007 19.3827 13 18C13 16.6167 13.4877 15.4377 14.463 14.463C15.4383 13.4883 16.6173 13.0007 18 13C19.3833 13 20.5627 13.4877 21.538 14.463C22.5133 15.4383 23.0007 16.6173 23 18C23 19.3833 22.5123 20.5627 21.537 21.538C20.5617 22.5133 19.3827 23.0007 18 23ZM16.75 20.5L20.75 18L16.75 15.5V20.5ZM11 17.993C11 18.7143 11.1127 19.4127 11.338 20.088C11.5633 20.7633 11.8673 21.4007 12.25 22H5C4.45 22 3.97933 21.8043 3.588 21.413C3.19667 21.0217 3.00067 20.5507 3 20V4C3 3.45 3.196 2.97933 3.588 2.588C3.98 2.19667 4.45067 2.00067 5 2H17C17.55 2 18.021 2.196 18.413 2.588C18.805 2.98 19.0007 3.45067 19 4V11.05C18.832 11.0333 18.6643 11.0207 18.497 11.012C18.3297 11.0033 18.162 10.9993 17.994 11C16.048 11 14.396 11.6793 13.038 13.038C11.6793 14.396 11 16.0477 11 17.993Z" fill="#0F3827"/>
</g>
</svg>
