<svg width="22" height="22" viewBox="0 0 22 22" fill="none" xmlns="http://www.w3.org/2000/svg">
<g id="material-symbols-light:play-lesson-outline">
<path id="Vector" d="M10.992 18.3333C11.0366 18.4983 11.098 18.6597 11.1763 18.8173C11.2545 18.9756 11.3425 19.1198 11.4403 19.25H5.14643C4.72477 19.25 4.37277 19.1088 4.09043 18.8265C3.80749 18.5436 3.66602 18.1913 3.66602 17.7696V4.23042C3.66602 3.80875 3.80749 3.45675 4.09043 3.17442C4.37277 2.89147 4.72477 2.75 5.14643 2.75H15.0189C15.4406 2.75 15.7926 2.89147 16.0749 3.17442C16.3579 3.45675 16.4993 3.80875 16.4993 4.23042V10.7571C16.3649 10.7381 16.2121 10.7287 16.041 10.7287C15.8699 10.7287 15.7171 10.7378 15.5827 10.7562V4.23133C15.5827 4.09078 15.524 3.96153 15.4067 3.84358C15.2887 3.72564 15.1595 3.66667 15.0189 3.66667H10.541V9.34267L8.70768 8.25L6.87435 9.34267V3.66667H5.14643C5.00588 3.66667 4.87663 3.72533 4.75868 3.84267C4.64135 3.96061 4.58268 4.08986 4.58268 4.23042V17.7696C4.58268 17.9101 4.64135 18.0394 4.75868 18.1573C4.87663 18.2747 5.00588 18.3333 5.14643 18.3333H10.992ZM16.041 19.8843C15.0198 19.8843 14.1533 19.5287 13.4413 18.8173C12.7294 18.106 12.3737 17.2394 12.3743 16.2177C12.3743 15.1971 12.73 14.3309 13.4413 13.6189C14.1527 12.907 15.0192 12.551 16.041 12.551C17.0622 12.551 17.9287 12.907 18.6407 13.6189C19.3526 14.3309 19.7083 15.1971 19.7077 16.2177C19.7077 17.2388 19.352 18.1054 18.6407 18.8173C17.9287 19.5287 17.0622 19.8843 16.041 19.8843ZM15.2481 17.9456L17.7506 16.1828L15.2481 14.4201V17.9456ZM10.992 3.66667H4.58268H15.5827H10.541H10.992Z" fill="#0F3827"/>
</g>
</svg>
