<svg width="16" height="16" viewBox="0 0 16 16" fill="none" xmlns="http://www.w3.org/2000/svg">
<g id="Play">
<path id="Vector" d="M2.40674 7.57265L11.4053 2.07336C11.4811 2.02704 11.5678 2.00175 11.6567 2.00009C11.7455 1.99842 11.8331 2.02045 11.9106 2.0639C11.9881 2.10735 12.0526 2.17065 12.0975 2.2473C12.1424 2.32395 12.166 2.41117 12.166 2.5V13.4986C12.166 13.5874 12.1424 13.6746 12.0975 13.7513C12.0526 13.8279 11.9881 13.8912 11.9106 13.9347C11.8331 13.9781 11.7455 14.0002 11.6567 13.9985C11.5678 13.9968 11.4811 13.9715 11.4053 13.9252L2.40674 8.42593C2.33366 8.38126 2.27327 8.31857 2.23138 8.24386C2.18948 8.16916 2.16748 8.08494 2.16748 7.99929C2.16748 7.91364 2.18948 7.82942 2.23138 7.75471C2.27327 7.68001 2.33366 7.61732 2.40674 7.57265Z" fill="#1D2026"/>
</g>
</svg>
