<svg width="44" height="44" viewBox="0 0 44 44" fill="none" xmlns="http://www.w3.org/2000/svg">
<g id="elearning_4651429 1" clip-path="url(#clip0_1473_59493)">
<g id="Group">
<path id="Vector" d="M42.1081 11.5209C42.109 10.6185 41.6157 9.792 40.8205 9.36362L24.6953 0.681814C23.0074 -0.227357 20.9921 -0.227185 19.3046 0.681814L3.17914 9.36362C2.384 9.79191 1.89074 10.6184 1.8916 11.5208V14.4941C1.8916 15.3958 2.38503 16.2214 3.17922 16.6487L8.32489 19.4191V22.6388C8.32489 25.6117 9.90262 28.2226 12.2645 29.6794V31.9422L10.4632 33.7434C10.0792 33.6253 9.67163 33.5615 9.24936 33.5615C6.9668 33.5615 5.10979 35.4184 5.10979 37.701C5.10979 39.9835 6.96672 41.8404 9.24936 41.8404C11.5319 41.8404 13.3888 39.9835 13.3888 37.701C13.3888 37.2789 13.325 36.8714 13.207 36.4874L15.5767 34.1177C15.9377 33.7568 16.1447 33.2569 16.1447 32.7464V30.8929C16.2925 30.9008 16.4413 30.905 16.591 30.905H20.0606V36.2048C18.7529 36.9013 17.8604 38.2783 17.8604 39.8605C17.8604 42.1431 19.7173 44 21.9999 44C24.2826 44 26.1395 42.1431 26.1395 39.8605C26.1395 38.279 25.2477 36.9025 23.9409 36.2057V30.9051H27.4087C27.5583 30.9051 27.7074 30.9011 27.8559 30.893V32.7464C27.8559 33.2569 28.0629 33.7566 28.4238 34.1177L30.7932 36.4871C30.6751 36.8712 30.6112 37.2789 30.6112 37.7011C30.6112 39.4207 31.6467 40.9351 33.2491 41.5594C33.5807 41.6886 33.9543 41.5244 34.0836 41.1928C34.2128 40.8611 34.0487 40.4874 33.717 40.3583C32.6132 39.9283 31.9001 38.8853 31.9001 37.7011C31.9001 36.1294 33.1788 34.8507 34.7505 34.8507C36.3222 34.8507 37.6009 36.1294 37.6009 37.7011C37.6009 38.8854 36.8877 39.9283 35.784 40.3583C35.4524 40.4874 35.2882 40.8611 35.4174 41.1928C35.5167 41.4476 35.7601 41.6034 36.0181 41.6034C36.0958 41.6034 36.175 41.5893 36.2519 41.5593C37.8543 40.935 38.8898 39.4206 38.8898 37.701C38.8898 35.4186 37.0329 33.5617 34.7504 33.5617C34.3284 33.5617 33.9211 33.6255 33.5373 33.7434L31.736 31.9422V29.6808C32.3314 29.3147 32.8827 28.8719 33.3745 28.359C33.486 28.3761 33.5996 28.3859 33.7152 28.3859H37.2589C38.0481 28.3859 38.7547 27.9779 39.1492 27.2946C39.5438 26.6112 39.5437 25.7953 39.1492 25.112L37.4272 22.1294V18.4754L40.8201 16.6488C41.6145 16.2213 42.1079 15.3957 42.1079 14.494L42.1081 11.5209ZM3.1806 14.4942V13.6737L8.71253 16.6514C8.80972 16.7038 8.9143 16.7285 9.01742 16.7285C9.24695 16.7285 9.46909 16.6056 9.58553 16.3893C9.75421 16.0759 9.63691 15.6851 9.32343 15.5163L3.78986 12.5376C3.40884 12.3329 3.18111 11.9524 3.18051 11.5199C3.17991 11.0862 3.40789 10.7043 3.79029 10.4985L19.9158 1.81664C21.2208 1.1138 22.779 1.1138 24.0841 1.81664L40.2094 10.4985C40.5918 10.7044 40.8198 11.0863 40.8192 11.5199C40.8186 11.9525 40.5909 12.3329 40.2095 12.5379L36.7913 14.3782C36.5871 14.1924 36.3454 14.0497 36.0762 13.9642L22.5892 9.67049C22.0956 9.51237 21.5704 9.55637 21.1099 9.79415C20.649 10.0323 20.3087 10.4358 20.1521 10.929C19.9942 11.4221 20.0381 11.9472 20.2758 12.4076C20.5139 12.8688 20.9173 13.2094 21.4115 13.3665L32.2563 16.8204L24.0841 21.2199C22.7791 21.9228 21.2208 21.9227 19.9157 21.2199L11.5758 16.7299C11.2621 16.561 10.8716 16.6785 10.7028 16.9918C10.5341 17.3052 10.6514 17.696 10.9647 17.8648L19.3045 22.3548C20.1485 22.8094 21.0742 23.0366 21.9999 23.0366C22.9255 23.0366 23.8515 22.8093 24.6952 22.3549L33.5476 17.5892V19.1011L24.0843 24.1956C22.7792 24.8977 21.2208 24.8978 19.9157 24.1957L3.79012 15.5137C3.40841 15.3084 3.1806 14.9272 3.1806 14.4942ZM34.3872 16.1459L21.8024 12.138C21.6364 12.0853 21.501 11.971 21.4211 11.8162C21.3416 11.6622 21.3268 11.4868 21.3801 11.3205C21.4328 11.1545 21.5469 11.0192 21.7014 10.9394C21.8554 10.8599 22.0311 10.8452 22.197 10.8983L35.6855 15.1925C35.8466 15.2438 35.9802 15.3546 36.0604 15.5028C36.1115 15.5978 36.1384 15.7048 36.1384 15.8123V21.0497C35.9315 20.9861 35.713 20.9516 35.4874 20.9516C35.4873 20.9516 35.4873 20.9516 35.4873 20.9516C35.2617 20.9516 35.0433 20.986 34.8365 21.0496V16.76C34.8366 16.4794 34.6548 16.2309 34.3872 16.1459ZM9.24936 40.5516C7.67756 40.5516 6.39879 39.2729 6.39879 37.7011C6.39879 36.1294 7.67756 34.8507 9.24936 34.8507C10.8211 34.8507 12.0998 36.1294 12.0998 37.7011C12.0998 39.2729 10.8211 40.5516 9.24936 40.5516ZM14.8557 32.7464C14.8557 32.9177 14.7863 33.0852 14.6652 33.2063L12.5988 35.2728C12.342 34.9196 12.031 34.6086 11.6779 34.3518L13.3648 32.6649C13.4856 32.5441 13.5535 32.3802 13.5535 32.2092V30.3269C13.972 30.4928 14.4072 30.6251 14.8557 30.7212V32.7464ZM24.8505 39.8605C24.8505 41.4323 23.5717 42.711 21.9999 42.711C20.4281 42.711 19.1493 41.4323 19.1493 39.8605C19.1493 38.2888 20.4281 37.0101 21.9999 37.0101C23.5717 37.0101 24.8505 38.2888 24.8505 39.8605ZM22.6519 35.7728C22.4394 35.739 22.2218 35.721 21.9999 35.721C21.7786 35.721 21.5616 35.7389 21.3497 35.7725V30.905H22.6519V35.7728ZM16.591 29.6161C12.7437 29.6161 9.61388 26.4862 9.61388 22.6389V20.1131L19.3047 25.3307C20.1485 25.7847 21.0742 26.0117 21.9997 26.0117C22.9254 26.0117 23.8513 25.7846 24.6951 25.3307L33.5475 20.565V22.1288L31.8252 25.112C31.4306 25.7954 31.4305 26.6113 31.8252 27.2947C31.9211 27.4609 32.0359 27.6105 32.1654 27.7422C30.8801 28.9406 29.1834 29.6161 27.4087 29.6161H16.591ZM30.6359 32.6649L32.3227 34.3516C31.9695 34.6084 31.6584 34.9194 31.4017 35.2725L29.3355 33.2063C29.2144 33.0852 29.145 32.9176 29.145 32.7464V30.7205C29.5904 30.6247 30.0258 30.4927 30.4472 30.3262V32.2092C30.4472 32.3802 30.5151 32.544 30.6359 32.6649ZM38.0332 26.6502C37.8717 26.93 37.5823 27.097 37.2592 27.097H33.7155C33.3924 27.097 33.1031 26.93 32.9415 26.6502C32.78 26.3704 32.78 26.0363 32.9415 25.7565L34.7134 22.6875C34.8749 22.4077 35.1642 22.2407 35.4874 22.2407C35.8105 22.2407 36.0997 22.4077 36.2613 22.6875L38.0332 25.7565C38.1948 26.0363 38.1948 26.3704 38.0332 26.6502ZM40.2095 15.5138L37.4275 17.0115V15.8123C37.4275 15.7119 37.4186 15.6118 37.4031 15.5127L40.8192 13.6736V14.4941C40.8192 14.9272 40.5913 15.3084 40.2095 15.5138Z" fill="#0F3827"/>
</g>
</g>
<defs>
<clipPath id="clip0_1473_59493">
<rect width="44" height="44" fill="white"/>
</clipPath>
</defs>
</svg>
