<svg width="48" height="48" viewBox="0 0 48 48" fill="none" xmlns="http://www.w3.org/2000/svg">
<g id="Group">
<path id="Vector" d="M46.2279 0.162697C46.4935 0.260265 46.8672 0.523697 47.1623 0.816399C48.077 1.72378 47.9983 -0.120247 47.9983 20.1445C47.9983 40.419 48.0672 38.6726 47.182 39.5507C46.2869 40.4385 47.1918 40.3702 34.1893 40.458L22.7802 40.5361L22.1605 42.9167C21.8261 44.2241 21.4426 45.4925 21.3245 45.7364C21.0098 46.3511 20.3803 47.0146 19.7607 47.3853C18.7575 47.9805 18.5411 48 13.4758 48C8.59744 48 8.29255 47.9707 7.35818 47.5024C6.82706 47.2292 6.04022 46.4975 5.73532 45.9706C5.21405 45.0925 5.11569 44.5364 5.11569 42.4387V40.5068L3.7584 40.4483C1.98801 40.3605 1.47657 40.2044 0.817593 39.5507C-0.0676003 38.6726 0.00125122 40.4093 0.00125122 20.1933C0.00125122 -0.0226784 -0.0676003 1.71402 0.817593 0.826157C1.74213 -0.0909767 -0.608547 -0.0031662 24.0391 0.0065918C43.5822 0.0065918 45.8345 0.026104 46.2279 0.162697ZM1.90933 1.42132C1.7618 1.52864 1.54542 1.74329 1.43723 1.88964C1.24052 2.14332 1.23068 2.29942 1.20118 5.3728L1.17167 8.58277H23.9998H46.818V5.51915C46.818 2.33845 46.7885 2.09453 46.3951 1.66524C45.9132 1.14813 47.241 1.1774 23.8818 1.19691L2.17489 1.21643L1.90933 1.42132ZM1.1815 23.8423C1.1815 33.5698 1.21101 38.0189 1.2897 38.214C1.43723 38.5945 1.85032 39.0043 2.20439 39.1116C2.3716 39.1604 3.09942 39.2384 3.80758 39.2677L5.11569 39.336V38.0384C5.11569 36.5066 5.23372 36.1456 5.90253 35.5894C6.46315 35.1113 7.06311 34.9748 7.81061 35.1699L8.35156 35.3162L8.82366 34.8479C9.41379 34.2625 10.0236 34.0576 10.7121 34.2137C10.958 34.2625 11.2333 34.3406 11.312 34.3796C11.4104 34.4186 11.5087 34.3406 11.6268 34.1552C11.7153 33.9991 11.971 33.7454 12.2071 33.5893C12.5513 33.3649 12.7283 33.3161 13.2201 33.3161C13.5545 33.3161 13.9184 33.3551 14.0463 33.3942L14.2627 33.4722V29.2573C14.2627 25.179 14.2725 25.0229 14.4692 24.6131C14.902 23.7155 16.0035 23.1886 16.9773 23.4033C17.6854 23.5594 18.2165 23.9691 18.5313 24.5936L18.787 25.1107V31.1794V37.2481L19.3869 36.6334C20.2623 35.726 21.2458 35.2577 22.672 35.0821C23.2228 35.0138 23.7047 35.2089 23.9703 35.5992C24.2555 36.009 24.2555 36.3407 23.9899 36.9456C23.7637 37.4725 23.1146 39.1994 23.1146 39.2872C23.1146 39.3946 45.5394 39.2189 45.8247 39.1116C46.1787 38.975 46.523 38.6433 46.6804 38.2725C46.7984 38.0091 46.818 35.5797 46.818 23.8521V9.75357H23.9998H1.1815V23.8423ZM16.0921 24.6228C15.4134 24.9058 15.4429 24.7009 15.4429 29.9598C15.4429 36.0675 15.3642 38.7994 15.1774 38.9848C14.961 39.1994 14.4987 39.1506 14.3217 38.9067C14.1938 38.7311 14.1643 38.3506 14.1643 36.7993C14.1643 34.926 14.1643 34.9162 13.9184 34.682C13.6627 34.4186 13.2103 34.3601 12.8759 34.5455C12.4825 34.7503 12.4136 35.1309 12.4726 36.9359C12.512 38.4189 12.5021 38.653 12.3546 38.8774C12.2169 39.0921 12.1185 39.1311 11.8235 39.1019C11.2924 39.0628 11.2137 38.8384 11.2137 37.1993V35.8236L10.9088 35.5699C10.5055 35.2284 10.1219 35.2382 9.71869 35.5992L9.39412 35.8821L9.34494 37.7164C9.29576 39.5409 9.29576 39.5604 9.05971 39.6677C8.76464 39.8141 8.44991 39.7068 8.29255 39.4043C8.21386 39.258 8.16468 38.7311 8.16468 37.9993C8.16468 36.6822 8.086 36.4773 7.53521 36.2919C7.13196 36.1651 6.79755 36.2724 6.50249 36.6432C6.28611 36.9163 6.28611 36.9359 6.31562 40.7703L6.34512 44.6339L6.61068 45.1218C6.94509 45.7559 7.60406 46.3609 8.2237 46.595C8.67613 46.7707 9.02037 46.7804 13.525 46.7804C18.2362 46.7804 18.3542 46.7804 18.7968 46.5755C19.4066 46.2926 20.0066 45.7364 20.2623 45.2291C20.3705 44.9949 20.8131 43.4436 21.2458 41.7752C21.9442 39.0726 22.4851 37.3261 22.8785 36.5749C22.9474 36.4285 22.9867 36.2919 22.9572 36.2724C22.8589 36.1748 21.9048 36.3895 21.3639 36.6334C20.6459 36.9554 20.0951 37.492 19.3673 38.5555L18.787 39.4043V40.5849C18.787 41.6288 18.7673 41.7752 18.5903 41.9508C18.3444 42.1947 18.187 42.1947 17.8624 41.9411L17.6067 41.7459V33.5503C17.6067 24.7107 17.6166 24.9643 17.0953 24.7107C16.5838 24.457 16.5052 24.457 16.0921 24.6228Z" fill="#0F3827"/>
<path id="Vector_2" d="M43.4738 2.61875C43.9951 2.72608 44.3983 2.97 44.7819 3.4188C45.372 4.10178 45.4802 5.01891 45.0475 5.84823C44.2311 7.41907 41.91 7.42883 41.0936 5.85799C40.2183 4.19934 41.6444 2.25775 43.4738 2.61875ZM42.4116 3.89689C42.3132 3.89689 41.9985 4.57986 41.9985 4.80426C41.9985 5.74091 43.0804 6.19948 43.7885 5.56529C44.6147 4.83353 43.818 3.51637 42.7361 3.81883C42.5788 3.85786 42.4312 3.89689 42.4116 3.89689Z" fill="#0F3827"/>
<path id="Vector_3" d="M37.5728 2.64754C39.235 2.95 39.9137 5.10624 38.7334 6.3551C37.9269 7.20394 36.4221 7.25272 35.5762 6.45267C34.7009 5.62335 34.6123 4.30619 35.3795 3.41832C35.9598 2.74511 36.6975 2.48168 37.5728 2.64754ZM36.3434 4.1013C36.0975 4.33546 36.0483 4.4623 36.0483 4.83305C36.0483 5.21356 36.0975 5.32089 36.3729 5.56481C37.081 6.199 38.1629 5.74043 38.1629 4.80378C38.1629 4.38424 37.8285 3.91592 37.4548 3.81835C37.0024 3.69151 36.6876 3.76957 36.3434 4.1013Z" fill="#0F3827"/>
<path id="Vector_4" d="M31.5434 2.63843C33.7367 3.04821 34.0416 6.03378 31.9663 6.90213C31.4254 7.12653 30.4123 7.02896 29.9107 6.69723C29.2812 6.27769 28.9764 5.75083 28.937 4.96053C28.9075 4.42391 28.937 4.20926 29.114 3.85802C29.5566 2.94089 30.5402 2.45305 31.5434 2.63843ZM30.314 4.14097C29.9796 4.53124 30.0091 5.1947 30.3828 5.56545C30.6189 5.78986 30.7566 5.8484 31.1106 5.8484C31.8581 5.8484 32.3499 5.24348 32.1532 4.54099C31.9172 3.72143 30.8844 3.49702 30.314 4.14097Z" fill="#0F3827"/>
<path id="Vector_5" d="M22.5245 4.16311C22.9179 4.29971 23.0458 4.83633 22.7409 5.09976C22.5737 5.25587 21.7377 5.26562 12.7087 5.26562H2.85357L2.6962 5.02171C2.48965 4.70949 2.57817 4.35825 2.90274 4.2119C3.08962 4.12409 5.61733 4.09482 12.7677 4.10457C18.0494 4.10457 22.4458 4.13384 22.5245 4.16311Z" fill="#0F3827"/>
<path id="Vector_6" d="M36.4515 15.776C37.2482 16.7322 37.917 17.5322 37.9268 17.5517C37.9465 17.5712 38.2022 17.3761 38.5071 17.1322C38.812 16.8883 39.1267 16.6834 39.1956 16.6834C39.2743 16.6834 39.4513 16.7809 39.5988 16.9078C40.0021 17.2493 39.8742 17.5322 38.989 18.2347C38.2612 18.8201 37.9563 18.9274 37.5334 18.7713C37.258 18.664 34.1303 14.8686 34.1303 14.6345C34.1303 14.2442 34.3074 14.0491 34.6614 14.0491C34.9762 14.0491 35.0942 14.1661 36.4515 15.776Z" fill="#0F3827"/>
<path id="Vector_7" d="M41.7137 14.5866C42.176 14.8403 42.2055 15.0549 42.176 18.2844L42.1465 21.2895L41.8711 21.5237L41.5957 21.7578H38.4483H35.301L35.0649 21.5139C34.8289 21.2895 34.819 21.2309 34.819 20.0211C34.819 18.9284 34.8387 18.743 34.9961 18.6064C35.242 18.382 35.5665 18.4015 35.8026 18.6357C35.9698 18.8015 35.9993 18.9576 35.9993 19.7089V20.587H38.5073H41.0154L40.9957 18.1185L40.9662 15.6598L39.5892 15.6306C38.3303 15.6111 38.2024 15.5916 38.0352 15.4062C37.809 15.1232 37.8189 14.9671 38.1139 14.6842C38.35 14.45 38.3795 14.4403 39.904 14.4403C41.0547 14.45 41.5268 14.4793 41.7137 14.5866Z" fill="#0F3827"/>
<path id="Vector_8" d="M28.8194 14.8975C29.3014 15.0731 29.4587 15.5512 29.1342 15.8341C28.967 15.9902 27.9933 16 17.1841 16C6.6208 16 5.41104 15.9805 5.27335 15.8439C5.10614 15.6878 5.0668 15.3463 5.19466 15.1512C5.234 15.0926 5.39137 14.9853 5.5389 14.9365C5.83397 14.8292 28.5244 14.7902 28.8194 14.8975Z" fill="#0F3827"/>
<path id="Vector_9" d="M29.1144 19.8993C29.3603 20.1432 29.3702 20.5042 29.1341 20.7091C28.9669 20.8652 27.9932 20.875 17.1939 20.875C5.93226 20.875 5.43065 20.8652 5.28311 20.6994C5.0569 20.4555 5.07657 20.1335 5.31262 19.8993C5.50933 19.7042 5.63719 19.7042 17.2135 19.7042C28.7899 19.7042 28.9177 19.7042 29.1144 19.8993Z" fill="#0F3827"/>
<path id="Vector_10" d="M36.353 28.0644C37.1005 28.962 37.7693 29.7621 37.8283 29.8401C37.9267 29.967 38.0053 29.9377 38.3693 29.645C39.1069 29.0498 39.3921 29.001 39.7265 29.4011C39.9626 29.684 39.7659 30.0255 38.9889 30.6304C38.1135 31.3232 37.7595 31.3914 37.2874 30.9426C37.1201 30.7963 36.353 29.9084 35.5661 28.9718C34.081 27.2058 33.9335 26.9326 34.2875 26.5911C34.3662 26.5033 34.5629 26.435 34.7105 26.435C34.9465 26.435 35.1826 26.6692 36.353 28.0644Z" fill="#0F3827"/>
<path id="Vector_11" d="M41.4673 26.8992C41.5854 26.9187 41.7821 27.0455 41.9099 27.1821L42.146 27.4358V30.5384V33.6411L41.9099 33.8948L41.6739 34.1484H38.4872H35.3005L35.0645 33.9045C34.8284 33.6801 34.8186 33.6216 34.8186 32.402C34.8186 31.2019 34.8284 31.1238 35.035 30.9873C35.3399 30.7726 35.5661 30.7921 35.8021 31.0458C35.9693 31.2214 35.9988 31.3873 35.9988 32.119V32.9776H38.5069H41.0149L40.9952 30.5092L40.9657 28.0505L39.5691 28.0212C38.1921 28.0017 38.1626 27.9919 38.0053 27.748C37.7987 27.4456 37.9364 27.065 38.32 26.9284C38.5561 26.8309 41.0346 26.8114 41.4673 26.8992Z" fill="#0F3827"/>
<path id="Vector_12" d="M29.144 27.4894C29.3505 27.7138 29.3604 27.9968 29.1735 28.2504C29.0358 28.4261 28.8588 28.4358 25.2098 28.4651C23.1148 28.4748 21.2953 28.4651 21.1773 28.4358C20.6757 28.3187 20.4888 27.7821 20.833 27.4797C21.0002 27.3333 21.433 27.3138 25.0033 27.3138C28.7407 27.3138 28.9965 27.3236 29.144 27.4894Z" fill="#0F3827"/>
<path id="Vector_13" d="M10.9777 27.5614C11.1646 27.8443 11.0859 28.1468 10.7711 28.3517C10.5843 28.4785 10.1417 28.4883 7.96803 28.4688C5.54851 28.4395 5.38131 28.4298 5.25344 28.2541C5.06657 27.9907 5.07641 27.6687 5.29279 27.4833C5.45015 27.337 5.79439 27.3175 8.14507 27.3175H10.8203L10.9777 27.5614Z" fill="#0F3827"/>
<path id="Vector_14" d="M28.9176 32.1631C29.311 32.2997 29.4388 32.8363 29.1339 33.0998C28.9864 33.2364 28.7208 33.2656 27.6783 33.2656C26.2718 33.2656 26.1636 33.2266 26.1636 32.7192C26.1636 32.1924 26.4193 32.0948 27.6881 32.1046C28.2782 32.1046 28.8389 32.1338 28.9176 32.1631Z" fill="#0F3827"/>
</g>
</svg>
