<svg width="46" height="46" viewBox="0 0 46 46" fill="none" xmlns="http://www.w3.org/2000/svg">
<g id="stars_12769529 1">
<g id="Group">
<path id="Vector" d="M15.791 40.1127C15.6984 40.1127 15.6062 40.0932 15.5198 40.0541L6.00613 35.7533C5.74301 35.6346 5.58826 35.3576 5.6246 35.0713L5.75791 34.0215C5.89407 32.9485 5.72681 31.8626 5.27353 30.8801L3.17096 26.3229C2.03136 23.8537 2.00882 21.0108 3.10932 18.5235L8.04816 7.35808C8.43097 6.56366 9.12345 5.99786 9.95679 5.78562C10.79 5.57338 11.6688 5.73934 12.3679 6.24038C13.4109 6.98815 13.8416 8.3561 13.4153 9.56682L10.5426 17.7264C11.3154 17.8395 12.0018 18.3184 12.3417 19.0553L12.4907 19.3755L17.567 30.4144C18.2836 31.8399 18.4098 33.4844 17.9127 35.0251L16.417 39.6568C16.3594 39.8351 16.2286 39.9805 16.0575 40.0561C15.9727 40.0936 15.8817 40.1127 15.791 40.1127ZM6.99108 34.7548L15.3911 38.5524L16.6607 34.6212C17.051 33.4116 16.9519 32.1201 16.3814 30.9849L11.1482 19.6088C10.9236 19.1217 10.3426 18.8965 9.79873 19.08C9.55999 19.1611 9.29669 19.0979 9.11987 18.9196C8.94286 18.7402 8.88379 18.4762 8.96724 18.2387L12.1742 9.13C12.4078 8.46705 12.1721 7.71882 11.6012 7.30932C11.2188 7.03544 10.7379 6.9439 10.2815 7.06056C9.82541 7.17666 9.44674 7.48652 9.24223 7.90999L4.31241 19.0559C3.36508 21.1978 3.38431 23.6455 4.3654 25.772L6.46824 30.3292C7.02475 31.5352 7.23055 32.8694 7.0633 34.1869L6.99108 34.7548Z" fill="#0F3827"/>
<path id="Vector_2" d="M16.8848 43.6366C16.8183 43.6366 16.7509 43.6268 16.6842 43.6052C16.3383 43.4947 16.1474 43.1241 16.2582 42.7783L16.6331 41.6061C16.7996 41.085 16.5491 40.5218 16.0503 40.2967L6.50058 35.9806C6.22495 35.8562 5.91942 35.8526 5.64084 35.9687C5.36208 36.0859 5.15085 36.3064 5.04624 36.5895L4.62102 37.7402C4.49544 38.081 4.11714 38.2561 3.77618 38.1297C3.43542 38.0039 3.26126 37.6256 3.38712 37.2849L3.81206 36.1338C4.04105 35.5135 4.52249 35.0109 5.13254 34.7555C5.7425 34.5001 6.43857 34.5089 7.04218 34.7817L16.5918 39.0979C17.6995 39.5979 18.2558 40.8488 17.886 42.0071L17.5109 43.1792C17.4218 43.4587 17.1631 43.6366 16.8848 43.6366Z" fill="#0F3827"/>
<path id="Vector_3" d="M11.5475 28.1131C11.2987 28.1131 11.0608 27.9718 10.9499 27.7308L7.89272 21.1057C7.53815 20.3379 7.63862 19.4252 8.15455 18.7238C8.19439 18.6693 8.24241 18.6215 8.29688 18.5819L9.20004 17.9237C9.49297 17.7089 9.90485 17.7736 10.1191 18.0676C10.3332 18.361 10.2684 18.7727 9.97496 18.9865L9.16324 19.5785C8.97252 19.8837 8.94299 20.2429 9.08697 20.5549L12.1441 27.18C12.2965 27.51 12.1523 27.9004 11.8227 28.0526C11.7333 28.0936 11.6398 28.1131 11.5475 28.1131Z" fill="#0F3827"/>
<path id="Vector_4" d="M30.2085 40.1126C30.1178 40.1126 30.0268 40.0935 29.9421 40.0561C29.7709 39.9805 29.6402 39.8351 29.5826 39.6568L28.0872 35.0251C27.5898 33.485 27.7159 31.84 28.4423 30.3939L33.6588 19.0528C33.9983 18.3179 34.6843 17.8395 35.457 17.7259L32.5843 9.56682C32.158 8.3561 32.5887 6.98806 33.6317 6.24038C34.3309 5.73934 35.2098 5.57338 36.0428 5.78562C36.8761 5.99786 37.5685 6.56366 37.9424 7.33803L42.8905 18.5235C43.9907 21.0107 43.9681 23.8536 42.8285 26.3229L40.7262 30.8801C40.2729 31.8622 40.1054 32.9485 40.2416 34.0215L40.3749 35.0713C40.4111 35.3576 40.2565 35.6346 39.9934 35.7533L30.4797 40.0541C30.3933 40.0931 30.3011 40.1126 30.2085 40.1126ZM35.8159 19.0162C35.403 19.0162 35.0235 19.2357 34.8527 19.6061L34.7049 19.9237L29.6279 30.9642C29.0478 32.1199 28.9485 33.4114 29.3391 34.621L30.6085 38.5522L39.0086 34.7546L38.9364 34.1868C38.7691 32.8691 38.9749 31.535 39.5318 30.329L41.6341 25.7718C42.6154 23.6453 42.6349 21.1976 41.6876 19.0557L36.7486 7.89039C36.553 7.48642 36.1741 7.17657 35.7183 7.06046C35.261 6.9428 34.7807 7.0347 34.3984 7.30923C33.8274 7.71882 33.5918 8.46696 33.8254 9.12991L37.0324 18.2386C37.1159 18.4761 37.0567 18.7402 36.8797 18.9195C36.703 19.0984 36.4393 19.162 36.2009 19.0799C36.0729 19.0367 35.9428 19.0162 35.8159 19.0162Z" fill="#0F3827"/>
<path id="Vector_5" d="M29.1146 43.6365C28.8363 43.6365 28.5776 43.4582 28.4884 43.1792L28.1138 42.007C27.7433 40.8487 28.2996 39.5979 29.4075 39.0973L38.9575 34.7822C39.5605 34.5089 40.2566 34.5 40.8671 34.7555C41.4773 35.0109 41.9587 35.5135 42.1876 36.1343L42.6123 37.285C42.7382 37.6256 42.564 38.0039 42.2233 38.1298C41.8836 38.2562 41.5041 38.081 41.3784 37.7403L40.9535 36.5896C40.8487 36.306 40.6377 36.086 40.359 35.9688C40.0802 35.8526 39.7744 35.8562 39.4992 35.9811L29.9494 40.2963C29.4506 40.5219 29.2001 41.0851 29.3668 41.6062L29.7414 42.7784C29.8522 43.1247 29.6613 43.4948 29.3152 43.6053C29.2485 43.6268 29.1812 43.6365 29.1146 43.6365Z" fill="#0F3827"/>
<path id="Vector_6" d="M34.4518 28.1132C34.3595 28.1132 34.2661 28.0937 34.1766 28.0526C33.847 27.9004 33.7028 27.51 33.8552 27.18L36.9123 20.5549C37.0562 20.2429 37.0267 19.8837 36.8361 19.5785L36.0244 18.9865C35.731 18.7727 35.6662 18.3611 35.8803 18.0676C36.0941 17.7736 36.5054 17.7089 36.7994 17.9237L37.7025 18.5819C37.757 18.6215 37.8051 18.6693 37.8448 18.7238C38.3608 19.4252 38.4612 20.3379 38.1067 21.1057L35.0495 27.7308C34.9385 27.9719 34.7006 28.1132 34.4518 28.1132Z" fill="#0F3827"/>
<path id="Vector_7" d="M25.5722 30.2896C25.3279 30.2896 25.0838 30.2136 24.8752 30.0625L22.9999 28.6997L21.125 30.062C20.7074 30.3653 20.1467 30.3653 19.7302 30.062C19.3135 29.7594 19.1403 29.2259 19.2996 28.7357L20.0157 26.5322L18.1408 25.1693C17.724 24.8671 17.5506 24.3342 17.7098 23.8434C17.8689 23.3531 18.3224 23.0238 18.8378 23.0238H21.1557L21.8715 20.8196C22.0312 20.3288 22.4844 20 22.9998 20C23.5153 20 23.9685 20.3288 24.1278 20.8192L24.8439 23.0238H27.1618C27.6773 23.0238 28.1308 23.3531 28.2897 23.8434C28.4491 24.3337 28.2759 24.8665 27.8589 25.1698L25.9839 26.5321L26.7003 28.7356C26.8593 29.2264 26.6862 29.7593 26.2691 30.0619C26.0609 30.2136 25.8165 30.2896 25.5722 30.2896ZM23.0002 27.3533C23.2443 27.3533 23.4881 27.4288 23.6963 27.5794L25.3263 28.7639L24.7038 26.8491C24.5445 26.3578 24.7182 25.8244 25.1357 25.5223L26.7637 24.3393H24.7503C24.2348 24.3393 23.7813 24.0099 23.622 23.5201L22.9999 21.6044L22.3778 23.5196C22.2185 24.0099 21.765 24.3393 21.2495 24.3393H19.2361L20.8652 25.5233C21.2816 25.8245 21.4553 26.3578 21.296 26.8487L20.6737 28.7639L22.3025 27.5804C22.5115 27.4288 22.7558 27.3533 23.0002 27.3533Z" fill="#0F3827"/>
<path id="Vector_8" d="M18.5164 19.3223C18.1934 19.3223 17.8704 19.22 17.5888 19.0151C17.0247 18.6055 16.7994 17.9128 17.0148 17.2498L18.3139 13.2513C18.3494 13.1428 18.3109 13.0247 18.2186 12.9579L14.8171 10.4866C14.2536 10.077 14.0283 9.38431 14.2435 8.72136C14.4588 8.05841 15.0483 7.63033 15.7451 7.63033H19.949C20.0634 7.63033 20.1641 7.55728 20.1995 7.44845L21.4984 3.44985C21.7137 2.78745 22.3032 2.35938 23 2.35938C23.6968 2.35938 24.2863 2.78745 24.5016 3.44985L25.8008 7.44845C25.836 7.55737 25.9366 7.63033 26.051 7.63033H30.2549C30.9517 7.63033 31.5411 8.05841 31.7565 8.72136C31.9718 9.38422 31.7464 10.077 31.1827 10.4866L27.7817 12.9579C27.6892 13.0247 27.6507 13.1429 27.6861 13.2513L28.9853 17.2493C29.2005 17.9127 28.9752 18.6055 28.4114 19.0151C27.8484 19.4246 27.1195 19.4246 26.5555 19.0146L23.1546 16.5443C23.0621 16.4764 22.9374 16.477 22.8454 16.5437L19.4443 19.0151C19.1626 19.2196 18.8393 19.3223 18.5164 19.3223ZM15.7452 8.94584C15.5789 8.94584 15.517 9.05992 15.4949 9.12772C15.4728 9.19553 15.4559 9.32405 15.5902 9.42166L18.9918 11.893C19.5468 12.2964 19.7772 13.0055 19.565 13.6582L18.2661 17.6562C18.2145 17.8145 18.3039 17.9086 18.3617 17.9506C18.4198 17.9928 18.5367 18.0483 18.671 17.9506L22.072 15.4793C22.627 15.0759 23.3734 15.0759 23.9285 15.4799L27.3292 17.9502C27.4648 18.0498 27.5814 17.9928 27.6385 17.9506C27.6962 17.9085 27.7857 17.8145 27.7341 17.6557L26.4349 13.6581C26.2229 13.0054 26.4534 12.2962 27.0087 11.8929L30.4097 9.42157C30.5443 9.32387 30.5274 9.19543 30.5053 9.12763C30.4832 9.05983 30.4213 8.94575 30.255 8.94575H26.0512C25.3651 8.94575 24.7618 8.50737 24.5496 7.85527L23.2503 3.85677C23.199 3.69853 23.0715 3.67488 23.0001 3.67488C22.9287 3.67488 22.8012 3.69853 22.7499 3.85677L21.4507 7.85536C21.2385 8.50746 20.6351 8.94584 19.9491 8.94584H15.7452Z" fill="#0F3827"/>
<path id="Vector_9" d="M23.0001 40.3823C22.6368 40.3823 22.3423 40.0878 22.3423 39.7245V33.3218C22.3423 33.033 22.5306 32.7781 22.8069 32.6928C23.0823 32.6085 23.3822 32.7139 23.5444 32.9523L24.837 34.8568C25.041 35.1575 24.9629 35.5665 24.6622 35.7705C24.3609 35.9756 23.9526 35.8964 23.7486 35.5958L23.6579 35.4622V39.7245C23.6579 40.0878 23.3634 40.3823 23.0001 40.3823Z" fill="#0F3827"/>
<path id="Vector_10" d="M22.9999 40.3826C22.6366 40.3826 22.3421 40.0881 22.3421 39.7248V35.4625L22.2514 35.5961C22.0471 35.8973 21.6386 35.9753 21.3377 35.7708C21.0371 35.5668 20.9589 35.1577 21.163 34.8571L22.4557 32.9526C22.6178 32.7136 22.9184 32.6083 23.1931 32.6931C23.4693 32.7784 23.6577 33.0333 23.6577 33.3221V39.7248C23.6577 40.0881 23.3632 40.3826 22.9999 40.3826Z" fill="#0F3827"/>
</g>
</g>
</svg>
